<svg width="100" height="100" viewBox="0 0 100 100" fill="none" xmlns="http://www.w3.org/2000/svg">
<rect width="100" height="100" rx="20" fill="white"/>
<path d="M31.333 43.3333C31.333 43.3333 24.4757 45.9999 23.333 55.3333M68.6663 43.3333C68.6663 43.3333 75.5237 45.9999 76.6663 55.3333M41.9997 43.3333C41.9997 43.3333 48.3997 44.8893 49.9997 52.6666C51.5997 44.8893 57.9997 43.3333 57.9997 43.3333M44.6663 63.3333C44.6663 63.3333 39.0663 64.3333 36.6663 71.3333M55.333 63.3333C55.333 63.3333 60.933 64.3333 63.333 71.3333" stroke="#074592" stroke-width="2" stroke-linecap="round"/>
<path d="M49.9997 65.9998C53.6816 65.9998 56.6663 63.0151 56.6663 59.3332C56.6663 55.6513 53.6816 52.6665 49.9997 52.6665C46.3178 52.6665 43.333 55.6513 43.333 59.3332C43.333 63.0151 46.3178 65.9998 49.9997 65.9998Z" stroke="#074592" stroke-width="2" stroke-linecap="round" stroke-linejoin="round"/>
<path d="M63.333 44.6665C67.7513 44.6665 71.333 41.0848 71.333 36.6665C71.333 32.2482 67.7513 28.6665 63.333 28.6665C58.9147 28.6665 55.333 32.2482 55.333 36.6665C55.333 41.0848 58.9147 44.6665 63.333 44.6665Z" stroke="#074592" stroke-width="2" stroke-linecap="round" stroke-linejoin="round"/>
<path d="M36.666 44.6665C41.0843 44.6665 44.666 41.0848 44.666 36.6665C44.666 32.2482 41.0843 28.6665 36.666 28.6665C32.2477 28.6665 28.666 32.2482 28.666 36.6665C28.666 41.0848 32.2477 44.6665 36.666 44.6665Z" stroke="#074592" stroke-width="2" stroke-linecap="round" stroke-linejoin="round"/>
</svg>
