<svg width="100" height="101" viewBox="0 0 100 101" fill="none" xmlns="http://www.w3.org/2000/svg">
<rect y="0.5" width="100" height="100" rx="20" fill="white"/>
<path d="M26.5452 77.6671H73.4572C74.0439 77.6671 74.5239 77.1871 74.5239 76.6004V71.1604C74.5239 70.5738 74.0439 70.0938 73.4572 70.0938H26.5452C25.9585 70.0938 25.4785 70.5738 25.4785 71.1604V76.6004C25.4785 77.1871 25.9585 77.6671 26.5452 77.6671Z" fill="#074592"/>
<path d="M26.5452 43.3727H73.4572C74.0439 43.3727 74.5239 42.9033 74.5239 42.306V36.866C74.5239 36.2793 74.0439 35.7993 73.4572 35.7993H26.5452C25.9585 35.7993 25.4785 36.2793 25.4785 36.866V42.306C25.4785 42.9033 25.9585 43.3727 26.5452 43.3727Z" fill="#074592"/>
<path d="M69.3281 33.6669L50.4695 24.4402C50.1708 24.3015 49.8295 24.3015 49.5308 24.4402L30.6721 33.6669H69.3281Z" fill="#074592"/>
<path d="M39.3763 47.2785C39.9629 47.2785 40.4429 46.7985 40.4429 46.2118V45.5078H29.0723V46.2118C29.0723 46.7985 29.5416 47.2785 30.1389 47.2785H30.9176V66.1905H30.1389C29.5416 66.1905 29.0723 66.6705 29.0723 67.2571V67.9611H40.4429V67.2571C40.4429 66.6705 39.9629 66.1905 39.3763 66.1905H38.5976V47.2785H39.3763Z" fill="#074592"/>
<path d="M54.6165 47.2785C55.2032 47.2785 55.6832 46.7985 55.6832 46.2118V45.5078H44.3125V46.2118C44.3125 46.7985 44.7925 47.2785 45.3792 47.2785H46.1578V66.1905H45.3792C44.7925 66.1905 44.3125 66.6705 44.3125 67.2571V67.9611H55.6832V67.2571C55.6832 66.6705 55.2032 66.1905 54.6165 66.1905H53.8378V47.2785H54.6165Z" fill="#074592"/>
<path d="M69.8606 47.2785C70.4473 47.2785 70.9273 46.7985 70.9273 46.2118V45.5078H59.5566V46.2118C59.5566 46.7985 60.0366 47.2785 60.6233 47.2785H61.402V66.1905H60.6233C60.0366 66.1905 59.5566 66.6705 59.5566 67.2571V67.9611H70.9273V67.2571C70.9273 66.6705 70.4473 66.1905 69.8606 66.1905H69.082V47.2785H69.8606Z" fill="#074592"/>
</svg>
