<svg width="100" height="101" viewBox="0 0 100 101" fill="none" xmlns="http://www.w3.org/2000/svg">
<rect y="0.5" width="100" height="100" rx="20" fill="white"/>
<path d="M47.9737 46.7821C54.3164 46.7821 59.4581 41.6404 59.4581 35.2977C59.4581 28.955 54.3164 23.8132 47.9737 23.8132C41.631 23.8132 36.4893 28.955 36.4893 35.2977C36.4893 41.6404 41.631 46.7821 47.9737 46.7821Z" fill="#074592"/>
<path d="M55.333 67.7778H67.7775V70.2667H55.333V67.7778Z" fill="#074592"/>
<path d="M44.6666 71.3333V76.6666C44.6666 77.1381 44.8539 77.5903 45.1873 77.9237C45.5207 78.2571 45.9729 78.4444 46.4444 78.4444H76.6666C77.1381 78.4444 77.5903 78.2571 77.9237 77.9237C78.2571 77.5903 78.4444 77.1381 78.4444 76.6666V58.8888C78.4444 58.4173 78.2571 57.9651 77.9237 57.6317C77.5903 57.2983 77.1381 57.111 76.6666 57.111H64.2222V54.4977C64.2222 54.0262 64.0349 53.574 63.7015 53.2406C63.3681 52.9072 62.9159 52.7199 62.4444 52.7199C61.9729 52.7199 61.5207 52.9072 61.1873 53.2406C60.8539 53.574 60.6666 54.0262 60.6666 54.4977V57.111H57.1111V50.7466C54.0902 50.2523 51.0343 50.0026 47.9733 49.9999C41.2227 49.9712 34.5478 51.4215 28.4177 54.2488C27.4088 54.7249 26.5576 55.4805 25.9652 56.4258C25.3728 57.3712 25.064 58.4666 25.0755 59.5822V71.3333H44.6666ZM74.8888 74.8888H48.2222V60.6666H60.6666V61.4133C60.6666 61.8848 60.8539 62.3369 61.1873 62.6703C61.5207 63.0037 61.9729 63.191 62.4444 63.191C62.9159 63.191 63.3681 63.0037 63.7015 62.6703C64.0349 62.3369 64.2222 61.8848 64.2222 61.4133V60.6666H74.8888V74.8888Z" fill="#074592"/>
</svg>
