<svg width="40" height="40" viewBox="0 0 40 40" fill="none" xmlns="http://www.w3.org/2000/svg">
<rect width="40" height="40" rx="5" fill="#074592"/>
<path d="M11 19.2498C11 19.4487 11.079 19.6395 11.2197 19.7801C11.3603 19.9208 11.5511 19.9998 11.75 19.9998H26.4395L23.2205 23.2188C23.0839 23.3603 23.0083 23.5497 23.01 23.7464C23.0117 23.943 23.0906 24.1311 23.2296 24.2702C23.3687 24.4092 23.5568 24.4881 23.7534 24.4898C23.9501 24.4915 24.1395 24.4159 24.281 24.2793L28.781 19.7793C28.8504 19.7103 28.9055 19.6283 28.9431 19.5379C28.9806 19.4476 29 19.3507 29 19.2528V19.2498C29 19.1523 28.9805 19.0548 28.9415 18.9633C28.9041 18.8724 28.8491 18.7898 28.7795 18.7203L24.2795 14.2203C24.138 14.0837 23.9486 14.0081 23.7519 14.0098C23.5553 14.0115 23.3672 14.0904 23.2281 14.2294C23.0891 14.3685 23.0102 14.5566 23.0085 14.7532C23.0068 14.9499 23.0824 15.1393 23.219 15.2808L26.4395 18.4998H11.75C11.5511 18.4998 11.3603 18.5788 11.2197 18.7195C11.079 18.8601 11 19.0509 11 19.2498Z" fill="white"/>
</svg>
