<svg width="71" height="71" viewBox="0 0 71 71" fill="none" xmlns="http://www.w3.org/2000/svg">
<path d="M0.5 0H59C65.6274 0 71 5.37258 71 12V58.5C71 65.1274 65.6274 70.5 59 70.5H0.5V0Z" fill="#2F302C"/>
<path fill-rule="evenodd" clip-rule="evenodd" d="M32.2494 41.8027C32.5255 42.0658 32.9725 42.0658 33.2478 41.8027L39.0864 36.2248C39.6379 35.698 39.6379 34.8433 39.0864 34.3165L33.2055 28.6974C32.9322 28.437 32.4909 28.4337 32.2141 28.6907C31.9317 28.9531 31.9282 29.3855 32.2064 29.6519L37.5888 34.7934C37.8649 35.0571 37.8649 35.4841 37.5888 35.7479L32.2494 40.8489C31.9734 41.1119 31.9734 41.5396 32.2494 41.8027Z" fill="white"/>
</svg>
