<svg width="64" height="64" viewBox="0 0 64 64" fill="none" xmlns="http://www.w3.org/2000/svg">
<path fill-rule="evenodd" clip-rule="evenodd" d="M16 8C13.8783 8 11.8434 8.84285 10.3431 10.3431C8.84285 11.8434 8 13.8783 8 16V48C8 50.1217 8.84285 52.1566 10.3431 53.6569C11.8434 55.1571 13.8783 56 16 56H48C50.1217 56 52.1566 55.1571 53.6569 53.6569C55.1571 52.1566 56 50.1217 56 48V34.6667C56 33.9594 55.7191 33.2811 55.219 32.781C54.7189 32.281 54.0406 32 53.3333 32C52.6261 32 51.9478 32.281 51.4477 32.781C50.9476 33.2811 50.6667 33.9594 50.6667 34.6667V48C50.6667 48.7072 50.3857 49.3855 49.8856 49.8856C49.3855 50.3857 48.7072 50.6667 48 50.6667H16C15.2928 50.6667 14.6145 50.3857 14.1144 49.8856C13.6143 49.3855 13.3333 48.7072 13.3333 48V16C13.3333 15.2928 13.6143 14.6145 14.1144 14.1144C14.6145 13.6143 15.2928 13.3333 16 13.3333H37.3333C38.0406 13.3333 38.7189 13.0524 39.219 12.5523C39.719 12.0522 40 11.3739 40 10.6667C40 9.95942 39.719 9.28115 39.219 8.78105C38.7189 8.28095 38.0406 8 37.3333 8H16ZM56.9547 16.12C57.569 15.7704 58.0195 15.1912 58.207 14.5097C58.3945 13.8281 58.3038 13.1 57.9547 12.4853C57.6001 11.8755 57.0205 11.4292 56.3403 11.2422C55.6602 11.0552 54.9338 11.1425 54.3173 11.4853C53.376 12.0187 52.4667 12.616 51.5707 13.2187C49.2985 14.747 47.1063 16.3909 45.0027 18.144C40.624 21.7867 35.3653 26.9173 31.032 33.392C29.6848 31.618 28.1206 30.0198 26.376 28.6347C25.2373 27.7467 23.9707 26.8747 22.6027 26.3787C21.9386 26.135 21.2022 26.1652 20.5603 26.4625C19.9185 26.7598 19.421 27.2999 19.1773 27.964C18.9337 28.6281 18.9638 29.3618 19.2611 30.0037C19.5585 30.6455 20.0986 31.143 20.7627 31.3867C20.8293 31.4133 21.7493 31.7867 23.0987 32.84C24.64 34.04 26.768 36.144 28.8213 39.6587C29.0575 40.0633 29.3962 40.3986 29.8032 40.6307C30.2102 40.8628 30.6712 40.9836 31.1397 40.9809C31.6082 40.9782 32.0678 40.8521 32.4721 40.6153C32.8764 40.3785 33.2111 40.0393 33.4427 39.632C37.6667 32.1893 43.5413 26.2987 48.4133 22.2453C50.84 20.2267 53 18.6827 54.5413 17.648C55.328 17.1173 56.128 16.5973 56.952 16.1227L56.9547 16.12Z" fill="#074592"/>
</svg>
