<svg width="37" height="25" viewBox="0 0 37 25" fill="none" xmlns="http://www.w3.org/2000/svg">
<path d="M30.7113 4.79372C27.3443 1.71028 22.9444 0 18.3789 0C13.8134 0 9.4135 1.71028 6.04655 4.79372L1.63737 8.80088C1.12166 9.26944 0.709604 9.84063 0.427632 10.4778C0.145659 11.115 0 11.8041 0 12.5008C0 13.1976 0.145659 13.8867 0.427632 14.5239C0.709604 15.161 1.12166 15.7322 1.63737 16.2008L6.04655 20.2088C9.41362 23.2919 13.8135 25.002 18.3789 25.002C22.9443 25.002 27.3442 23.2919 30.7113 20.2088L35.1204 16.2016C35.6361 15.733 36.0482 15.1618 36.3302 14.5247C36.6121 13.8875 36.7578 13.1984 36.7578 12.5016C36.7578 11.8049 36.6121 11.1158 36.3302 10.4786C36.0482 9.84143 35.6361 9.27024 35.1204 8.80168L30.7113 4.79372Z" fill="white"/>
<path d="M18.3789 20.0012C22.521 20.0012 25.8789 16.6434 25.8789 12.5012C25.8789 8.35908 22.521 5.00122 18.3789 5.00122C14.2368 5.00122 10.8789 8.35908 10.8789 12.5012C10.8789 16.6434 14.2368 20.0012 18.3789 20.0012Z" fill="white"/>
<path d="M18.3789 25.003C13.8139 25.0004 9.41497 23.2906 6.04653 20.2096L1.63734 16.2008C1.12152 15.7324 0.709386 15.1612 0.427408 14.524C0.145429 13.8868 -0.000156828 13.1977 1.26773e-07 12.5009C0.000157081 11.8041 0.146054 11.1151 0.428319 10.478C0.710585 9.84095 1.12298 9.26997 1.63901 8.80174L6.04653 4.79296C9.41385 1.71027 13.8136 0.000488281 18.3789 0.000488281C22.9442 0.000488281 27.3439 1.71027 30.7112 4.79296L35.1204 8.80174C35.6362 9.2702 36.0484 9.84137 36.3303 10.4786C36.6123 11.1157 36.7579 11.8049 36.7577 12.5017C36.7576 13.1985 36.6117 13.8875 36.3294 14.5246C36.0472 15.1616 35.6348 15.7326 35.1187 16.2008L30.7112 20.2096C27.3428 23.2906 22.9438 25.0004 18.3789 25.003ZM18.3789 3.33796C14.6439 3.33969 11.0447 4.73891 8.28936 7.26041L3.88018 11.2692C3.70811 11.425 3.57056 11.615 3.47637 11.8272C3.38219 12.0393 3.33345 12.2688 3.33329 12.5009C3.33313 12.733 3.38156 12.9626 3.47546 13.1749C3.56936 13.3871 3.70666 13.5774 3.87851 13.7334L8.28933 17.7422C11.0435 20.2657 14.6434 21.6655 18.3788 21.6655C22.1143 21.6655 25.7142 20.2657 28.4684 17.7422L32.8775 13.7334C33.0496 13.5776 33.1872 13.3875 33.2813 13.1754C33.3755 12.9633 33.4243 12.7338 33.4244 12.5017C33.4246 12.2696 33.3762 12.04 33.2823 11.8277C33.1884 11.6155 33.0511 11.4252 32.8792 11.2692L28.4684 7.26041C25.713 4.73891 22.1139 3.33968 18.3789 3.33796Z" fill="#0C5DAD"/>
<path d="M18.3789 20.0012C16.8955 20.0012 15.4455 19.5614 14.2121 18.7372C12.9788 17.9131 12.0175 16.7418 11.4498 15.3714C10.8822 14.0009 10.7336 12.4929 11.023 11.038C11.3124 9.58319 12.0267 8.24682 13.0756 7.19792C14.1245 6.14903 15.4609 5.43472 16.9157 5.14533C18.3706 4.85595 19.8786 5.00447 21.249 5.57213C22.6195 6.13978 23.7908 7.10108 24.6149 8.33445C25.439 9.56782 25.8789 11.0179 25.8789 12.5012C25.8767 14.4897 25.0859 16.3961 23.6798 17.8021C22.2738 19.2082 20.3674 19.9991 18.3789 20.0012ZM18.3789 8.33456C17.5548 8.33456 16.7492 8.57893 16.064 9.03677C15.3788 9.49461 14.8448 10.1454 14.5294 10.9067C14.214 11.6681 14.1315 12.5058 14.2923 13.3141C14.4531 14.1224 14.8499 14.8648 15.4326 15.4475C16.0154 16.0302 16.7578 16.4271 17.566 16.5878C18.3743 16.7486 19.2121 16.6661 19.9734 16.3507C20.7348 16.0354 21.3855 15.5013 21.8434 14.8161C22.3012 14.1309 22.5456 13.3253 22.5456 12.5012C22.5446 11.3965 22.1052 10.3373 21.3241 9.55607C20.5429 8.77489 19.4837 8.33558 18.3789 8.33456Z" fill="#0C5DAD"/>
</svg>
