<svg width="39" height="39" viewBox="0 0 39 39" fill="none" xmlns="http://www.w3.org/2000/svg">
<path fill-rule="evenodd" clip-rule="evenodd" d="M24.1766 28.2634L34.3385 22.3964C37.1291 20.7853 39.5645 25.0042 36.774 26.6149L23.4894 34.2846C22.5597 34.8215 21.5672 34.9497 20.5316 34.6672L13.0622 32.6285C12.2326 32.4022 11.4294 32.5343 10.716 33.0144L9.43328 33.8778L5.61133 26.0927L12.5133 22.3449C13.4988 21.8098 14.5431 21.7099 15.6122 22.0488L22.5262 24.2396C24.8798 24.9854 24.0427 28.5231 21.6065 28.1402L22.5306 28.4383C23.0994 28.6215 23.6591 28.5621 24.1766 28.2634Z" fill="white"/>
<path fill-rule="evenodd" clip-rule="evenodd" d="M23.9245 27.8251L34.0849 21.959C35.1441 21.3475 36.3243 21.367 37.2982 22.1308C38.815 23.3203 39.1162 25.8468 37.0258 27.0534L23.7427 34.7223C22.7018 35.3234 21.5583 35.4718 20.3986 35.1554L12.9292 33.1167C12.243 32.9294 11.5887 33.0372 10.9976 33.435L9.71487 34.2985C9.45909 34.4703 9.10784 34.3799 8.96893 34.0797L5.15698 26.3149C5.03815 26.0719 5.13151 25.7776 5.36924 25.6484L12.2712 21.9007C13.3757 21.3008 14.5687 21.1857 15.7649 21.5648L22.6789 23.7557C24.6571 24.3825 24.8903 26.6736 23.724 27.924C23.7915 27.8962 23.8584 27.8632 23.9245 27.8251ZM16.8739 27.0472C16.6089 26.9563 16.4676 26.6676 16.5585 26.4025C16.6495 26.1374 16.9381 25.9962 17.2032 26.0872L21.732 27.6467C23.5171 27.8771 24.1149 25.2755 22.3734 24.7237L15.4594 22.5329C14.5188 22.2348 13.6206 22.3195 12.7553 22.7893L6.27924 26.3058L9.63151 33.1343C10.3379 32.6588 10.9011 32.1987 11.7641 32.0568C12.2282 31.9804 12.7084 32.0079 13.195 32.1407L20.6645 34.1793C21.567 34.4256 22.4256 34.3151 23.2359 33.8472L36.5219 26.1766C38.7263 24.9041 36.766 21.5493 34.5903 22.835L24.4283 28.7019C23.7859 29.0728 23.0811 29.1478 22.3758 28.9204C20.5314 28.3254 18.7067 27.6783 16.8739 27.0472Z" fill="#074592"/>
<path fill-rule="evenodd" clip-rule="evenodd" d="M5.00491 24.2529L11.1463 34.8901C11.4853 35.4773 11.2823 36.2352 10.6951 36.5743L8.49554 37.8442C7.90827 38.1832 7.15046 37.9801 6.81147 37.3929L0.670067 26.7557C0.331083 26.1685 0.534051 25.4106 1.12132 25.0716L3.32093 23.8017C3.90811 23.4626 4.66593 23.6657 5.00491 24.2529Z" fill="#074592"/>
<path fill-rule="evenodd" clip-rule="evenodd" d="M11.5857 34.6382C12.0746 35.485 11.7603 36.5766 10.9219 37.0277L8.74833 38.2825C7.91716 38.7624 6.8524 38.4755 6.37396 37.6468L0.232554 27.0096C-0.246665 26.1795 0.0387257 25.1131 0.868257 24.6332L3.06787 23.3632C3.89873 22.8835 4.96427 23.1689 5.44427 23.999C7.49583 27.5425 9.53834 31.092 11.5857 34.6382ZM10.7089 35.1421L4.56748 24.5067C4.36802 24.1617 3.9188 24.0419 3.57568 24.24L1.37607 25.5099C1.03412 25.7119 0.909351 26.1553 1.10935 26.5017L7.25076 37.1389C7.45037 37.4846 7.90138 37.6039 8.24451 37.4057L10.4422 36.1358C10.788 35.9359 10.907 35.4851 10.7089 35.1421Z" fill="#074592"/>
<path fill-rule="evenodd" clip-rule="evenodd" d="M19.2577 0.506592L27.1869 3.96144V10.204C27.1869 15.1099 23.8052 19.2641 19.2577 20.451C14.7102 19.2641 11.3284 15.11 11.3284 10.204V3.96144L19.2577 0.506592Z" fill="#074592"/>
<path fill-rule="evenodd" clip-rule="evenodd" d="M19.46 0.0423596L27.3892 3.4972C27.5738 3.57759 27.6946 3.75978 27.6947 3.96142V10.2039C27.6947 15.2695 24.2181 19.6837 19.3846 20.941C19.2944 20.9644 19.2035 20.9618 19.1199 20.9381C16.7145 20.3076 14.6213 18.8856 13.1395 16.9706C11.6871 15.0937 10.8206 12.7445 10.8206 10.2039V3.96134C10.8206 3.73884 10.9636 3.54978 11.1628 3.48111L19.0553 0.0422815C19.1896 -0.0162341 19.3355 -0.0119373 19.46 0.0423596ZM26.6791 4.29236L19.2577 1.05884L11.8363 4.29236V10.2038C11.8363 12.5139 12.6228 14.6481 13.941 16.3516C15.2644 18.0618 17.1225 19.3392 19.2577 19.9268C21.3931 19.3392 23.2511 18.0618 24.5745 16.3516C25.8926 14.6481 26.6791 12.5139 26.6791 10.2038V4.29236Z" fill="#074592"/>
<path fill-rule="evenodd" clip-rule="evenodd" d="M14.1292 11.4449C13.9309 11.2467 13.9309 10.9251 14.1292 10.7268C14.3275 10.5285 14.649 10.5285 14.8473 10.7268L17.2632 13.1427L23.668 6.73782C23.8663 6.53954 24.1879 6.53954 24.3861 6.73782C24.5844 6.9361 24.5844 7.25767 24.3861 7.45595L17.6222 14.2199C17.4239 14.4181 17.1024 14.4181 16.9041 14.2199L14.1292 11.4449Z" fill="white"/>
</svg>
