<svg width="34" height="23" viewBox="0 0 34 23" fill="none" xmlns="http://www.w3.org/2000/svg">
<path d="M16.375 1.74945L16.36 1.73945L15.0383 0.851116C14.1311 0.240932 13.0489 -0.0550674 11.9574 0.00844727C10.8659 0.0719619 9.82533 0.491489 8.995 1.20278L5.75 3.98445C5.52335 4.17827 5.23488 4.28467 4.93667 4.28445H1.25C0.918479 4.28445 0.600537 4.41615 0.366116 4.65057C0.131696 4.88499 0 5.20293 0 5.53445V15.5844C0 16.2745 0.56 16.8344 1.25 16.8344H4.73C4.90749 16.8343 5.08298 16.872 5.24477 16.945C5.40656 17.018 5.55095 17.1246 5.66833 17.2578L9.56667 21.6911C10.1735 22.3809 11.0125 22.8238 11.9243 22.9359C12.8362 23.0481 13.7574 22.8216 14.5133 22.2995L15.6533 21.5111L16.8767 21.9278C17.6326 22.1841 18.4507 22.1926 19.2118 21.9519C19.9728 21.7112 20.6373 21.2339 21.1083 20.5895L21.8917 19.5195L22.435 19.5928C23.1875 19.6942 23.953 19.5647 24.6304 19.2216C25.3077 18.8785 25.8649 18.3378 26.2283 17.6711L26.31 17.5211H32.0833C32.4149 17.5211 32.7328 17.3894 32.9672 17.155C33.2016 16.9206 33.3333 16.6026 33.3333 16.2711V5.53612C33.3333 5.2046 33.2016 4.88665 32.9672 4.65223C32.7328 4.41781 32.4149 4.28612 32.0833 4.28612H28.3983C28.0985 4.28621 27.8087 4.17855 27.5817 3.98278L24.7667 1.55112C23.5925 0.5365 22.0828 -0.00500472 20.5314 0.0319625C18.98 0.0689297 17.4979 0.681725 16.3733 1.75112M13.64 2.92612L14.5767 3.55612L11.31 6.84112C10.9579 7.19518 10.6801 7.61598 10.4929 8.07883C10.3056 8.54169 10.2127 9.03728 10.2195 9.53654C10.2263 10.0358 10.3328 10.5287 10.5327 10.9862C10.7325 11.4438 11.0217 11.8568 11.3833 12.2011L11.4967 12.3078C12.8467 13.5928 14.9333 13.6928 16.3983 12.5411L19.8633 9.82112L24.2917 14.0794C24.4895 14.2694 24.6194 14.5192 24.6612 14.7903C24.7031 15.0613 24.6546 15.3386 24.5233 15.5795L24.4817 15.6528L24.4583 15.6961L24.0333 16.4745C23.9122 16.6964 23.7266 16.8764 23.501 16.9906C23.2755 17.1049 23.0206 17.1481 22.77 17.1145L21.4883 16.9428C21.2656 16.9128 21.0389 16.9434 20.8322 17.0314C20.6254 17.1194 20.4462 17.2615 20.3133 17.4428L19.09 19.1128C18.9331 19.3276 18.7117 19.4867 18.4582 19.567C18.2046 19.6474 17.932 19.6447 17.68 19.5595L15.8633 18.9428C15.6785 18.8799 15.4816 18.8612 15.2883 18.8881C15.0949 18.915 14.9106 18.9868 14.75 19.0978L13.0933 20.2428C12.8412 20.4171 12.5338 20.4927 12.2296 20.4552C11.9254 20.4177 11.6456 20.2697 11.4433 20.0395L7.545 15.6061C7.19282 15.2062 6.75944 14.8859 6.27376 14.6666C5.78807 14.4474 5.26123 14.3341 4.72833 14.3344H2.5V6.78445H4.935C5.82986 6.78465 6.6953 6.46484 7.375 5.88278L10.6217 3.10112C11.0367 2.74534 11.557 2.53543 12.1027 2.50352C12.6485 2.47161 13.1896 2.61947 13.6433 2.92445M27.1767 15.0228C27.1827 14.5107 27.0838 14.0028 26.886 13.5304C26.6882 13.058 26.3957 12.6312 26.0267 12.2761L21.825 8.23612C22.0136 7.9957 22.1076 7.69454 22.0892 7.38954C22.0708 7.08454 21.9414 6.79683 21.7253 6.58077C21.5093 6.36471 21.2216 6.23527 20.9166 6.21691C20.6116 6.19855 20.3104 6.29254 20.07 6.48112L19.2267 7.14278L19.1267 7.22112L14.8567 10.5761C14.6203 10.7619 14.3249 10.8562 14.0246 10.8418C13.7243 10.8274 13.4392 10.7053 13.2217 10.4978L13.1083 10.3895C12.9878 10.2747 12.8913 10.1371 12.8246 9.98457C12.758 9.83207 12.7224 9.66779 12.7201 9.50137C12.7178 9.33496 12.7487 9.16975 12.8111 9.01544C12.8735 8.86114 12.966 8.72084 13.0833 8.60278L18.025 3.63612C18.6942 2.96331 19.5936 2.56924 20.5419 2.53337C21.4902 2.49749 22.4168 2.82247 23.135 3.44278L25.9467 5.87278C26.6284 6.46145 27.4993 6.78506 28.4 6.78445H30.8333V15.0228H27.1767Z" fill="#074592"/>
</svg>
