<svg width="50" height="50" viewBox="0 0 50 50" fill="none" xmlns="http://www.w3.org/2000/svg">
<rect width="50" height="50" rx="6" fill="#074592"/>
<g clip-path="url(#clip0_1253_1863)">
<path d="M30.605 24.97L38.2937 18.29V31.5738L30.605 24.97ZM20.6975 26.1012L23.3975 28.445C23.8212 28.805 24.3737 29.0225 24.9775 29.0225H24.9987H25.015C25.62 29.0225 26.1725 28.8038 26.6012 28.4412L26.5975 28.4438L29.2975 26.1L37.505 33.1487H12.4937L20.6975 26.1012ZM12.4825 16.7062H37.52L25.4937 27.1512C25.3591 27.2593 25.1914 27.3175 25.0187 27.3162H25.0012H24.985C24.8118 27.3175 24.6435 27.2587 24.5087 27.15L24.51 27.1512L12.4825 16.7062ZM11.7062 18.2888L19.3937 24.9688L11.7062 31.5687V18.2888ZM38.7062 15.2375C38.4062 15.0875 38.0537 15 37.68 15H12.3237C11.9616 15.0014 11.6046 15.0857 11.28 15.2463L11.2937 15.24C10.9061 15.4319 10.5796 15.728 10.3511 16.0953C10.1225 16.4625 10.0009 16.8862 10 17.3187V32.5338C10.0007 33.1495 10.2456 33.7399 10.681 34.1753C11.1164 34.6107 11.7067 34.8556 12.3225 34.8563H37.6762C38.292 34.8556 38.8824 34.6107 39.3178 34.1753C39.7532 33.7399 39.9981 33.1495 39.9987 32.5338V17.3187C39.9987 16.41 39.475 15.6225 38.7125 15.2438L38.6987 15.2375H38.7062Z" fill="white"/>
</g>
<defs>
<clipPath id="clip0_1253_1863">
<rect width="30" height="30" fill="white" transform="translate(10 10)"/>
</clipPath>
</defs>
</svg>
