<svg width="39" height="34" viewBox="0 0 39 34" fill="none" xmlns="http://www.w3.org/2000/svg">
<path d="M20.4133 1.25V4.16667H23.7049C24.2899 4.16667 24.8616 4.34333 25.3449 4.67167L28.1733 6.595C28.2433 6.64167 28.321 6.66556 28.4066 6.66667H35.2433C35.5748 6.66667 35.8927 6.79836 36.1272 7.03278C36.3616 7.2672 36.4933 7.58515 36.4933 7.91667C36.4933 8.24819 36.3616 8.56613 36.1272 8.80055C35.8927 9.03497 35.5748 9.16667 35.2433 9.16667H32.6133L38.2233 21.9667C38.3355 22.2226 38.3587 22.5088 38.2893 22.7795C38.2198 23.0502 38.0616 23.2898 37.8399 23.46C37.6733 23.5833 37.501 23.6978 37.3233 23.8033C36.9014 24.0571 36.4613 24.2794 36.0066 24.4683C34.4991 25.0988 32.8806 25.4212 31.2466 25.4167C29.613 25.4238 27.9947 25.1018 26.4883 24.47C26.0336 24.2805 25.5935 24.0577 25.1716 23.8033C24.9943 23.7017 24.8235 23.5892 24.6599 23.4667L24.6516 23.46C24.43 23.2898 24.2718 23.0502 24.2023 22.7795C24.1328 22.5088 24.156 22.2226 24.2683 21.9667L29.8816 9.16667H28.4049C27.8199 9.16667 27.2483 8.99 26.7649 8.66167L23.9366 6.73833C23.8677 6.69169 23.7865 6.66673 23.7033 6.66667H20.4133V30.8333H27.8916C28.2231 30.8333 28.5411 30.965 28.7755 31.1994C29.0099 31.4339 29.1416 31.7518 29.1416 32.0833C29.1416 32.4149 29.0099 32.7328 28.7755 32.9672C28.5411 33.2016 28.2231 33.3333 27.8916 33.3333H10.4349C10.1034 33.3333 9.78548 33.2016 9.55106 32.9672C9.31664 32.7328 9.18494 32.4149 9.18494 32.0833C9.18494 31.7518 9.31664 31.4339 9.55106 31.1994C9.78548 30.965 10.1034 30.8333 10.4349 30.8333H17.9133V6.66667H14.6216C14.5384 6.66673 14.4572 6.69169 14.3883 6.73833L11.5616 8.66167C11.0783 8.99 10.5066 9.16667 9.92161 9.16667H8.44494L14.0583 21.9667C14.1669 22.2153 14.1917 22.4926 14.1289 22.7566C14.066 23.0206 13.919 23.257 13.7099 23.43C13.5766 23.5383 13.4433 23.64 13.1933 23.8017C12.772 24.075 12.3308 24.3163 11.8733 24.5233C10.3684 25.2084 8.73342 25.5608 7.07994 25.5567C5.42645 25.5608 3.79152 25.2084 2.28661 24.5233C1.82911 24.3163 1.38786 24.075 0.966606 23.8017C0.789203 23.6871 0.617342 23.5642 0.451606 23.4333C0.243798 23.2586 0.0976114 23.0218 0.0345965 22.7578C-0.0284185 22.4937 -0.00492752 22.2164 0.101606 21.9667L5.71327 9.16667H3.08494C2.75342 9.16667 2.43548 9.03497 2.20106 8.80055C1.96664 8.56613 1.83494 8.24819 1.83494 7.91667C1.83494 7.58515 1.96664 7.2672 2.20106 7.03278C2.43548 6.79836 2.75342 6.66667 3.08494 6.66667H9.92161C10.0061 6.66667 10.0844 6.64278 10.1566 6.595L12.9816 4.67167C13.4649 4.34167 14.0383 4.16667 14.6233 4.16667H17.9133V1.25C17.9133 0.918479 18.045 0.600537 18.2794 0.366116C18.5138 0.131696 18.8318 0 19.1633 0C19.4948 0 19.8127 0.131696 20.0472 0.366116C20.2816 0.600537 20.4133 0.918479 20.4133 1.25ZM2.81827 21.9967C4.12966 22.6959 5.59379 23.0595 7.07994 23.055C8.56609 23.0595 10.0302 22.6959 11.3416 21.9967L7.07994 12.28L2.81827 21.9967ZM27.0016 21.9567C27.1383 22.0233 27.291 22.0933 27.4599 22.1667C28.3433 22.5383 29.6349 22.9167 31.2466 22.9167C32.7159 22.9206 34.167 22.5924 35.4916 21.9567L31.2466 12.2783L27.0016 21.9567Z" fill="white"/>
</svg>
