<svg width="35" height="33" viewBox="0 0 35 33" fill="none" xmlns="http://www.w3.org/2000/svg">
<path d="M5.75 12.555C5.75 10.6117 7.41667 9.91667 8.25 9.91667C9.90667 9.91667 10.75 11.1733 10.75 12.555C10.75 15.7767 8.51167 17.4167 5.75 17.4167C2.98833 17.4167 0.75 14.805 0.75 11.5833C0.75 8.36167 2.98833 5.75 5.75 5.75H29.0833C31.845 5.75 34.0833 8.36167 34.0833 11.5833C34.0833 14.805 31.845 17.4167 29.0833 17.4167C26.3217 17.4167 24.0833 15.7767 24.0833 12.555C24.0833 11.1717 24.9267 9.91667 26.5833 9.91667C27.4167 9.91667 29.0833 10.6117 29.0833 12.555" stroke="#074592" stroke-width="1.5" stroke-linecap="round"/>
<path d="M2.41797 30.7507C2.41797 30.3086 2.59356 29.8847 2.90612 29.5721C3.21868 29.2596 3.64261 29.084 4.08464 29.084H30.7513C31.1933 29.084 31.6173 29.2596 31.9298 29.5721C32.2424 29.8847 32.418 30.3086 32.418 30.7507V32.4173C32.418 32.8593 32.2424 33.2833 31.9298 33.5958C31.6173 33.9084 31.1933 34.084 30.7513 34.084H4.08464C3.64261 34.084 3.21868 33.9084 2.90612 33.5958C2.59356 33.2833 2.41797 32.8593 2.41797 32.4173V30.7507Z" stroke="#074592" stroke-width="1.5"/>
<path d="M19.0833 12.4167H15.75M13.25 29.0833V22.4167M21.5833 29.0833V22.4167M29.0833 5.75C29.0833 3.39333 29.0833 2.215 28.35 1.48333C27.62 0.75 26.4417 0.75 24.0833 0.75H10.75C8.39333 0.75 7.215 0.75 6.48333 1.48333C5.75 2.21333 5.75 3.39167 5.75 5.75M5.75 17.4167V29.0833H29.0833V17.4167" stroke="#074592" stroke-width="1.5" stroke-linecap="round"/>
</svg>
