<svg width="36" height="35" viewBox="0 0 36 35" fill="none" xmlns="http://www.w3.org/2000/svg">
<path d="M34.5 17.5C34.5 26.6127 27.1127 34 18 34C8.8873 34 1.5 26.6127 1.5 17.5C1.5 8.3873 8.8873 1 18 1C27.1127 1 34.5 8.3873 34.5 17.5Z" stroke="white" stroke-width="2"/>
<path d="M20.6189 15.5107C20.9539 15.5107 21.2255 15.2391 21.2255 14.904C21.2255 14.569 20.9539 14.2974 20.6189 14.2974C20.2838 14.2974 20.0122 14.569 20.0122 14.904C20.0122 15.2391 20.2838 15.5107 20.6189 15.5107Z" fill="white"/>
<path fill-rule="evenodd" clip-rule="evenodd" d="M15.4712 17.4999C15.4712 18.894 16.6049 20.0277 17.999 20.0277C19.393 20.0277 20.5267 18.894 20.5267 17.4999C20.5267 16.1059 19.393 14.9722 17.999 14.9722C16.6049 14.9722 15.4712 16.1059 15.4712 17.4999ZM16.7351 17.5002C16.7351 16.8032 17.3019 16.2363 17.999 16.2363C18.696 16.2363 19.2629 16.8032 19.2629 17.5002C19.2629 18.1973 18.696 18.7641 17.999 18.7641C17.3019 18.7641 16.7351 18.1973 16.7351 17.5002Z" fill="white"/>
<path fill-rule="evenodd" clip-rule="evenodd" d="M15.4706 22.5554H20.5262C21.8255 22.5554 23.054 21.3269 23.054 20.0277V14.9721C23.054 13.6728 21.8255 12.4443 20.5262 12.4443H15.4706C14.1714 12.4443 12.9429 13.6728 12.9429 14.9721V20.0277C12.9429 21.3269 14.1714 22.5554 15.4706 22.5554ZM14.2068 14.9724C14.2068 14.3815 14.8798 13.7085 15.4706 13.7085H20.5262C21.1171 13.7085 21.7901 14.3815 21.7901 14.9724V20.0279C21.7901 20.6188 21.1171 21.2918 20.5262 21.2918H15.4706C14.8684 21.2918 14.2068 20.6302 14.2068 20.0279V14.9724Z" fill="white"/>
</svg>
