<svg width="28" height="28" viewBox="0 0 28 28" fill="none" xmlns="http://www.w3.org/2000/svg">
<path d="M13.7582 9.17265C11.2312 9.17265 9.16904 11.2349 9.16904 13.7619C9.16904 16.2889 11.2312 18.3512 13.7582 18.3512C16.2852 18.3512 18.3474 16.2889 18.3474 13.7619C18.3474 11.2349 16.2852 9.17265 13.7582 9.17265ZM27.5223 13.7619C27.5223 11.8615 27.5395 9.97826 27.4328 8.08128C27.326 5.87789 26.8234 3.92238 25.2122 2.31114C23.5976 0.69647 21.6455 0.197264 19.4422 0.0905368C17.5418 -0.01619 15.6586 0.00102404 13.7616 0.00102404C11.8613 0.00102404 9.97808 -0.01619 8.08113 0.0905368C5.87778 0.197264 3.9223 0.699913 2.3111 2.31114C0.696457 3.92582 0.19726 5.87789 0.0905352 8.08128C-0.0161897 9.98171 0.00102402 11.8649 0.00102402 13.7619C0.00102402 15.6589 -0.0161897 17.5455 0.0905352 19.4425C0.19726 21.6459 0.6999 23.6014 2.3111 25.2127C3.92575 26.8273 5.87778 27.3265 8.08113 27.4333C9.98152 27.54 11.8647 27.5228 13.7616 27.5228C15.662 27.5228 17.5452 27.54 19.4422 27.4333C21.6455 27.3265 23.601 26.8239 25.2122 25.2127C26.8268 23.598 27.326 21.6459 27.4328 19.4425C27.5429 17.5455 27.5223 15.6623 27.5223 13.7619ZM13.7582 20.8231C9.8507 20.8231 6.69715 17.6695 6.69715 13.7619C6.69715 9.85432 9.8507 6.70072 13.7582 6.70072C17.6657 6.70072 20.8193 9.85432 20.8193 13.7619C20.8193 17.6695 17.6657 20.8231 13.7582 20.8231ZM21.1085 8.06062C20.1961 8.06062 19.4594 7.32386 19.4594 6.41152C19.4594 5.49918 20.1961 4.76242 21.1085 4.76242C22.0208 4.76242 22.7575 5.49918 22.7575 6.41152C22.7578 6.62816 22.7153 6.84273 22.6325 7.04293C22.5498 7.24313 22.4283 7.42503 22.2751 7.57822C22.1219 7.73141 21.94 7.85287 21.7398 7.93565C21.5396 8.01843 21.3251 8.0609 21.1085 8.06062Z" fill="#074592"/>
</svg>
