<svg width="40" height="40" viewBox="0 0 40 40" fill="none" xmlns="http://www.w3.org/2000/svg">
<g clip-path="url(#clip0_1253_2871)">
<path d="M32.0912 26.7852L32.0052 26.7273H32.0045L29.9404 23.2422L22.6552 18.7695L16.6935 16.5422L13.3093 14.2903L7.71383 18.8086L5.87109 25.475L7.95914 26.864C7.96695 26.87 20.4527 36.459 20.0341 36.1382L24.092 38.8382C24.9212 39.3897 26.0437 39.1665 26.5966 38.3327C27.149 37.5007 26.9224 36.378 26.092 35.8249C26.9214 36.3765 28.0438 36.153 28.5966 35.3195C29.149 34.4874 28.9224 33.3648 28.092 32.8116C28.9337 33.3713 30.0497 33.1297 30.5959 32.3062C31.1482 31.4741 30.9224 30.3515 30.0912 29.7991C30.9224 30.3515 32.0443 30.1257 32.5959 29.2937V29.2929C33.1482 28.4609 32.9224 27.3391 32.0912 26.7852ZM25.392 4.76563V7.10938L19.9232 8.14453L14.4545 7.10938V4.76563C14.4545 4.33438 14.8037 3.98438 15.2357 3.98438C16.2273 3.98438 23.6125 3.98438 24.6107 3.98438C25.042 3.98438 25.392 4.33438 25.392 4.76563Z" fill="white"/>
<path d="M19.9456 32.7781C20.6886 33.4453 20.7503 34.5891 20.0831 35.332C16.9063 38.8766 17.8768 37.7937 17.687 38.0055C17.0189 38.7496 15.8767 38.8088 15.1354 38.143C14.3932 37.4758 14.3315 36.332 14.9979 35.5883L15.1679 33.6133L17.3948 32.9156C17.7518 32.518 18.2448 32.3156 18.7393 32.3156C19.169 32.3156 19.6011 32.468 19.9456 32.7781ZM14.5682 27.9445C15.3104 28.6125 15.3721 29.7555 14.7057 30.4992L14.1604 32.793L12.3089 33.1719C11.6425 33.9156 10.5018 33.9774 9.75809 33.3094C9.01512 32.6422 8.95418 31.4984 9.62059 30.7555L9.94168 28.75L12.0167 28.0828C12.6836 27.3384 13.8262 27.278 14.5682 27.9445ZM32.5393 19.2188L26.6164 14.1406L24.8112 15.3766C23.5596 16.2297 21.9971 16.4906 20.537 16.0914C19.0736 15.6894 17.5068 15.9567 16.2636 16.8062L14.6089 17.9336C13.7839 18.4961 13.5706 19.6211 14.1323 20.4477C14.6881 21.2659 15.8104 21.4914 16.6425 20.9242L18.562 19.6156C19.8467 20.6524 21.5279 21.1689 23.2628 20.9117C23.3587 20.9755 22.175 20.1882 32.0057 26.7273H32.0065L34.1628 25.258L32.5393 19.2188Z" fill="white"/>
<path d="M12.6413 12.5837C13.3702 13.0681 13.5726 14.0485 13.0991 14.7821C5.5093 26.2184 6.32711 24.9863 6.26555 25.079C5.77102 25.7915 4.7968 25.9798 4.0718 25.497L1.57258 23.8345C0.838205 23.3462 0.638205 22.354 1.12649 21.6181L7.92883 11.3681C8.41711 10.6321 9.40774 10.4321 10.1421 10.9212L12.6413 12.5837Z" fill="#074592"/>
<path d="M25.3926 7.10938V10.2344C25.3926 10.6656 25.0426 11.0156 24.6113 11.0156H15.2363C14.8043 11.0156 14.4551 10.6656 14.4551 10.2344V7.10938H25.3926Z" fill="white"/>
<path d="M38.8639 21.3477C39.3607 22.0774 39.1717 23.0719 38.4428 23.5688L35.9623 25.2594C35.2334 25.7563 34.2404 25.5672 33.7443 24.8375C33.737 24.8268 26.8239 14.6613 26.8162 14.65C26.3318 13.9219 26.5232 12.9375 27.2475 12.4438L29.7279 10.7524C30.4568 10.2555 31.4498 10.4446 31.9459 11.1742L38.8639 21.3477Z" fill="#074592"/>
<path d="M17.2566 30.3618C17.9988 31.029 18.0605 32.1727 17.3941 32.9157L14.9973 35.5883C14.3325 36.3302 13.1891 36.3951 12.4465 35.7266C11.7035 35.0594 11.6418 33.9157 12.3082 33.1719L14.7051 30.4993C15.0621 30.1008 15.5551 29.8985 16.0496 29.8985C16.4801 29.8985 16.9113 30.0516 17.2566 30.3618ZM11.8785 25.5282C12.6207 26.1954 12.6824 27.3391 12.016 28.0829L9.61992 30.7555C8.95133 31.5002 7.80727 31.5582 7.06836 30.893C6.32617 30.2258 6.26446 29.0821 6.93086 28.3391C7.12071 28.1272 6.15016 29.2102 9.32696 25.6657C9.68399 25.268 10.177 25.0657 10.6723 25.0657C11.102 25.0657 11.534 25.218 11.8785 25.5282Z" fill="white"/>
<path d="M15.2363 11.7969H24.6113C25.4729 11.7969 26.1738 11.0959 26.1738 10.2344V4.76562C26.1738 3.90406 25.4729 3.20312 24.6113 3.20312H23.0488V0.859375C23.0488 0.427969 22.699 0.078125 22.2676 0.078125H17.5801C17.1487 0.078125 16.7988 0.427969 16.7988 0.859375V3.20312H15.2363C14.3748 3.20312 13.6738 3.90406 13.6738 4.76562V10.2344C13.6738 11.0959 14.3748 11.7969 15.2363 11.7969ZM18.3613 1.64062H21.4863V3.20312H18.3613V1.64062ZM15.2363 4.76562H17.5801H22.2676H24.6113V6.32812H15.2363V4.76562ZM15.2363 7.89062H24.6113V10.2344H15.2363V7.89062Z" fill="#074592"/>
<path d="M39.5083 20.9085L32.5904 10.735C31.8505 9.64689 30.3722 9.3665 29.2862 10.107L26.8058 11.7983C26.1311 12.2583 25.7672 13.0122 25.769 13.777L24.37 14.7311C23.3061 15.4563 21.9839 15.6775 20.7427 15.3381C19.4028 14.9699 17.993 15.0913 16.7541 15.6428C16.3577 15.3797 15.6032 14.8809 14.1321 13.8999C14.1248 13.1358 13.7537 12.3854 13.0731 11.9332L10.5743 10.271C9.47818 9.5415 8.00389 9.84064 7.27701 10.9361L0.474512 21.1861C-0.250722 22.2792 0.0473246 23.7592 1.13889 24.4849L3.63779 26.1472C4.30326 26.5903 5.11975 26.6488 5.81826 26.3782L6.95857 27.1369L6.34857 27.8175C5.39592 28.8797 5.4842 30.52 6.5449 31.4735C7.06928 31.9457 7.73186 32.1614 8.38287 32.1336C8.47537 33.5432 9.6717 34.6093 11.0716 34.551C11.1642 35.9557 12.3557 37.0275 13.7607 36.9672C13.8035 37.6187 14.0897 38.2547 14.6121 38.7243C15.6809 39.6845 17.3172 39.5852 18.2673 38.5271L19.7419 36.8818C20.1469 37.1524 21.2739 37.9013 23.6593 39.4889C24.8439 40.2765 26.4526 39.9635 27.2476 38.7649C27.636 38.1798 27.7541 37.4924 27.6327 36.851C29.007 36.558 29.8944 35.2228 29.6329 33.8383C31.003 33.5455 31.8942 32.2117 31.6326 30.8251C32.2723 30.6878 32.8597 30.3098 33.247 29.7255C33.8444 28.8293 33.8037 27.6836 33.2316 26.837L34.2201 26.1635C34.9212 26.4287 35.7355 26.3585 36.4006 25.9049L38.8811 24.2142C39.9651 23.4756 40.2463 21.9924 39.5083 20.9085ZM5.61967 24.6376C5.36779 24.9955 4.86842 25.0896 4.50357 24.8465L2.0042 23.1839C1.6292 22.9346 1.52709 22.426 1.77647 22.05L8.57889 11.7999C8.82732 11.4255 9.33123 11.3205 9.70842 11.5717L12.208 13.2344C12.5781 13.4803 12.683 13.9846 12.4417 14.3585C12.417 14.397 5.63717 24.6112 5.61967 24.6376ZM9.03787 30.2336C8.65006 30.6656 8.00084 30.6818 7.59006 30.312C7.16881 29.9333 7.13365 29.2823 7.51193 28.8606L9.90756 26.1876C10.3004 25.7503 10.9506 25.7447 11.3555 26.1092C11.7767 26.4878 11.8117 27.1388 11.4339 27.561C10.989 28.0573 9.69217 29.5038 9.03787 30.2336ZM11.7256 32.6506C11.3407 33.0802 10.6945 33.1017 10.2787 32.7281C9.8574 32.3499 9.8224 31.6989 10.2009 31.277L12.5971 28.6042C12.9846 28.1719 13.633 28.156 14.0442 28.5253C14.4655 28.9044 14.5005 29.556 14.1225 29.9779C11.1881 33.2499 11.9405 32.4111 11.7256 32.6506ZM14.4142 35.0676C14.0276 35.4983 13.3797 35.5161 12.9678 35.1453C12.5463 34.7669 12.5111 34.1157 12.8888 33.6938C12.943 33.6335 14.178 32.2564 15.2867 31.02C15.6619 30.6019 16.3087 30.5612 16.7336 30.9428C17.1547 31.3213 17.1898 31.972 16.8122 32.3936C16.7969 32.4109 14.6161 34.8425 14.4142 35.0676ZM19.4996 34.811L17.1043 37.4836C16.7278 37.903 16.0797 37.9421 15.6565 37.5621C15.2351 37.1834 15.2002 36.5319 15.5782 36.11L17.9749 33.4377C18.3507 33.0192 18.999 32.9784 19.4222 33.3595C19.8438 33.738 19.8805 34.387 19.4996 34.811ZM31.9449 28.861C31.6333 29.3349 30.995 29.462 30.5239 29.1488L27.5367 27.1608C27.1776 26.9219 26.6926 27.0191 26.4534 27.3781C26.2143 27.7374 26.3117 28.2224 26.6708 28.4614L29.6588 30.45C30.1301 30.7631 30.2585 31.402 29.9447 31.8746C29.6346 32.3423 29.003 32.4794 28.5245 32.1613C28.459 32.1178 25.5631 30.1917 25.5363 30.1738C25.1772 29.935 24.6921 30.0324 24.4532 30.3917C24.2143 30.751 24.3117 31.2359 24.671 31.4748L27.6588 33.4621C28.1304 33.7762 28.2591 34.4156 27.9455 34.8878C27.6315 35.3612 26.995 35.4874 26.5246 35.1746L23.5363 33.1872C23.1771 32.9482 22.6922 33.0456 22.4532 33.405C22.2142 33.7643 22.3117 34.2493 22.671 34.4881L25.6588 36.4754C26.1303 36.7895 26.259 37.4289 25.9455 37.9012C25.6311 38.3753 24.9942 38.5002 24.5247 38.1881L20.7886 35.7021C21.6082 34.6386 21.4813 33.1087 20.4669 32.1977C19.9424 31.7256 19.2801 31.51 18.6294 31.5378C18.5366 30.1266 17.3394 29.061 15.9398 29.1206C15.847 27.7121 14.6542 26.6441 13.2512 26.7042C13.2084 26.0528 12.9225 25.4169 12.4005 24.9477C11.3344 23.9881 9.69615 24.0846 8.74443 25.1445L8.01225 25.9615C7.81178 25.8286 7.51045 25.6287 7.04436 25.3175C7.53686 24.577 13.6021 15.4374 13.6083 15.428L15.2731 16.5357C15.0092 16.7167 14.658 16.9569 14.1675 17.2883C12.9887 18.092 12.6825 19.7063 13.4847 20.887C14.2852 22.0648 15.8951 22.3785 17.0812 21.5699L18.5429 20.5735C19.9261 21.5093 21.5233 21.8806 23.072 21.7242C25.0207 23.0205 24.4769 22.6587 31.6579 27.4354C32.1294 27.7495 32.2582 28.3892 31.9449 28.861ZM31.9996 25.7859C28.3008 23.3256 26.2434 21.957 25.1017 21.1976C25.4409 21.0522 25.7713 20.88 26.089 20.6793C26.4537 20.4488 26.5626 19.9663 26.3321 19.6015C26.1018 19.2369 25.6194 19.1279 25.2543 19.3584C24.8933 19.5865 24.1394 19.9912 23.1467 20.139C21.668 20.3584 20.2004 19.9351 19.0512 19.0078C18.7832 18.7913 18.4051 18.7762 18.1205 18.9703L16.201 20.2788C15.7269 20.602 15.0909 20.4706 14.7771 20.0088C14.4583 19.5395 14.5797 18.8983 15.0474 18.5794C16.8808 17.3393 16.608 17.4949 17.083 17.2202C18.0655 16.6872 19.232 16.5435 20.3295 16.8451C22.0139 17.3057 23.8072 17.0058 25.2499 16.0222L26.3108 15.2988C27.8443 17.5541 31.9414 23.5795 32.9851 25.1144L31.9996 25.7859ZM38.0012 22.9233L35.5206 24.614C35.149 24.8674 34.6424 24.7716 34.3887 24.3982C34.3739 24.3763 27.5004 14.2709 27.4651 14.2174C27.2184 13.8466 27.3175 13.3406 27.686 13.0894L30.1664 11.3981C30.5365 11.1457 31.0434 11.2388 31.2983 11.6138L38.2165 21.7876C38.4701 22.1599 38.3735 22.6695 38.0012 22.9233Z" fill="#074592"/>
</g>
<defs>
<clipPath id="clip0_1253_2871">
<rect width="40" height="40" fill="white"/>
</clipPath>
</defs>
</svg>
