<svg width="50" height="50" viewBox="0 0 50 50" fill="none" xmlns="http://www.w3.org/2000/svg">
<rect width="50" height="50" rx="6" fill="#074592"/>
<path d="M25 37.1875C29.6875 30.625 33.4375 25 33.4375 21.25C33.4375 19.0122 32.5486 16.8661 30.9662 15.2838C29.3839 13.7014 27.2378 12.8125 25 12.8125C22.7622 12.8125 20.6161 13.7014 19.0338 15.2838C17.4514 16.8661 16.5625 19.0122 16.5625 21.25C16.5625 25 20.3125 30.625 25 37.1875Z" stroke="white"/>
<path d="M28.75 21.25C28.75 22.2446 28.3549 23.1984 27.6516 23.9017C26.9484 24.6049 25.9946 25 25 25C24.0054 25 23.0516 24.6049 22.3483 23.9017C21.6451 23.1984 21.25 22.2446 21.25 21.25C21.25 20.2554 21.6451 19.3016 22.3483 18.5983C23.0516 17.8951 24.0054 17.5 25 17.5C25.9946 17.5 26.9484 17.8951 27.6516 18.5983C28.3549 19.3016 28.75 20.2554 28.75 21.25Z" stroke="white"/>
</svg>
