<svg width="51" height="51" viewBox="0 0 51 51" fill="none" xmlns="http://www.w3.org/2000/svg">
<rect x="0.25" y="0.5" width="50" height="50" rx="14" fill="white"/>
<path d="M25.25 37.6875C29.9375 31.125 33.6875 25.5 33.6875 21.75C33.6875 19.5122 32.7986 17.3661 31.2162 15.7838C29.6339 14.2014 27.4878 13.3125 25.25 13.3125C23.0122 13.3125 20.8661 14.2014 19.2838 15.7838C17.7014 17.3661 16.8125 19.5122 16.8125 21.75C16.8125 25.5 20.5625 31.125 25.25 37.6875Z" stroke="#074592"/>
<path d="M29 21.75C29 22.7446 28.6049 23.6984 27.9016 24.4017C27.1984 25.1049 26.2446 25.5 25.25 25.5C24.2554 25.5 23.3016 25.1049 22.5983 24.4017C21.8951 23.6984 21.5 22.7446 21.5 21.75C21.5 20.7554 21.8951 19.8016 22.5983 19.0983C23.3016 18.3951 24.2554 18 25.25 18C26.2446 18 27.1984 18.3951 27.9016 19.0983C28.6049 19.8016 29 20.7554 29 21.75Z" stroke="#074592"/>
</svg>
