<svg width="51" height="61" viewBox="0 0 51 61" fill="none" xmlns="http://www.w3.org/2000/svg">
<path d="M2.93673 1.63627C2.88918 1.67208 2.85352 11.4846 2.85352 23.422V45.1241H24.4899H46.1262V43.2142V41.3042H26.3325H6.53883L6.56261 23.3623L6.59827 5.43236L26.3682 5.39655L46.1381 5.37267L46.1025 3.48657L46.0668 1.6124L24.5374 1.57659C12.6969 1.56465 2.9724 1.58852 2.93673 1.63627Z" fill="white"/>
<path d="M10.6652 9.38364C10.6177 9.43139 10.582 15.7104 10.582 23.3384V37.2216L26.6666 37.3052C35.4995 37.341 43.4883 37.3649 44.4037 37.341L46.068 37.3052L46.1037 29.3907L46.1275 21.4881H34.5128C28.117 21.4881 22.8149 21.4404 22.7317 21.3926C22.6247 21.3091 22.589 20.4138 22.6128 17.2981L22.6485 13.311L34.3939 13.2752L46.1275 13.2514V11.3414V9.43139H32.3967H18.6659V17.3697V25.3081H30.4352H42.2044V29.3668V33.4255H28.2953H14.3862L14.3625 21.3926L14.3268 9.3717L12.5317 9.33589C11.5569 9.32395 10.7128 9.34783 10.6652 9.38364Z" fill="#074592"/>
<path d="M10.6652 9.38413C10.6177 9.43188 10.582 15.7109 10.582 23.3389V37.2221L26.6666 37.3057V33.426H14.3862L14.3625 21.3931L14.3268 9.3722L12.5317 9.33638C11.5569 9.32445 10.7128 9.34832 10.6652 9.38413Z" fill="#565656"/>
<path d="M48.1472 45.5779C47.3388 45.9837 46.9703 46.9745 47.3626 47.7266C47.9214 48.801 49.2409 48.9561 50.0374 48.0489C50.7507 47.2252 50.4297 45.9718 49.3717 45.5301C48.8605 45.3152 48.6465 45.3152 48.1472 45.5779ZM49.6808 46.0315C50.5724 46.7835 50.0493 48.3473 48.8962 48.3473C47.9095 48.3473 47.2675 47.4878 47.5647 46.5925C47.85 45.7211 48.9556 45.4227 49.6808 46.0315Z" fill="white"/>
<path d="M48.1704 46.9864C48.1942 47.4998 48.2655 47.8101 48.3606 47.8459C48.4557 47.8698 48.5033 47.7624 48.5033 47.5236C48.5033 47.0581 48.7767 47.0342 49.062 47.4759C49.169 47.6669 49.276 47.834 49.2879 47.8579C49.3117 47.8698 49.3711 47.8579 49.4425 47.8101C49.5376 47.7624 49.5257 47.6549 49.4306 47.4759C49.3592 47.3326 49.2879 46.9984 49.2879 46.7358L49.276 46.2583L48.7054 46.2225L48.1348 46.1866L48.1704 46.9864ZM48.955 46.6403C48.8956 46.9506 48.5033 46.9864 48.5033 46.688C48.5033 46.509 48.5746 46.4373 48.7529 46.4373C48.9194 46.4373 48.9788 46.497 48.955 46.6403Z" fill="white"/>
<path d="M4.81356 48.0966C4.36181 48.204 3.92195 48.4427 3.92195 48.5741C3.92195 48.6337 3.81495 48.7054 3.69607 48.7412C3.5653 48.7651 3.31565 49.0874 3.14922 49.4336C2.87579 49.9588 2.84013 50.1617 2.89957 50.6512C2.9709 51.3435 3.16111 51.6778 3.75551 52.1314C4.14782 52.4298 4.31425 52.4656 5.22964 52.5015C6.13314 52.5373 6.33523 52.5134 6.84642 52.2508C7.1674 52.0956 7.50027 51.9882 7.58349 52.012C7.80936 52.0956 7.74992 51.9046 7.42894 51.5345C7.10796 51.1764 7.01286 51.1406 7.01286 51.3793C7.01286 51.6897 6.39467 51.9643 5.59817 52.012C4.92055 52.0598 4.75412 52.0359 4.39747 51.7852C3.03034 50.866 3.54153 48.9083 5.22964 48.5741C6.03803 48.4189 6.77509 48.6457 6.77509 49.0516C6.77509 49.4574 6.92964 49.3381 7.22684 48.7412C7.48838 48.204 7.48838 47.9414 7.23873 48.1921C7.14363 48.2876 6.97719 48.2756 6.63244 48.1563C6.12125 47.9772 5.40796 47.9533 4.81356 48.0966Z" fill="white"/>
<path d="M35.9034 48.7053C35.9034 48.7769 35.309 48.8247 34.358 48.8247C33.502 48.8247 32.8125 48.8724 32.8125 48.9321C32.8125 48.9918 32.8601 49.0634 32.9314 49.0873C33.0027 49.1112 33.0622 49.7558 33.0859 50.6034C33.1097 51.7493 33.0859 52.1194 32.9552 52.2507C32.8601 52.3462 32.8006 52.4417 32.8244 52.4656C32.8482 52.4895 33.6328 52.5253 34.5719 52.5491L36.2601 52.585V52.1075C36.2482 51.6897 36.2363 51.6538 36.0936 51.8329C35.9628 52.012 35.737 52.0478 34.7859 52.0478H33.6328L33.6684 51.4748L33.7041 50.9137L34.4531 50.8779C34.9048 50.854 35.2733 50.9018 35.3803 50.9854C35.523 51.1047 35.5468 51.0331 35.5468 50.6034C35.5468 50.2094 35.5111 50.1259 35.4041 50.2333C35.3209 50.3169 34.9286 50.3765 34.4531 50.3765H33.6447V49.911C33.6447 49.6484 33.7041 49.3977 33.7754 49.3619C33.9775 49.2306 35.8321 49.2783 35.8796 49.4096C35.9866 49.72 36.1412 49.5051 36.1412 49.0634C36.1412 48.8008 36.0936 48.5859 36.0223 48.5859C35.9628 48.5859 35.9034 48.6337 35.9034 48.7053Z" fill="white"/>
<path d="M10.4021 48.8961C8.88045 49.684 8.80912 51.6059 10.2595 52.3699C10.4497 52.4654 10.9252 52.5489 11.3294 52.5609C12.6609 52.5847 13.4336 51.964 13.5287 50.7703C13.6 49.9585 13.3979 49.481 12.8035 49.0513C12.3874 48.7528 12.221 48.7051 11.5434 48.7051C11.0679 48.7051 10.6161 48.7767 10.4021 48.8961ZM12.0427 49.2065C12.6252 49.3855 12.9581 49.8749 12.9581 50.5793C12.9581 51.5342 12.5539 51.9879 11.6147 52.1192C10.3427 52.2982 9.49863 51.1045 10.0811 49.9466C10.2951 49.5168 10.5567 49.302 11.056 49.1468C11.3532 49.0393 11.5434 49.0513 12.0427 49.2065Z" fill="white"/>
<path d="M15.4537 48.8248C15.2278 48.8726 15.1327 48.9203 15.2516 48.9322C15.4299 48.9442 15.4537 49.1113 15.4537 50.5677C15.4537 51.9882 15.4299 52.227 15.2516 52.3583C15.0613 52.5015 15.1327 52.5135 15.739 52.5254C16.3334 52.5254 16.4166 52.5015 16.262 52.3702C16.0362 52.1911 15.9411 51.2958 16.0362 50.317L16.1075 49.6127L17.1418 50.9138C17.9264 51.9046 18.1404 52.2508 18.0453 52.3702C17.9502 52.4896 18.0809 52.5254 18.711 52.5254C19.2103 52.5254 19.4837 52.4776 19.4362 52.406C19.4005 52.3344 19.2816 52.2866 19.1865 52.2866C19.0558 52.2866 19.0201 52.0001 19.0201 50.6751C19.0201 49.2784 19.0439 49.0636 19.2222 48.9561C19.5432 48.7771 19.3767 48.7293 18.7229 48.8129C18.3187 48.8606 18.1998 48.9203 18.3425 48.9681C18.5208 49.0397 18.5446 49.2307 18.5446 50.317C18.5446 51.0093 18.497 51.5704 18.4376 51.5704C18.3781 51.5704 18.1047 51.26 17.8194 50.878C17.5341 50.508 17.0942 49.935 16.8327 49.6246C16.4523 49.159 16.3928 49.0158 16.5355 48.9322C16.6781 48.8487 16.6781 48.8248 16.5236 48.8248C16.4285 48.8248 16.2383 48.8009 16.1075 48.7771C15.9767 48.7532 15.6795 48.7771 15.4537 48.8248Z" fill="white"/>
<path d="M22.1467 48.9442C21.0411 49.3859 20.5655 50.4483 21.0173 51.4868C21.3145 52.1434 22.004 52.5254 22.9313 52.5254C23.597 52.5254 24.1914 52.8119 24.0844 53.0745C23.9893 53.3133 24.1439 53.2655 24.5481 52.9432C24.8809 52.6686 24.8809 52.6448 24.6432 52.6448C24.239 52.6448 24.2033 52.418 24.5362 52.1553C25.2019 51.6301 25.4397 50.4602 25.0474 49.6962C24.6075 48.8487 23.276 48.5025 22.1467 48.9442ZM23.9774 49.4217C24.5124 49.744 24.7264 50.2095 24.6194 50.7945C24.4292 51.8092 24.0131 52.1792 23.4068 51.8688C23.0145 51.654 22.4914 51.7256 22.8243 51.9285C23.0739 52.0837 22.5865 52.0837 22.1823 51.9285C21.5879 51.7017 21.3264 50.6154 21.683 49.9111C22.0397 49.2307 23.2404 48.9681 23.9774 49.4217Z" fill="white"/>
<path d="M38.8276 48.8842C38.15 49.2542 37.9716 49.8272 38.3877 50.245C38.5185 50.3763 39.0178 50.5912 39.4933 50.7345C40.5157 51.0448 40.7178 51.2 40.6108 51.6178C40.5632 51.8327 40.4206 51.9521 40.1234 52.0356C39.4814 52.2147 38.2807 51.8685 38.4709 51.5581C38.5066 51.4985 38.5066 51.4507 38.4709 51.4507C38.3996 51.4507 38.043 52.1073 38.043 52.2505C38.043 52.2983 38.1618 52.3579 38.3164 52.3699C38.4591 52.3818 38.8514 52.4296 39.1961 52.4773C40.4444 52.6444 41.2528 52.2266 41.2528 51.403C41.2528 50.8777 40.9199 50.6032 39.957 50.3286C39.5646 50.2212 39.1248 50.0302 38.9702 49.9108L38.6968 49.684L38.9346 49.4214C39.1367 49.1945 39.2674 49.1707 39.8143 49.2065C40.2542 49.2423 40.5038 49.3378 40.6108 49.481C40.7059 49.6004 40.7891 49.684 40.8129 49.6482C40.8486 49.5885 41.1339 48.9439 41.1339 48.908C41.1339 48.8961 41.015 48.8722 40.8723 48.8722C40.7178 48.8603 40.2779 48.8245 39.8856 48.7767C39.3388 48.7051 39.0891 48.7409 38.8276 48.8842Z" fill="white"/>
<path d="M42.8104 49.1473C42.8104 49.398 42.8461 49.5293 42.8817 49.4458C42.9174 49.3622 43.167 49.3025 43.5237 49.3025H44.1062V50.7708C44.1062 52.1914 44.0943 52.251 43.8447 52.3824C43.6188 52.4898 43.702 52.5137 44.344 52.5137C44.9265 52.5137 45.0691 52.4898 44.9146 52.3943C44.7244 52.2869 44.7006 52.0839 44.7006 50.7947V49.3025H45.295C45.6279 49.3025 45.8894 49.3503 45.8894 49.4219C45.8894 49.4816 45.9489 49.5413 46.0083 49.5413C46.0796 49.5413 46.1272 49.3503 46.1272 49.1115C46.1272 48.7653 46.0915 48.6937 45.937 48.7534C45.6754 48.8608 43.0838 48.8728 42.9293 48.7653C42.8461 48.7176 42.7985 48.8608 42.8104 49.1473Z" fill="white"/>
<path d="M26.8808 48.9442C27.0235 49.0277 27.071 49.3142 27.0829 50.317C27.1186 51.8688 27.2493 52.1792 27.9983 52.4657C28.9374 52.8358 30.1619 52.4299 30.4235 51.6659C30.4948 51.463 30.5542 50.8303 30.5542 50.2692C30.5542 49.2068 30.6018 49.0277 30.9109 48.9084C31.006 48.8726 30.7444 48.8487 30.3165 48.8487C29.8885 48.8487 29.6388 48.8726 29.7458 48.9084C29.8647 48.9322 29.9836 49.1232 30.0311 49.3739C30.1025 49.7679 30.0074 51.1645 29.8885 51.6062C29.7458 52.0718 28.5927 52.3463 28.1647 52.0121C27.8081 51.7375 27.7011 51.3436 27.7011 50.2095C27.7011 49.2546 27.7367 49.0516 27.9151 48.9561C28.0696 48.8606 27.9507 48.8367 27.4039 48.8367C26.9165 48.8367 26.75 48.8606 26.8808 48.9442Z" fill="white"/>
<path d="M2.94811 55.2587C3.07888 55.3304 3.10266 55.6646 3.06699 56.6554L3.03133 57.9685L4.07748 57.9805C4.9572 57.9805 5.11175 57.9566 5.11175 57.7895C5.11175 57.6343 4.99287 57.6104 4.35091 57.6343C3.62574 57.6701 3.59007 57.6701 3.51874 57.3717C3.41175 56.9539 3.57818 55.3542 3.73273 55.2468C3.80406 55.1991 3.62574 55.1513 3.32853 55.1513C2.98378 55.1513 2.85301 55.1871 2.94811 55.2587Z" fill="white"/>
<path d="M16.5509 55.3427C16.3488 55.486 16.2894 55.6292 16.3132 55.9038C16.3488 56.2619 16.4083 56.3097 17.0859 56.5245C17.9775 56.811 18.3104 57.0856 18.1202 57.396C17.9419 57.6705 16.9551 57.7422 16.5866 57.4915C16.337 57.3244 16.3013 57.3244 16.2419 57.5034C16.1468 57.7541 16.337 57.8735 16.967 57.969C17.8824 58.1003 18.5481 57.778 18.5481 57.1811C18.5481 56.7514 18.2747 56.5365 17.4426 56.2977C16.7174 56.0829 16.5153 55.868 16.7768 55.5576C16.9195 55.3786 17.2761 55.3666 18.1202 55.5337C18.2391 55.5457 18.3698 55.5099 18.3936 55.4382C18.5006 55.1159 16.967 55.0443 16.5509 55.3427Z" fill="white"/>
<path d="M20.6028 55.6412C19.7706 55.8799 19.4496 56.9543 20.0203 57.6228C20.2818 57.9212 20.3888 57.957 21.0189 57.957C21.6014 57.957 21.7916 57.9093 22.0294 57.6825C22.6713 57.0737 22.493 56.0112 21.6965 55.677C21.2329 55.486 21.1378 55.486 20.6028 55.6412ZM21.8154 56.0112C22.4336 56.7752 22.0056 57.778 21.0545 57.778C20.2224 57.778 19.8063 56.8707 20.3294 56.1903C20.4601 56.0232 20.686 55.868 20.8406 55.8441C21.0664 55.8083 21.7441 55.9277 21.8154 56.0112Z" fill="white"/>
<path d="M37.7466 55.5928C36.6886 55.8673 36.3676 57.2401 37.2473 57.7773C38.2459 58.3981 39.4585 57.8251 39.4704 56.7507C39.4704 56.1658 39.09 55.7002 38.5075 55.5808C38.1151 55.5092 38.1151 55.5092 37.7466 55.5928ZM38.876 56.1061C39.4466 56.6791 38.9592 57.7773 38.1389 57.7773C37.3305 57.7773 36.8907 57.073 37.2592 56.3687C37.4732 55.9509 37.5921 55.8912 38.1984 55.8793C38.4837 55.8673 38.7214 55.9509 38.876 56.1061Z" fill="white"/>
<path d="M7.18203 55.7236C7.2058 55.7714 7.0037 56.3086 6.71839 56.9174L6.19531 58.0156H6.49252C6.71839 58.0156 6.77783 57.9559 6.77783 57.7172C6.77783 57.4307 6.81349 57.4188 7.49112 57.4188C8.16874 57.4188 8.2044 57.4307 8.2044 57.7172C8.2044 57.9559 8.26384 58.0156 8.48972 58.0156H8.78692L8.26384 56.8935C7.97853 56.2728 7.77643 55.7356 7.8121 55.6998C7.85965 55.664 7.71699 55.6281 7.503 55.6281C7.28902 55.6281 7.14636 55.6759 7.18203 55.7236ZM7.78832 56.607C7.99042 57.0964 7.93098 57.18 7.41979 57.18C6.96804 57.18 6.93238 57.0845 7.19391 56.5831C7.43168 56.1176 7.58622 56.1295 7.78832 56.607Z" fill="white"/>
<path d="M9.47506 55.7236C9.59394 55.7953 10.0695 56.8935 10.3786 57.8008C10.4261 57.9201 10.5569 58.0156 10.6758 58.0156C10.8541 58.0156 10.9254 57.8963 10.9848 57.562C11.0324 57.3233 11.1394 56.9532 11.2226 56.7622L11.389 56.4041L11.6387 56.9413C11.7695 57.2397 11.8883 57.5978 11.8883 57.7411C11.8883 57.9559 11.9597 58.0156 12.1855 58.0156C12.3758 58.0156 12.4827 57.944 12.4827 57.8366C12.4827 57.5739 13.0415 55.9863 13.2079 55.7953C13.3149 55.652 13.2555 55.6281 12.8869 55.6281C12.5779 55.6281 12.4827 55.664 12.5897 55.7356C12.7205 55.8191 12.7086 55.9505 12.5541 56.4996C12.4471 56.8696 12.3163 57.2039 12.2569 57.2397C12.1142 57.3233 11.6149 56.0101 11.6981 55.7833C11.7457 55.6759 11.6506 55.6281 11.3772 55.6401C11.1632 55.6401 11.0562 55.6759 11.1394 55.6998C11.282 55.7714 11.2226 56.0818 10.8897 56.8696C10.7827 57.1323 10.652 57.2874 10.5925 57.2278C10.4142 57.0129 10.0814 55.9743 10.1527 55.8072C10.2002 55.664 10.117 55.6281 9.77226 55.6281C9.5345 55.6281 9.39184 55.6759 9.47506 55.7236Z" fill="white"/>
<path d="M23.5266 55.7365C23.6455 55.8081 23.6693 56.1066 23.6455 56.9064L23.598 57.9807L24.3588 57.9927C24.763 58.0046 25.1553 58.0524 25.2148 58.0882C25.2742 58.124 25.3217 58.0285 25.3217 57.8733C25.3217 57.6107 25.2861 57.5988 24.6679 57.6346L24.0141 57.6823V56.7273C24.0141 56.0708 24.0616 55.7485 24.1686 55.7126C24.2399 55.6768 24.0973 55.641 23.8357 55.641C23.5266 55.641 23.4196 55.6649 23.5266 55.7365Z" fill="white"/>
<path d="M26.5703 56.8219C26.5703 57.9679 26.5822 58.0156 26.8319 58.0156C27.0815 58.0156 27.0934 57.9798 27.0577 56.9651C27.0458 56.3921 27.0815 55.855 27.1409 55.7714C27.2242 55.664 27.1647 55.6281 26.9151 55.6281H26.5703V56.8219Z" fill="white"/>
<path d="M29.0558 55.7484C28.6397 55.9155 28.2949 56.4527 28.2949 56.9422C28.2949 57.742 29.1865 58.2075 30.1257 57.8972C30.5893 57.742 30.732 57.6107 30.6131 57.4077C30.5537 57.3242 30.4467 57.36 30.2921 57.5032C29.9355 57.8255 29.1628 57.7897 28.8774 57.4316C28.5802 57.0615 28.5921 56.6676 28.925 56.2737C29.139 56.0349 29.3173 55.9514 29.7096 55.9394C30.0187 55.9394 30.2446 55.9991 30.304 56.0946C30.3872 56.2259 30.4348 56.214 30.5418 56.023C30.6488 55.8081 30.625 55.7723 30.2921 55.7007C29.8166 55.6052 29.3649 55.6171 29.0558 55.7484Z" fill="white"/>
<path d="M31.8365 55.7356C31.9553 55.8072 31.991 56.1176 31.9553 56.9293C31.9197 57.9559 31.9316 58.0156 32.1574 58.0156C32.3833 58.0156 32.3952 57.9559 32.3595 56.989C32.3358 56.3325 32.3714 55.9027 32.4665 55.7953C32.5735 55.652 32.526 55.6281 32.1455 55.6281C31.8483 55.6281 31.7414 55.664 31.8365 55.7356Z" fill="white"/>
<path d="M33.7637 55.8669C33.7637 56.0101 33.8588 56.046 34.1916 56.0101L34.6196 55.9624L34.5721 56.989C34.5364 57.944 34.5483 58.0156 34.7742 58.0156C35 58.0156 35.0119 57.944 34.9763 57.0009L34.9406 55.9863H35.4161C35.749 55.9863 35.9035 55.9385 35.9035 55.8191C35.9035 55.6998 35.6658 55.664 34.8336 55.6759C33.942 55.6759 33.7637 55.7117 33.7637 55.8669Z" fill="white"/>
<path d="M40.5261 55.7356C40.645 55.8072 40.6688 56.1056 40.645 56.9293C40.5975 57.9559 40.6094 58.0156 40.8352 58.0156C41.0492 58.0156 41.073 57.9559 41.0373 57.5381C40.9898 57.0964 41.0135 57.0606 41.2751 57.0606C41.5723 57.0606 41.9884 57.4307 42.1191 57.8008C42.1667 57.9321 42.3212 58.0156 42.4996 58.0156H42.8087L42.4282 57.5381L42.0478 57.0606L42.3569 56.8099C42.5471 56.6667 42.6779 56.4518 42.6779 56.2847C42.6779 55.8191 42.2618 55.6281 41.2513 55.6281C40.7045 55.6281 40.4191 55.6759 40.5261 55.7356ZM42.131 56.0221C42.4758 56.2728 42.3212 56.6309 41.8219 56.7503C41.2156 56.9054 41.0135 56.7861 41.0135 56.2847C41.0135 55.8788 41.0254 55.8669 41.4653 55.8669C41.7149 55.8669 42.0121 55.9385 42.131 56.0221Z" fill="white"/>
<path d="M44.367 55.8193C44.0817 56.0222 44.0223 56.3684 44.26 56.5474C44.3314 56.6191 44.688 56.7623 45.0328 56.8817C45.5558 57.0488 45.6628 57.1324 45.6272 57.3353C45.5677 57.7173 45.0565 57.8606 44.581 57.6099C44.0936 57.3711 44.1055 57.3711 44.1055 57.6457C44.1055 57.8247 44.2244 57.8844 44.6761 57.9561C45.5677 58.0754 46.2572 57.6576 46.0551 57.1204C45.9719 56.9175 45.4132 56.5833 45.1516 56.5833C45.0565 56.5833 44.8663 56.4997 44.7237 56.3923C44.2006 56.0222 44.9496 55.676 45.5558 55.9983C45.7461 56.1058 45.8174 56.0938 45.9006 55.9744C46.1146 55.6283 44.8188 55.497 44.367 55.8193Z" fill="white"/>
</svg>
