<svg width="167" height="197" viewBox="0 0 167 197" fill="none" xmlns="http://www.w3.org/2000/svg">
<path d="M0.292075 0.218506C0.125175 0.343246 0 34.5217 0 76.1012V151.693H75.9394H151.879V145.04V138.387H82.4068H12.9347L13.0182 75.8933L13.1434 13.4408L82.5319 13.3161L151.921 13.2329L151.795 6.66335L151.67 0.135345L76.1063 0.0106049C34.5482 -0.0309753 0.417249 0.0521851 0.292075 0.218506Z" fill="black"/>
<path d="M83.573 124.447C114.575 124.572 142.614 124.655 145.827 124.572L151.668 124.447L151.793 96.88L151.877 69.3543H111.112C88.6636 69.3543 70.0543 69.188 69.7622 69.0217C69.3867 68.7307 69.2615 65.6122 69.3449 54.7599L69.4701 40.8724L110.694 40.7476L151.877 40.6645V34.0117V27.359H103.685H55.4922V55.0094V82.6598H96.7999H138.108V96.7969V110.934H83.5731L83.573 124.447Z" fill="#074592"/>
<path d="M27.4132 27.1971C27.2463 27.3634 27.1212 49.2342 27.1212 75.8036V124.161L83.575 124.452V110.938H40.4731L40.3897 69.0261L40.2645 27.1555L33.964 27.0307C30.5426 26.9892 27.5801 27.0723 27.4132 27.1971Z" fill="#9A9A9A"/>
<path d="M158.972 153.269C156.134 154.683 154.841 158.134 156.218 160.754C158.179 164.496 162.81 165.036 165.606 161.876C168.109 159.007 166.983 154.642 163.269 153.103C161.475 152.355 160.724 152.355 158.972 153.269ZM164.354 154.85C167.484 157.469 165.648 162.916 161.6 162.916C158.137 162.916 155.884 159.922 156.927 156.804C157.929 153.768 161.809 152.729 164.354 154.85Z" fill="black"/>
<path d="M159.055 158.17C159.138 159.958 159.389 161.039 159.723 161.164C160.056 161.247 160.223 160.873 160.223 160.041C160.223 158.42 161.183 158.337 162.184 159.875C162.56 160.54 162.935 161.123 162.977 161.206C163.061 161.247 163.269 161.206 163.519 161.039C163.853 160.873 163.812 160.499 163.478 159.875C163.227 159.376 162.977 158.212 162.977 157.297L162.935 155.634L160.933 155.509L158.93 155.385L159.055 158.17ZM161.809 156.965C161.6 158.046 160.223 158.17 160.223 157.131C160.223 156.507 160.474 156.258 161.099 156.258C161.684 156.258 161.892 156.466 161.809 156.965Z" fill="black"/>
<path d="M6.88018 162.039C5.29464 162.414 3.75081 163.245 3.75081 163.703C3.75081 163.91 3.37529 164.16 2.95804 164.285C2.49906 164.368 1.62284 165.49 1.03869 166.696C0.0790178 168.526 -0.046157 169.233 0.162468 170.937C0.412817 173.349 1.08042 174.513 3.16666 176.093C4.54359 177.133 5.12774 177.257 8.34056 177.382C11.5117 177.507 12.221 177.424 14.0151 176.509C15.1417 175.969 16.31 175.594 16.6021 175.677C17.3949 175.969 17.1862 175.303 16.0597 174.014C14.9331 172.767 14.5993 172.642 14.5993 173.474C14.5993 174.555 12.4296 175.511 9.63403 175.677C7.25571 175.844 6.67156 175.761 5.41981 174.887C0.621442 171.686 2.41561 164.867 8.34056 163.703C11.1779 163.162 13.7648 163.952 13.7648 165.366C13.7648 166.779 14.3072 166.364 15.3503 164.285C16.2683 162.414 16.2683 161.499 15.3921 162.372C15.0583 162.705 14.4741 162.663 13.2641 162.247C11.4699 161.624 8.96643 161.54 6.88018 162.039Z" fill="black"/>
<path d="M115.999 164.161C115.999 164.411 113.913 164.577 110.575 164.577C107.57 164.577 105.15 164.744 105.15 164.951C105.15 165.159 105.317 165.409 105.568 165.492C105.818 165.575 106.027 167.82 106.11 170.773C106.194 174.764 106.11 176.053 105.651 176.511C105.317 176.843 105.109 177.176 105.192 177.259C105.276 177.342 108.029 177.467 111.326 177.55L117.251 177.675V176.012C117.209 174.556 117.167 174.432 116.667 175.055C116.208 175.679 115.415 175.804 112.077 175.804H108.029L108.155 173.808L108.28 171.854L110.908 171.729C112.494 171.646 113.788 171.812 114.163 172.103C114.664 172.519 114.747 172.269 114.747 170.773C114.747 169.4 114.622 169.109 114.246 169.484C113.954 169.775 112.577 169.983 110.908 169.983H108.071V168.361C108.071 167.446 108.28 166.573 108.53 166.448C109.239 165.991 115.749 166.157 115.915 166.615C116.291 167.696 116.833 166.947 116.833 165.409C116.833 164.494 116.667 163.746 116.416 163.746C116.208 163.746 115.999 163.912 115.999 164.161Z" fill="black"/>
<path d="M26.4952 164.831C21.1544 167.575 20.9041 174.269 25.9945 176.931C26.6621 177.263 28.3311 177.554 29.7498 177.596C34.423 177.679 37.1351 175.517 37.4689 171.359C37.7192 168.531 37.0099 166.868 34.9237 165.371C33.4633 164.332 32.8791 164.166 30.5008 164.166C28.8318 164.166 27.2463 164.415 26.4952 164.831ZM32.2533 165.912C34.2978 166.536 35.4661 168.24 35.4661 170.694C35.4661 174.02 34.0474 175.6 30.7512 176.057C26.2866 176.681 23.3241 172.523 25.3687 168.49C26.1197 166.993 27.0376 166.245 28.7901 165.704C29.8332 165.33 30.5008 165.371 32.2533 165.912Z" fill="black"/>
<path d="M44.2284 164.572C43.4357 164.739 43.1019 164.905 43.5191 164.946C44.145 164.988 44.2284 165.57 44.2284 170.643C44.2284 175.591 44.145 176.422 43.5191 176.88C42.8515 177.379 43.1019 177.42 45.2298 177.462C47.3161 177.462 47.6082 177.379 47.0657 176.921C46.273 176.298 45.9392 173.179 46.273 169.77L46.5233 167.317L50.1534 171.849C52.9072 175.3 53.6583 176.506 53.3245 176.921C52.9907 177.337 53.4497 177.462 55.6611 177.462C57.4135 177.462 58.3732 177.296 58.2063 177.046C58.0811 176.797 57.6639 176.63 57.3301 176.63C56.8711 176.63 56.7459 175.632 56.7459 171.017C56.7459 166.152 56.8294 165.404 57.4553 165.03C58.5818 164.406 57.9977 164.24 55.7028 164.531C54.2842 164.697 53.8669 164.905 54.3676 165.071C54.9935 165.321 55.0769 165.986 55.0769 169.77C55.0769 172.181 54.91 174.136 54.7014 174.136C54.4928 174.136 53.5331 173.054 52.5317 171.724C51.5303 170.435 49.9865 168.439 49.0685 167.358C47.7333 165.736 47.5247 165.238 48.0254 164.946C48.5261 164.655 48.5261 164.572 47.9837 164.572C47.6499 164.572 46.9823 164.489 46.5233 164.406C46.0643 164.323 45.0212 164.406 44.2284 164.572Z" fill="black"/>
<path d="M67.7214 164.991C63.841 166.53 62.172 170.23 63.7575 173.848C64.8007 176.134 67.2207 177.465 70.4753 177.465C72.8119 177.465 74.8981 178.463 74.5226 179.378C74.1888 180.209 74.7312 180.043 76.1498 178.92C77.3181 177.964 77.3181 177.881 76.4836 177.881C75.065 177.881 74.9398 177.091 76.1081 176.176C78.4447 174.346 79.2792 170.272 77.9023 167.611C76.3585 164.658 71.6853 163.453 67.7214 164.991ZM74.147 166.654C76.0247 167.777 76.7757 169.399 76.4002 171.436C75.7326 174.97 74.2722 176.259 72.1443 175.178C70.7673 174.43 68.9314 174.679 70.0997 175.386C70.976 175.926 69.2652 175.926 67.8466 175.386C65.7603 174.596 64.8424 170.812 66.0941 168.359C67.3459 165.989 71.5601 165.074 74.147 166.654Z" fill="black"/>
<path d="M126.262 164.786C123.883 166.075 123.258 168.07 124.718 169.526C125.177 169.983 126.929 170.732 128.598 171.23C132.187 172.312 132.896 172.852 132.52 174.307C132.354 175.056 131.853 175.472 130.81 175.763C128.557 176.386 124.342 175.181 125.01 174.099C125.135 173.892 125.135 173.725 125.01 173.725C124.76 173.725 123.508 176.012 123.508 176.511C123.508 176.677 123.925 176.885 124.468 176.927C124.968 176.968 126.345 177.135 127.555 177.301C131.936 177.883 134.774 176.428 134.774 173.559C134.774 171.729 133.605 170.773 130.226 169.817C128.849 169.443 127.305 168.777 126.762 168.362L125.803 167.571L126.637 166.657C127.347 165.867 127.806 165.784 129.725 165.908C131.269 166.033 132.145 166.366 132.52 166.865C132.854 167.28 133.146 167.571 133.23 167.447C133.355 167.239 134.356 164.994 134.356 164.869C134.356 164.827 133.939 164.744 133.438 164.744C132.896 164.703 131.352 164.578 129.975 164.411C128.056 164.162 127.18 164.287 126.262 164.786Z" fill="black"/>
<path d="M140.235 165.696C140.235 166.57 140.36 167.027 140.485 166.736C140.61 166.445 141.487 166.237 142.738 166.237H144.783V171.351C144.783 176.299 144.741 176.507 143.865 176.964C143.072 177.339 143.364 177.422 145.617 177.422C147.662 177.422 148.163 177.339 147.62 177.006C146.953 176.632 146.869 175.925 146.869 171.434V166.237H148.955C150.124 166.237 151.042 166.403 151.042 166.653C151.042 166.861 151.25 167.069 151.459 167.069C151.709 167.069 151.876 166.403 151.876 165.572C151.876 164.366 151.751 164.116 151.209 164.324C150.291 164.699 141.195 164.74 140.652 164.366C140.36 164.2 140.193 164.699 140.235 165.696Z" fill="black"/>
<path d="M84.3303 164.997C84.831 165.288 84.9979 166.286 85.0397 169.779C85.1648 175.184 85.6238 176.265 88.2525 177.263C91.5487 178.552 95.8464 177.138 96.7644 174.477C97.0147 173.77 97.2233 171.567 97.2233 169.612C97.2233 165.912 97.3902 165.288 98.4751 164.872C98.8089 164.748 97.8909 164.665 96.3888 164.665C94.8867 164.665 94.0105 164.748 94.386 164.872C94.8033 164.956 95.2205 165.621 95.3874 166.494C95.6378 167.866 95.304 172.731 94.8867 174.269C94.386 175.891 90.3387 176.847 88.8366 175.683C87.5849 174.727 87.2094 173.355 87.2094 169.405C87.2094 166.078 87.3345 165.371 87.9604 165.039C88.5028 164.706 88.0856 164.623 86.1662 164.623C84.4555 164.623 83.8714 164.706 84.3303 164.997Z" fill="black"/>
<path d="M0.330351 186.983C0.789326 187.232 0.872775 188.396 0.747601 191.848L0.622426 196.421L4.29422 196.463C7.38187 196.463 7.92429 196.38 7.92429 195.798C7.92429 195.257 7.50704 195.174 5.25389 195.257C2.70867 195.382 2.5835 195.382 2.33315 194.342C1.95762 192.887 2.54177 187.315 3.0842 186.941C3.33455 186.775 2.70867 186.609 1.66555 186.609C0.455526 186.609 -0.00344817 186.733 0.330351 186.983Z" fill="black"/>
<path d="M48.0742 187.28C47.3649 187.778 47.1563 188.277 47.2397 189.234C47.3649 190.481 47.5735 190.647 49.9518 191.396C53.0812 192.394 54.2495 193.35 53.5819 194.431C52.956 195.388 49.4929 195.637 48.1994 194.764C47.3232 194.182 47.198 194.182 46.9894 194.805C46.6556 195.679 47.3232 196.094 49.5346 196.427C52.7474 196.884 55.084 195.762 55.084 193.683C55.084 192.186 54.1243 191.437 51.2036 190.606C48.6584 189.857 47.949 189.109 48.867 188.028C49.3677 187.404 50.6194 187.363 53.5819 187.945C53.9991 187.986 54.4581 187.862 54.5416 187.612C54.9171 186.49 49.5346 186.24 48.0742 187.28Z" fill="black"/>
<path d="M62.299 188.314C59.3783 189.146 58.2517 192.888 60.2545 195.216C61.1725 196.256 61.548 196.38 63.7594 196.38C65.8039 196.38 66.4715 196.214 67.306 195.424C69.5592 193.303 68.9333 189.603 66.1377 188.439C64.5105 187.773 64.1767 187.773 62.299 188.314ZM66.555 189.603C68.7247 192.264 67.2226 195.757 63.8846 195.757C60.9638 195.757 59.5035 192.597 61.3394 190.227C61.7983 189.644 62.5911 189.104 63.1335 189.021C63.9263 188.896 66.3046 189.312 66.555 189.603Z" fill="black"/>
<path d="M122.467 188.153C118.753 189.109 117.627 193.891 120.714 195.762C124.219 197.924 128.475 195.928 128.517 192.186C128.517 190.149 127.182 188.527 125.137 188.111C123.76 187.862 123.76 187.862 122.467 188.153ZM126.431 189.941C128.434 191.937 126.723 195.762 123.844 195.762C121.006 195.762 119.463 193.309 120.756 190.856C121.507 189.4 121.924 189.192 124.052 189.151C125.054 189.109 125.888 189.4 126.431 189.941Z" fill="black"/>
<path d="M15.1898 188.61C15.2732 188.777 14.5639 190.648 13.5625 192.768L11.7266 196.594H12.7697C13.5625 196.594 13.7711 196.386 13.7711 195.554C13.7711 194.556 13.8963 194.515 16.2746 194.515C18.653 194.515 18.7781 194.556 18.7781 195.554C18.7781 196.386 18.9868 196.594 19.7795 196.594H20.8227L18.9868 192.685C17.9854 190.523 17.276 188.652 17.4012 188.527C17.5681 188.403 17.0674 188.278 16.3164 188.278C15.5653 188.278 15.0646 188.444 15.1898 188.61ZM17.3178 191.687C18.0271 193.392 17.8185 193.683 16.0243 193.683C14.4387 193.683 14.3136 193.351 15.2315 191.604C16.066 189.983 16.6084 190.024 17.3178 191.687Z" fill="black"/>
<path d="M23.2401 188.61C23.6574 188.86 25.3264 192.685 26.4112 195.845C26.5781 196.261 27.0371 196.594 27.4544 196.594C28.0802 196.594 28.3306 196.178 28.5392 195.014C28.7061 194.182 29.0816 192.893 29.3737 192.228L29.9579 190.981L30.8341 192.852C31.2931 193.891 31.7103 195.138 31.7103 195.637C31.7103 196.386 31.9607 196.594 32.7534 196.594C33.421 196.594 33.7966 196.344 33.7966 195.97C33.7966 195.055 35.7576 189.525 36.3418 188.86C36.7173 188.361 36.5087 188.278 35.2152 188.278C34.1304 188.278 33.7966 188.403 34.1721 188.652C34.6311 188.943 34.5893 189.4 34.0469 191.313C33.6714 192.602 33.2124 193.766 33.0038 193.891C32.5031 194.182 30.7506 189.608 31.0427 188.818C31.2096 188.444 30.8758 188.278 29.9161 188.319C29.1651 188.319 28.7896 188.444 29.0816 188.527C29.5823 188.777 29.3737 189.858 28.2054 192.602C27.8299 193.517 27.3709 194.057 27.1623 193.849C26.5364 193.101 25.3681 189.484 25.6185 188.902C25.7854 188.403 25.4933 188.278 24.2833 188.278C23.4488 188.278 22.9481 188.444 23.2401 188.61Z" fill="black"/>
<path d="M72.5575 188.655C72.9748 188.904 73.0582 189.944 72.9748 192.73L72.8079 196.472L75.4783 196.513C76.8969 196.555 78.2738 196.721 78.4825 196.846C78.6911 196.971 78.858 196.638 78.858 196.097C78.858 195.183 78.7328 195.141 76.5631 195.266L74.2682 195.432V192.106C74.2682 189.819 74.4351 188.696 74.8107 188.572C75.061 188.447 74.5603 188.322 73.6424 188.322C72.5575 188.322 72.182 188.405 72.5575 188.655Z" fill="black"/>
<path d="M83.2422 192.436C83.2422 196.427 83.284 196.594 84.1602 196.594C85.0364 196.594 85.0781 196.469 84.953 192.935C84.9112 190.939 85.0364 189.068 85.245 188.777C85.5371 188.403 85.3285 188.278 84.4523 188.278H83.2422V192.436Z" fill="black"/>
<path d="M91.9634 188.695C90.5031 189.277 89.293 191.148 89.293 192.853C89.293 195.639 92.4224 197.26 95.7187 196.179C97.3459 195.639 97.8466 195.181 97.4294 194.475C97.2208 194.183 96.8452 194.308 96.3028 194.807C95.0511 195.93 92.339 195.805 91.3376 194.558C90.2944 193.269 90.3362 191.897 91.5045 190.524C92.2555 189.693 92.8814 189.402 94.2583 189.36C95.3431 189.36 96.1359 189.568 96.3445 189.901C96.6366 190.358 96.8035 190.317 97.179 189.651C97.5546 188.903 97.4711 188.778 96.3028 188.529C94.6338 188.196 93.0483 188.238 91.9634 188.695Z" fill="black"/>
<path d="M101.724 188.652C102.141 188.902 102.266 189.983 102.141 192.81C102.016 196.386 102.058 196.594 102.851 196.594C103.643 196.594 103.685 196.386 103.56 193.018C103.476 190.731 103.602 189.234 103.935 188.86C104.311 188.361 104.144 188.278 102.809 188.278C101.766 188.278 101.39 188.403 101.724 188.652Z" fill="black"/>
<path d="M108.486 189.109C108.486 189.608 108.82 189.733 109.988 189.608L111.491 189.442L111.324 193.018C111.199 196.344 111.24 196.594 112.033 196.594C112.826 196.594 112.868 196.344 112.742 193.059L112.617 189.525H114.286C115.454 189.525 115.997 189.359 115.997 188.943C115.997 188.527 115.162 188.403 112.242 188.444C109.112 188.444 108.486 188.569 108.486 189.109Z" fill="black"/>
<path d="M132.225 188.652C132.642 188.902 132.725 189.941 132.642 192.81C132.475 196.386 132.517 196.594 133.31 196.594C134.061 196.594 134.144 196.386 134.019 194.931C133.852 193.392 133.935 193.267 134.853 193.267C135.896 193.267 137.357 194.556 137.816 195.845C137.983 196.303 138.525 196.594 139.151 196.594H140.236L138.901 194.931L137.565 193.267L138.65 192.394C139.318 191.895 139.777 191.147 139.777 190.565C139.777 188.943 138.317 188.278 134.77 188.278C132.851 188.278 131.849 188.444 132.225 188.652ZM137.858 189.65C139.068 190.523 138.525 191.771 136.773 192.186C134.645 192.727 133.935 192.311 133.935 190.565C133.935 189.151 133.977 189.109 135.521 189.109C136.397 189.109 137.44 189.359 137.858 189.65Z" fill="black"/>
<path d="M145.703 188.943C144.702 189.65 144.493 190.856 145.328 191.479C145.578 191.729 146.83 192.228 148.04 192.643C149.876 193.226 150.251 193.517 150.126 194.223C149.917 195.554 148.123 196.053 146.454 195.18C144.744 194.348 144.785 194.348 144.785 195.305C144.785 195.928 145.202 196.136 146.788 196.386C149.917 196.801 152.337 195.346 151.628 193.475C151.336 192.768 149.375 191.604 148.457 191.604C148.123 191.604 147.456 191.313 146.955 190.939C145.119 189.65 147.748 188.444 149.876 189.567C150.543 189.941 150.794 189.899 151.086 189.483C151.837 188.278 147.289 187.82 145.703 188.943Z" fill="black"/>
</svg>
