<svg width="51" height="51" viewBox="0 0 51 51" fill="none" xmlns="http://www.w3.org/2000/svg">
<rect x="0.25" y="0.5" width="50" height="50" rx="14" fill="white"/>
<path d="M18.7352 13.334L20.5138 12.7983C21.3234 12.5541 22.1943 12.6128 22.9638 12.9635C23.7333 13.3143 24.3489 13.9331 24.6956 14.7044L25.8024 17.1665C26.1006 17.8298 26.1837 18.5698 26.04 19.2827C25.8962 19.9956 25.5329 20.6456 25.001 21.1415L23.067 22.9447C23.0439 22.9677 23.0244 22.9941 23.0092 23.023C22.8067 23.4365 23.1142 24.5412 24.0774 26.2105C25.1638 28.0919 26.0027 28.8355 26.3917 28.7208L28.9299 27.944C29.625 27.7318 30.3691 27.7423 31.058 27.9742C31.7468 28.2061 32.3458 28.6478 32.771 29.2372L34.3438 31.4155C34.8376 32.0994 35.0664 32.9393 34.9875 33.7792C34.9087 34.6191 34.5277 35.4018 33.9152 35.9819L32.562 37.2622C32.0915 37.708 31.52 38.0333 30.8965 38.2103C30.273 38.3874 29.6159 38.4109 28.9813 38.279C25.2131 37.4947 21.837 34.4605 18.8242 29.2426C15.8102 24.0215 14.8706 19.5751 16.0813 15.9183C16.284 15.3061 16.631 14.7517 17.0932 14.3019C17.5553 13.8521 18.1178 13.5201 18.7352 13.334ZM19.2013 14.8726C18.8308 14.9842 18.4926 15.1833 18.2153 15.4532C17.938 15.723 17.7298 16.0556 17.6081 16.423C16.5645 19.574 17.4099 23.5769 20.217 28.439C23.022 33.298 26.0627 36.0301 29.3102 36.7051C29.691 36.7841 30.0853 36.7699 30.4593 36.6635C30.8334 36.5572 31.1762 36.3619 31.4585 36.0944L32.8106 34.8151C33.1405 34.5028 33.3458 34.0814 33.3884 33.6291C33.4309 33.1769 33.3079 32.7245 33.042 32.3562L31.4692 30.1769C31.2403 29.8596 30.9178 29.6218 30.547 29.4969C30.1762 29.372 29.7756 29.3663 29.4013 29.4805L26.8567 30.2594C25.4488 30.6783 24.1245 29.5051 22.6867 27.013C21.4685 24.9044 21.0463 23.3808 21.567 22.3169C21.6685 22.1097 21.8035 21.9272 21.972 21.7694L23.906 19.9662C24.1925 19.6992 24.3882 19.3491 24.4657 18.9652C24.5431 18.5812 24.4984 18.1827 24.3377 17.8255L23.2299 15.3644C23.0432 14.949 22.7117 14.6157 22.2972 14.4268C21.8828 14.2379 21.4138 14.2063 20.9777 14.338L19.2013 14.8726Z" fill="#074592"/>
</svg>
