<svg width="21" height="21" viewBox="0 0 21 21" fill="none" xmlns="http://www.w3.org/2000/svg">
<path fill-rule="evenodd" clip-rule="evenodd" d="M2.35917 3.0613C2.36117 3.0613 2.31117 3.1133 2.24817 3.1753C2.00617 3.4103 1.50517 3.8993 1.50012 4.9223C1.49217 6.3533 2.43317 9.0103 6.96417 13.5403C11.4742 18.0483 14.1272 19.0003 15.5612 19.0003H15.5822C16.6052 18.9953 17.0932 18.4933 17.3292 18.2523C17.4012 18.1783 17.4592 18.1243 17.5002 18.0903C18.4962 17.0883 19.0062 16.3423 19.0012 15.8643C18.9942 15.3763 18.3872 14.7993 17.5482 14.0013C17.2812 13.7473 16.9912 13.4713 16.6852 13.1653C15.8922 12.3743 15.4992 12.5093 14.6352 12.8133C13.4402 13.2323 11.8002 13.8023 9.25217 11.2533C6.70017 8.7033 7.27117 7.0653 7.68917 5.8703C7.99117 5.0063 8.12917 4.6123 7.33517 3.8183C7.02417 3.5083 6.74517 3.2143 6.48817 2.9443C5.69517 2.1103 5.12317 1.5073 4.63817 1.5003H4.63017C4.15117 1.5003 3.40717 2.0123 2.35417 3.0653C2.35717 3.0623 2.35917 3.0613 2.35917 3.0613ZM15.5622 20.5003C13.0702 20.5003 9.82117 18.5163 5.90417 14.6013C1.97217 10.6703 -0.0148324 7.4113 8.33525e-05 4.9143C0.00916765 3.2643 0.874168 2.4193 1.19917 2.1023C1.21617 2.0813 1.27417 2.0243 1.29417 2.0043C2.72817 0.569302 3.69517 -0.0106975 4.65717 0.000149137C5.77417 0.0153025 6.56917 0.851302 7.57517 1.9103C7.82417 2.1723 8.09417 2.4573 8.39517 2.7573C9.85517 4.2173 9.43917 5.4083 9.10517 6.3643C8.74117 7.4073 8.42617 8.3073 10.3122 10.1933C12.2002 12.0793 13.1002 11.7643 14.1392 11.3973C15.0962 11.0633 16.2842 10.6453 17.7462 12.1053C18.0422 12.4013 18.3232 12.6683 18.5822 12.9153C19.6462 13.9263 20.4862 14.7253 20.5004 15.8453C20.5122 16.8003 19.9322 17.7733 18.5002 19.2063L17.8662 18.7763L18.4022 19.3003C18.0852 19.6253 17.2412 20.4913 15.5902 20.5003H15.5622Z" fill="#074592"/>
</svg>
