<svg width="50" height="50" viewBox="0 0 50 50" fill="none" xmlns="http://www.w3.org/2000/svg">
<rect width="50" height="50" rx="6" fill="#074592"/>
<path d="M18.4852 12.8345L20.2638 12.2988C21.0734 12.0545 21.9443 12.1133 22.7138 12.464C23.4833 12.8148 24.0989 13.4335 24.4456 14.2049L25.5524 16.667C25.8506 17.3303 25.9337 18.0703 25.79 18.7832C25.6462 19.4961 25.2829 20.1461 24.751 20.642L22.817 22.4452C22.7939 22.4682 22.7744 22.4946 22.7592 22.5234C22.5567 22.937 22.8642 24.0417 23.8274 25.7109C24.9138 27.5924 25.7527 28.3359 26.1417 28.2213L28.6799 27.4445C29.375 27.2323 30.1191 27.2428 30.808 27.4747C31.4968 27.7066 32.0958 28.1483 32.521 28.7377L34.0938 30.9159C34.5876 31.5999 34.8164 32.4398 34.7375 33.2797C34.6587 34.1196 34.2777 34.9023 33.6652 35.4824L32.312 36.7627C31.8415 37.2085 31.27 37.5337 30.6465 37.7108C30.023 37.8878 29.3659 37.9114 28.7313 37.7795C24.9631 36.9952 21.587 33.9609 18.5742 28.7431C15.5602 23.522 14.6206 19.0756 15.8313 15.4188C16.034 14.8066 16.381 14.2522 16.8432 13.8024C17.3053 13.3526 17.8678 13.0206 18.4852 12.8345ZM18.9513 14.3731C18.5808 14.4847 18.2426 14.6838 17.9653 14.9537C17.688 15.2235 17.4798 15.5561 17.3581 15.9234C16.3145 19.0745 17.1599 23.0774 19.967 27.9395C22.772 32.7984 25.8127 35.5306 29.0602 36.2056C29.441 36.2846 29.8353 36.2703 30.2093 36.164C30.5834 36.0577 30.9262 35.8624 31.2085 35.5949L32.5606 34.3156C32.8905 34.0033 33.0958 33.5819 33.1384 33.1296C33.1809 32.6774 33.0579 32.225 32.792 31.8567L31.2192 29.6774C30.9903 29.36 30.6678 29.1223 30.297 28.9974C29.9262 28.8725 29.5256 28.8668 29.1513 28.9809L26.6067 29.7599C25.1988 30.1788 23.8745 29.0056 22.4367 26.5134C21.2185 24.4049 20.7963 22.8813 21.317 21.8174C21.4185 21.6102 21.5535 21.4277 21.722 21.2699L23.656 19.4667C23.9425 19.1996 24.1382 18.8496 24.2157 18.4657C24.2931 18.0817 24.2484 17.6832 24.0877 17.3259L22.9799 14.8649C22.7932 14.4494 22.4617 14.1162 22.0472 13.9273C21.6328 13.7384 21.1638 13.7068 20.7277 13.8384L18.9513 14.3731Z" fill="white"/>
</svg>
