<svg width="31" height="39" viewBox="0 0 31 39" fill="none" xmlns="http://www.w3.org/2000/svg">
<path fill-rule="evenodd" clip-rule="evenodd" d="M15.2439 24.4211C20.4301 24.4211 24.6337 20.2176 24.6337 15.0314C24.6337 9.8452 20.4301 5.64161 15.2439 5.64161C10.0577 5.64161 5.85415 9.84512 5.85415 15.0314C5.85415 20.2176 10.0577 24.4211 15.2439 24.4211ZM18.8993 30.9901L21.5377 37.1161L24.3388 32.6024L29.5427 33.6682L26.4663 26.5252C26.0781 26.6608 25.4773 26.7843 25.2596 26.9673C25.1139 27.0898 24.8872 27.5707 24.7975 27.7453C24.4747 28.3742 24.1245 28.9524 23.4922 29.3176C22.8635 29.6807 22.1889 29.6918 21.4876 29.6582C21.2845 29.6485 20.7588 29.6057 20.5725 29.6733C20.4438 29.72 20.2044 29.9418 20.1035 30.0342C19.7277 30.3785 19.3508 30.7453 18.8993 30.9901ZM9.00415 29.6579C8.30103 29.6913 7.62696 29.6784 6.99696 29.3143C6.36649 28.9499 6.01798 28.3722 5.69556 27.7456C5.60431 27.5682 5.37837 27.0907 5.2297 26.966C5.14282 26.8932 4.94329 26.8243 4.80665 26.777L0.945166 35.0711L6.17806 34.1568L8.84696 38.7497L12.3302 31.2682C11.6281 31.1242 11.1272 30.7201 10.6147 30.2464C10.4706 30.1128 10.0931 29.7385 9.91399 29.6731C9.73009 29.6058 9.20501 29.6484 9.00415 29.6579ZM15.2439 25.6711C9.36774 25.6711 4.60415 20.9075 4.60415 15.0315C4.60415 9.15528 9.36774 4.39169 15.2439 4.39169C21.1201 4.39169 25.8837 9.15528 25.8837 15.0315C25.8837 20.9075 21.1201 25.6711 15.2439 25.6711ZM29.3552 12.5432C29.4981 13.3536 30.3376 14.0782 30.4711 14.8354C30.637 15.7763 29.5221 16.5971 29.3592 17.5204C29.2057 18.3905 29.8556 19.4617 29.5694 20.2458C29.2816 21.0344 28.0902 21.4407 27.6537 22.196C27.216 22.9532 27.4583 24.1881 26.9206 24.8295C26.6974 25.0957 26.3493 25.2472 25.9705 25.374C25.4391 25.5519 24.8473 25.6813 24.4554 26.0107C23.7895 26.5705 23.598 27.8133 22.8671 28.2354C22.1511 28.649 20.9709 28.1994 20.1464 28.4985C19.5096 28.7294 18.999 29.4604 18.4013 29.8342C18.239 29.9357 18.0702 30.0109 17.8907 30.0425C17.0504 30.1907 16.1043 29.3622 15.243 29.3631C14.4704 29.364 13.6371 30.005 12.893 30.0596C12.7939 30.0675 12.6942 30.0631 12.5963 30.0465C11.7653 29.8998 11.1601 28.7975 10.3428 28.4991C9.51946 28.1984 8.34524 28.65 7.62251 28.2323C6.89743 27.8132 6.7029 26.5702 6.03274 26.0084C5.83946 25.8464 5.59688 25.7333 5.33665 25.639C4.69673 25.4072 3.94993 25.2882 3.56563 24.8311C3.02899 24.1927 3.27251 22.9622 2.8311 22.1982C2.39774 21.4481 1.20728 21.0425 0.918447 20.2457C0.636103 19.4669 1.2879 18.4006 1.13259 17.5199C0.989697 16.7097 0.150322 15.985 0.0168063 15.2278C-0.149209 14.2862 0.965478 13.4665 1.1286 12.5428C1.28204 11.6737 0.63251 10.601 0.918447 9.81755C1.20642 9.02848 2.3979 8.62216 2.83423 7.86739C3.27173 7.11059 3.02954 5.87544 3.56735 5.2338C4.10353 4.59419 5.36142 4.61684 6.03243 4.05262C6.69821 3.49278 6.8904 2.24958 7.62071 1.82786C8.33681 1.41434 9.51696 1.8638 10.3414 1.56481C11.1515 1.27098 11.7566 0.16903 12.5971 0.0208273C13.4376 -0.127376 14.3833 0.701218 15.2448 0.700202C16.1216 0.699187 17.0771 -0.126829 17.8914 0.0167648C18.7223 0.163327 19.3282 1.26606 20.1449 1.56419C20.9686 1.86481 22.1428 1.41333 22.8654 1.83106C23.5903 2.25012 23.785 3.49348 24.455 4.05505C25.1234 4.61536 26.3817 4.58942 26.922 5.23239C27.4589 5.87122 27.2152 7.10051 27.6567 7.8652C28.0895 8.61473 29.2802 9.02075 29.5695 9.8177C29.8518 10.5959 29.1999 11.6625 29.3552 12.5432ZM15.2439 7.30153C16.6158 7.30153 17.728 8.08341 17.728 9.88645C17.728 11.6895 16.6159 13.1513 15.2439 13.1513C13.872 13.1513 12.7599 11.6896 12.7599 9.88645C12.7599 8.08333 13.872 7.30153 15.2439 7.30153ZM9.72384 21.3565V16.3421C9.72384 15.1129 10.8209 14.4265 12.0628 14.1073C14.2156 13.5537 16.3347 13.5887 18.425 14.1073C19.6699 14.4161 20.764 15.1137 20.764 16.3421V21.3565H18.8444V17.4948C18.8444 17.3386 18.7823 17.1889 18.6719 17.0784C18.5615 16.968 18.4117 16.906 18.2556 16.906C18.0994 16.906 17.9496 16.968 17.8392 17.0784C17.7288 17.1889 17.6667 17.3386 17.6667 17.4948V21.3565H12.8209V17.4948C12.8209 17.3386 12.7589 17.1889 12.6485 17.0784C12.5381 16.968 12.3883 16.906 12.2321 16.906C12.076 16.906 11.9262 16.968 11.8158 17.0784C11.7053 17.1889 11.6433 17.3386 11.6433 17.4948V21.3565H9.72384Z" fill="#074592"/>
</svg>
