<svg width="20" height="19" viewBox="0 0 20 19" fill="none" xmlns="http://www.w3.org/2000/svg">
<path d="M19.0002 18.5L14.6572 14.157M14.6572 14.157C15.4001 13.4141 15.9894 12.5322 16.3914 11.5616C16.7935 10.5909 17.0004 9.55062 17.0004 8.50002C17.0004 7.44942 16.7935 6.40911 16.3914 5.43848C15.9894 4.46785 15.4001 3.58591 14.6572 2.84302C13.9143 2.10014 13.0324 1.51084 12.0618 1.1088C11.0911 0.706748 10.0508 0.499817 9.00021 0.499817C7.9496 0.499817 6.90929 0.706748 5.93866 1.1088C4.96803 1.51084 4.08609 2.10014 3.34321 2.84302C1.84288 4.34335 1 6.37824 1 8.50002C1 10.6218 1.84288 12.6567 3.34321 14.157C4.84354 15.6574 6.87842 16.5002 9.00021 16.5002C11.122 16.5002 13.1569 15.6574 14.6572 14.157Z" stroke="#565656" stroke-linecap="round" stroke-linejoin="round"/>
</svg>
