<svg width="64" height="64" viewBox="0 0 64 64" fill="none" xmlns="http://www.w3.org/2000/svg">
<path d="M52.0006 37.3333C52.0006 39.1014 51.2983 40.7971 50.048 42.0474C48.7978 43.2976 47.1021 44 45.334 44C43.5659 44 41.8702 43.2976 40.6199 42.0474C39.3697 40.7971 38.6673 39.1014 38.6673 37.3333C38.6673 35.5652 39.3697 33.8695 40.6199 32.6193C41.8702 31.369 43.5659 30.6667 45.334 30.6667C47.1021 30.6667 48.7978 31.369 50.048 32.6193C51.2983 33.8695 52.0006 35.5652 52.0006 37.3333ZM52.0006 20H9.33398C9.33398 17.3653 9.36865 15.984 9.91532 14.912C10.4266 13.9085 11.2425 13.0927 12.246 12.5813C13.3873 12 14.8807 12 17.8673 12H43.4673C46.454 12 47.9473 12 49.0886 12.5813C50.0921 13.0927 50.908 13.9085 51.4193 14.912C51.966 15.984 51.998 17.3653 52.0006 20Z" fill="#074592"/>
<path d="M51.6107 41.7226C51.3603 41.4723 51.0207 41.3316 50.6667 41.3316C50.3126 41.3316 49.973 41.4723 49.7227 41.7226C49.4723 41.973 49.3317 42.3126 49.3317 42.6666C49.3317 43.0207 49.4723 43.3603 49.7227 43.6106L51.6107 41.7226ZM53.7227 47.6106C53.973 47.861 54.3126 48.0017 54.6667 48.0017C55.0207 48.0017 55.3603 47.861 55.6107 47.6106C55.861 47.3603 56.0017 47.0207 56.0017 46.6666C56.0017 46.3126 55.861 45.973 55.6107 45.7226L53.7227 47.6106ZM52 20V21.3333C52.3536 21.3333 52.6928 21.1928 52.9428 20.9428C53.1929 20.6927 53.3333 20.3536 53.3333 20H52ZM9.33334 20H8.00001C8.00001 20.3536 8.14049 20.6927 8.39053 20.9428C8.64058 21.1928 8.97972 21.3333 9.33334 21.3333V20ZM49.6933 52.608C50.0088 52.4474 50.2475 52.1682 50.357 51.8316C50.4666 51.495 50.4379 51.1287 50.2773 50.8133C50.1168 50.4979 49.8375 50.2591 49.501 50.1496C49.1644 50.0401 48.7981 50.0688 48.4827 50.2293L49.6933 52.608ZM50.6667 25.3333C50.6667 25.6869 50.8072 26.0261 51.0572 26.2761C51.3073 26.5262 51.6464 26.6666 52 26.6666C52.3536 26.6666 52.6928 26.5262 52.9428 26.2761C53.1929 26.0261 53.3333 25.6869 53.3333 25.3333H50.6667ZM17.3333 26C16.9797 26 16.6406 26.1404 16.3905 26.3905C16.1405 26.6405 16 26.9797 16 27.3333C16 27.6869 16.1405 28.0261 16.3905 28.2761C16.6406 28.5262 16.9797 28.6666 17.3333 28.6666V26ZM32 28.6666C32.3536 28.6666 32.6928 28.5262 32.9428 28.2761C33.1929 28.0261 33.3333 27.6869 33.3333 27.3333C33.3333 26.9797 33.1929 26.6405 32.9428 26.3905C32.6928 26.1404 32.3536 26 32 26V28.6666ZM17.3333 38.6666C16.9797 38.6666 16.6406 38.8071 16.3905 39.0572C16.1405 39.3072 16 39.6464 16 40C16 40.3536 16.1405 40.6927 16.3905 40.9428C16.6406 41.1928 16.9797 41.3333 17.3333 41.3333V38.6666ZM32 41.3333C32.3536 41.3333 32.6928 41.1928 32.9428 40.9428C33.1929 40.6927 33.3333 40.3536 33.3333 40C33.3333 39.6464 33.1929 39.3072 32.9428 39.0572C32.6928 38.8071 32.3536 38.6666 32 38.6666V41.3333ZM18.6667 31.3333C18.3131 31.3333 17.9739 31.4738 17.7239 31.7238C17.4738 31.9739 17.3333 32.313 17.3333 32.6666C17.3333 33.0203 17.4738 33.3594 17.7239 33.6094C17.9739 33.8595 18.3131 34 18.6667 34V31.3333ZM24 34C24.3536 34 24.6928 33.8595 24.9428 33.6094C25.1929 33.3594 25.3333 33.0203 25.3333 32.6666C25.3333 32.313 25.1929 31.9739 24.9428 31.7238C24.6928 31.4738 24.3536 31.3333 24 31.3333V34ZM18.6667 44.6666C18.3131 44.6666 17.9739 44.8071 17.7239 45.0572C17.4738 45.3072 17.3333 45.6464 17.3333 46C17.3333 46.3536 17.4738 46.6927 17.7239 46.9428C17.9739 47.1928 18.3131 47.3333 18.6667 47.3333V44.6666ZM24 47.3333C24.3536 47.3333 24.6928 47.1928 24.9428 46.9428C25.1929 46.6927 25.3333 46.3536 25.3333 46C25.3333 45.6464 25.1929 45.3072 24.9428 45.0572C24.6928 44.8071 24.3536 44.6666 24 44.6666V47.3333ZM50.6667 37.3333C50.6667 38.7478 50.1048 40.1043 49.1046 41.1045C48.1044 42.1047 46.7478 42.6666 45.3333 42.6666V45.3333C47.4551 45.3333 49.4899 44.4905 50.9902 42.9902C52.4905 41.4899 53.3333 39.455 53.3333 37.3333H50.6667ZM45.3333 42.6666C43.9189 42.6666 42.5623 42.1047 41.5621 41.1045C40.5619 40.1043 40 38.7478 40 37.3333H37.3333C37.3333 39.455 38.1762 41.4899 39.6765 42.9902C41.1768 44.4905 43.2116 45.3333 45.3333 45.3333V42.6666ZM40 37.3333C40 35.9188 40.5619 34.5623 41.5621 33.5621C42.5623 32.5619 43.9189 32 45.3333 32V29.3333C43.2116 29.3333 41.1768 30.1762 39.6765 31.6765C38.1762 33.1767 37.3333 35.2116 37.3333 37.3333H40ZM45.3333 32C46.7478 32 48.1044 32.5619 49.1046 33.5621C50.1048 34.5623 50.6667 35.9188 50.6667 37.3333H53.3333C53.3333 35.2116 52.4905 33.1767 50.9902 31.6765C49.4899 30.1762 47.4551 29.3333 45.3333 29.3333V32ZM49.7227 43.6106L53.7227 47.6106L55.6107 45.7226L51.6107 41.7226L49.7227 43.6106ZM52 18.6666H9.33334V21.3333H52V18.6666ZM10.6667 20C10.6667 18.6693 10.6773 17.7306 10.7467 16.9946C10.816 16.2746 10.9333 15.848 11.1013 15.5173L8.72534 14.3066C8.34668 15.048 8.17868 15.8453 8.09334 16.744C8.00801 17.624 8.00001 18.6986 8.00001 20H10.6667ZM11.1013 15.5173C11.485 14.764 12.0974 14.1516 12.8507 13.768L11.64 11.392C10.3854 12.0305 9.36506 13.0526 8.72534 14.3066L11.1013 15.5173ZM12.8507 13.768C13.2027 13.5893 13.6667 13.4666 14.472 13.4026C15.296 13.3333 16.352 13.3333 17.8667 13.3333V10.6666C16.3947 10.6666 15.2107 10.6666 14.256 10.744C13.2827 10.824 12.4293 10.992 11.64 11.392L12.8507 13.768ZM17.8667 13.3333H43.4667V10.6666H17.8667V13.3333ZM43.4667 13.3333C44.9813 13.3333 46.04 13.3333 46.8613 13.4026C47.6667 13.4666 48.1307 13.5893 48.4827 13.768L49.6933 11.3946C48.904 10.992 48.0507 10.824 47.08 10.744C46.12 10.664 44.9387 10.6666 43.4667 10.6666V13.3333ZM48.4827 13.768C49.236 14.1516 49.8484 14.764 50.232 15.5173L52.6053 14.3066C51.9668 13.052 50.9474 12.0344 49.6933 11.3946L48.4827 13.768ZM50.232 15.5173C50.3973 15.8453 50.5173 16.2746 50.5867 16.9946C50.656 17.7306 50.6667 18.6693 50.6667 20H53.3333C53.3333 18.6933 53.3253 17.6266 53.24 16.744C53.1547 15.8453 52.984 15.048 52.6053 14.3066L50.232 15.5173ZM43.4667 50.6666H17.8667V53.3333H43.4667V50.6666ZM10.6667 43.4666V20.5333H8.00001V43.4666H10.6667ZM17.8667 50.6666C16.352 50.6666 15.296 50.6666 14.472 50.5973C13.6667 50.5333 13.2027 50.4106 12.8507 50.232L11.64 52.6053C12.4293 53.008 13.2827 53.176 14.2533 53.256C15.2133 53.336 16.3947 53.3333 17.8667 53.3333V50.6666ZM8.00001 43.4666C8.00001 44.9386 8.00001 46.1226 8.07734 47.0773C8.15734 48.0506 8.32534 48.904 8.72534 49.6933L11.1013 48.4826C10.9227 48.1306 10.8 47.6666 10.736 46.8613C10.6667 46.04 10.6667 44.9813 10.6667 43.4666H8.00001ZM12.8507 50.232C12.0974 49.8484 11.485 49.236 11.1013 48.4826L8.72534 49.6933C9.36437 50.947 10.3864 51.9663 11.64 52.6053L12.8507 50.232ZM43.4667 53.3333C44.9387 53.3333 46.1227 53.3333 47.0773 53.256C48.0507 53.176 48.904 53.008 49.6933 52.6053L48.4827 50.2293C48.1307 50.408 47.6667 50.5333 46.8613 50.5973C46.04 50.6666 44.9813 50.6666 43.4667 50.6666V53.3333ZM52 25.3333H53.3333V25.224C53.3347 24.7662 53.3321 24.3084 53.3253 23.8506C53.3147 22.96 53.2987 21.7546 53.2613 20.512C53.224 19.2693 53.168 17.9786 53.0853 16.9173C53.049 16.4383 52.9966 15.9607 52.928 15.4853C52.8823 15.0784 52.7744 14.6808 52.608 14.3066L50.232 15.5173C50.1947 15.4426 50.2347 15.5093 50.2933 15.8906C50.3413 16.2053 50.3867 16.6266 50.4267 17.128C50.5067 18.1253 50.56 19.368 50.5947 20.5893C50.6391 22.1356 50.6631 23.6824 50.6667 25.2293V25.3333H52ZM10.6667 20.5333C10.6667 19.0186 10.6667 17.9626 10.736 17.1386C10.8 16.3333 10.9227 15.8693 11.1013 15.5173L8.72534 14.3066C8.32268 15.096 8.15734 15.9493 8.07734 16.92C7.99734 17.8826 8.00001 19.064 8.00001 20.5333H10.6667ZM17.3333 28.6666H32V26H17.3333V28.6666ZM17.3333 41.3333H32V38.6666H17.3333V41.3333ZM18.6667 34H24V31.3333H18.6667V34ZM18.6667 47.3333H24V44.6666H18.6667V47.3333Z" fill="#074592"/>
</svg>
