<svg width="65" height="64" viewBox="0 0 65 64" fill="none" xmlns="http://www.w3.org/2000/svg">
<path d="M52.5006 37.3333C52.5006 39.1014 51.7983 40.7971 50.548 42.0474C49.2978 43.2976 47.6021 44 45.834 44C44.0659 44 42.3702 43.2976 41.1199 42.0474C39.8697 40.7971 39.1673 39.1014 39.1673 37.3333C39.1673 35.5652 39.8697 33.8695 41.1199 32.6193C42.3702 31.369 44.0659 30.6667 45.834 30.6667C47.6021 30.6667 49.2978 31.369 50.548 32.6193C51.7983 33.8695 52.5006 35.5652 52.5006 37.3333ZM52.5006 20H9.83398C9.83398 17.3653 9.86865 15.984 10.4153 14.912C10.9266 13.9085 11.7425 13.0927 12.746 12.5813C13.8873 12 15.3807 12 18.3673 12H43.9673C46.954 12 48.4473 12 49.5886 12.5813C50.5921 13.0927 51.408 13.9085 51.9193 14.912C52.466 15.984 52.498 17.3653 52.5006 20Z" fill="white"/>
<path d="M52.1107 41.7226C51.8603 41.4723 51.5207 41.3316 51.1667 41.3316C50.8126 41.3316 50.473 41.4723 50.2227 41.7226C49.9723 41.973 49.8317 42.3126 49.8317 42.6666C49.8317 43.0207 49.9723 43.3603 50.2227 43.6106L52.1107 41.7226ZM54.2227 47.6106C54.473 47.861 54.8126 48.0017 55.1667 48.0017C55.5207 48.0017 55.8603 47.861 56.1107 47.6106C56.361 47.3603 56.5017 47.0207 56.5017 46.6666C56.5017 46.3126 56.361 45.973 56.1107 45.7226L54.2227 47.6106ZM52.5 20V21.3333C52.8536 21.3333 53.1928 21.1928 53.4428 20.9428C53.6929 20.6927 53.8333 20.3536 53.8333 20H52.5ZM9.83334 20H8.50001C8.50001 20.3536 8.64049 20.6927 8.89053 20.9428C9.14058 21.1928 9.47972 21.3333 9.83334 21.3333V20ZM50.1933 52.608C50.5088 52.4474 50.7475 52.1682 50.857 51.8316C50.9666 51.495 50.9379 51.1287 50.7773 50.8133C50.6168 50.4979 50.3375 50.2591 50.001 50.1496C49.6644 50.0401 49.2981 50.0688 48.9827 50.2293L50.1933 52.608ZM51.1667 25.3333C51.1667 25.6869 51.3072 26.0261 51.5572 26.2761C51.8073 26.5262 52.1464 26.6666 52.5 26.6666C52.8536 26.6666 53.1928 26.5262 53.4428 26.2761C53.6929 26.0261 53.8333 25.6869 53.8333 25.3333H51.1667ZM17.8333 26C17.4797 26 17.1406 26.1404 16.8905 26.3905C16.6405 26.6405 16.5 26.9797 16.5 27.3333C16.5 27.6869 16.6405 28.0261 16.8905 28.2761C17.1406 28.5262 17.4797 28.6666 17.8333 28.6666V26ZM32.5 28.6666C32.8536 28.6666 33.1928 28.5262 33.4428 28.2761C33.6929 28.0261 33.8333 27.6869 33.8333 27.3333C33.8333 26.9797 33.6929 26.6405 33.4428 26.3905C33.1928 26.1404 32.8536 26 32.5 26V28.6666ZM17.8333 38.6666C17.4797 38.6666 17.1406 38.8071 16.8905 39.0572C16.6405 39.3072 16.5 39.6464 16.5 40C16.5 40.3536 16.6405 40.6927 16.8905 40.9428C17.1406 41.1928 17.4797 41.3333 17.8333 41.3333V38.6666ZM32.5 41.3333C32.8536 41.3333 33.1928 41.1928 33.4428 40.9428C33.6929 40.6927 33.8333 40.3536 33.8333 40C33.8333 39.6464 33.6929 39.3072 33.4428 39.0572C33.1928 38.8071 32.8536 38.6666 32.5 38.6666V41.3333ZM19.1667 31.3333C18.8131 31.3333 18.4739 31.4738 18.2239 31.7238C17.9738 31.9739 17.8333 32.313 17.8333 32.6666C17.8333 33.0203 17.9738 33.3594 18.2239 33.6094C18.4739 33.8595 18.8131 34 19.1667 34V31.3333ZM24.5 34C24.8536 34 25.1928 33.8595 25.4428 33.6094C25.6929 33.3594 25.8333 33.0203 25.8333 32.6666C25.8333 32.313 25.6929 31.9739 25.4428 31.7238C25.1928 31.4738 24.8536 31.3333 24.5 31.3333V34ZM19.1667 44.6666C18.8131 44.6666 18.4739 44.8071 18.2239 45.0572C17.9738 45.3072 17.8333 45.6464 17.8333 46C17.8333 46.3536 17.9738 46.6927 18.2239 46.9428C18.4739 47.1928 18.8131 47.3333 19.1667 47.3333V44.6666ZM24.5 47.3333C24.8536 47.3333 25.1928 47.1928 25.4428 46.9428C25.6929 46.6927 25.8333 46.3536 25.8333 46C25.8333 45.6464 25.6929 45.3072 25.4428 45.0572C25.1928 44.8071 24.8536 44.6666 24.5 44.6666V47.3333ZM51.1667 37.3333C51.1667 38.7478 50.6048 40.1043 49.6046 41.1045C48.6044 42.1047 47.2478 42.6666 45.8333 42.6666V45.3333C47.9551 45.3333 49.9899 44.4905 51.4902 42.9902C52.9905 41.4899 53.8333 39.455 53.8333 37.3333H51.1667ZM45.8333 42.6666C44.4189 42.6666 43.0623 42.1047 42.0621 41.1045C41.0619 40.1043 40.5 38.7478 40.5 37.3333H37.8333C37.8333 39.455 38.6762 41.4899 40.1765 42.9902C41.6768 44.4905 43.7116 45.3333 45.8333 45.3333V42.6666ZM40.5 37.3333C40.5 35.9188 41.0619 34.5623 42.0621 33.5621C43.0623 32.5619 44.4189 32 45.8333 32V29.3333C43.7116 29.3333 41.6768 30.1762 40.1765 31.6765C38.6762 33.1767 37.8333 35.2116 37.8333 37.3333H40.5ZM45.8333 32C47.2478 32 48.6044 32.5619 49.6046 33.5621C50.6048 34.5623 51.1667 35.9188 51.1667 37.3333H53.8333C53.8333 35.2116 52.9905 33.1767 51.4902 31.6765C49.9899 30.1762 47.9551 29.3333 45.8333 29.3333V32ZM50.2227 43.6106L54.2227 47.6106L56.1107 45.7226L52.1107 41.7226L50.2227 43.6106ZM52.5 18.6666H9.83334V21.3333H52.5V18.6666ZM11.1667 20C11.1667 18.6693 11.1773 17.7306 11.2467 16.9946C11.316 16.2746 11.4333 15.848 11.6013 15.5173L9.22534 14.3066C8.84668 15.048 8.67868 15.8453 8.59334 16.744C8.50801 17.624 8.50001 18.6986 8.50001 20H11.1667ZM11.6013 15.5173C11.985 14.764 12.5974 14.1516 13.3507 13.768L12.14 11.392C10.8854 12.0305 9.86506 13.0526 9.22534 14.3066L11.6013 15.5173ZM13.3507 13.768C13.7027 13.5893 14.1667 13.4666 14.972 13.4026C15.796 13.3333 16.852 13.3333 18.3667 13.3333V10.6666C16.8947 10.6666 15.7107 10.6666 14.756 10.744C13.7827 10.824 12.9293 10.992 12.14 11.392L13.3507 13.768ZM18.3667 13.3333H43.9667V10.6666H18.3667V13.3333ZM43.9667 13.3333C45.4813 13.3333 46.54 13.3333 47.3613 13.4026C48.1667 13.4666 48.6307 13.5893 48.9827 13.768L50.1933 11.3946C49.404 10.992 48.5507 10.824 47.58 10.744C46.62 10.664 45.4387 10.6666 43.9667 10.6666V13.3333ZM48.9827 13.768C49.736 14.1516 50.3484 14.764 50.732 15.5173L53.1053 14.3066C52.4668 13.052 51.4474 12.0344 50.1933 11.3946L48.9827 13.768ZM50.732 15.5173C50.8973 15.8453 51.0173 16.2746 51.0867 16.9946C51.156 17.7306 51.1667 18.6693 51.1667 20H53.8333C53.8333 18.6933 53.8253 17.6266 53.74 16.744C53.6547 15.8453 53.484 15.048 53.1053 14.3066L50.732 15.5173ZM43.9667 50.6666H18.3667V53.3333H43.9667V50.6666ZM11.1667 43.4666V20.5333H8.50001V43.4666H11.1667ZM18.3667 50.6666C16.852 50.6666 15.796 50.6666 14.972 50.5973C14.1667 50.5333 13.7027 50.4106 13.3507 50.232L12.14 52.6053C12.9293 53.008 13.7827 53.176 14.7533 53.256C15.7133 53.336 16.8947 53.3333 18.3667 53.3333V50.6666ZM8.50001 43.4666C8.50001 44.9386 8.50001 46.1226 8.57734 47.0773C8.65734 48.0506 8.82534 48.904 9.22534 49.6933L11.6013 48.4826C11.4227 48.1306 11.3 47.6666 11.236 46.8613C11.1667 46.04 11.1667 44.9813 11.1667 43.4666H8.50001ZM13.3507 50.232C12.5974 49.8484 11.985 49.236 11.6013 48.4826L9.22534 49.6933C9.86437 50.947 10.8864 51.9663 12.14 52.6053L13.3507 50.232ZM43.9667 53.3333C45.4387 53.3333 46.6227 53.3333 47.5773 53.256C48.5507 53.176 49.404 53.008 50.1933 52.6053L48.9827 50.2293C48.6307 50.408 48.1667 50.5333 47.3613 50.5973C46.54 50.6666 45.4813 50.6666 43.9667 50.6666V53.3333ZM52.5 25.3333H53.8333V25.224C53.8347 24.7662 53.8321 24.3084 53.8253 23.8506C53.8147 22.96 53.7987 21.7546 53.7613 20.512C53.724 19.2693 53.668 17.9786 53.5853 16.9173C53.549 16.4383 53.4966 15.9607 53.428 15.4853C53.3823 15.0784 53.2744 14.6808 53.108 14.3066L50.732 15.5173C50.6947 15.4426 50.7347 15.5093 50.7933 15.8906C50.8413 16.2053 50.8867 16.6266 50.9267 17.128C51.0067 18.1253 51.06 19.368 51.0947 20.5893C51.1391 22.1356 51.1631 23.6824 51.1667 25.2293V25.3333H52.5ZM11.1667 20.5333C11.1667 19.0186 11.1667 17.9626 11.236 17.1386C11.3 16.3333 11.4227 15.8693 11.6013 15.5173L9.22534 14.3066C8.82268 15.096 8.65734 15.9493 8.57734 16.92C8.49734 17.8826 8.50001 19.064 8.50001 20.5333H11.1667ZM17.8333 28.6666H32.5V26H17.8333V28.6666ZM17.8333 41.3333H32.5V38.6666H17.8333V41.3333ZM19.1667 34H24.5V31.3333H19.1667V34ZM19.1667 47.3333H24.5V44.6666H19.1667V47.3333Z" fill="white"/>
</svg>
