<svg width="40" height="40" viewBox="0 0 40 40" fill="none" xmlns="http://www.w3.org/2000/svg">
<path d="M5.12031 22.0523C4.96719 22.2046 4.76797 22.2812 4.56797 22.2812C4.36797 22.2812 4.16797 22.2046 4.01484 22.0523L1.47891 19.5163C1.33203 19.3695 1.25 19.171 1.25 18.964C1.25 18.757 1.33203 18.5578 1.47891 18.4117L8.90312 10.9867C9.05 10.8406 9.24844 10.7578 9.45547 10.7578C9.6625 10.7578 9.86172 10.8406 10.0078 10.9867L13.1773 14.1562L21.0086 6.32572L19.3758 4.69369C19.1703 4.48744 19.0961 4.1851 19.1828 3.90775C19.2695 3.62963 19.5039 3.42338 19.7898 3.37182L28.1063 1.87182C28.3531 1.82729 28.6055 1.90385 28.7859 2.0765C28.9672 2.24994 29.0531 2.49994 29.0195 2.7476C29.0164 2.76791 28.7305 4.83275 28.4352 6.8726C28.2609 8.0726 28.1172 9.03041 28.0086 9.71947C27.943 10.1328 27.8891 10.4546 27.8477 10.6765C27.7742 11.0757 27.682 11.5726 27.1203 11.6656C26.8266 11.714 26.5328 11.589 26.3609 11.3554C26.2961 11.2867 26.0047 10.9968 24.7437 9.8726L13.7305 20.8867C13.425 21.1913 12.9305 21.1913 12.625 20.8867L9.45547 17.7171L5.12031 22.0523Z" fill="white"/>
<path d="M38.6688 5.88358C38.5367 5.61873 38.2656 5.45077 37.9695 5.45077C34.7469 5.45077 32.4359 2.62811 32.4141 2.60077C32.2063 2.34139 31.8578 2.24061 31.5453 2.35077C31.232 2.46014 31.0219 2.75623 31.0219 3.08827V13.0203H28.0844C27.6523 13.0203 27.3031 13.3703 27.3031 13.8015V16.8094H20.6461C20.2148 16.8094 19.8648 17.1586 19.8648 17.5906V21.5219H13.2078C12.7766 21.5219 12.4266 21.8711 12.4266 22.3031V26.2336H5.76953C5.33828 26.2336 4.98828 26.5836 4.98828 27.0148V37.2664C4.98828 37.6976 5.33828 38.0476 5.76953 38.0476H12.8391C12.9492 38.1062 13.0742 38.1398 13.2078 38.1398H35.5227C35.9539 38.1398 36.3039 37.7898 36.3039 37.3586V13.8015C36.3039 13.3703 35.9539 13.0203 35.5227 13.0203H32.5844V10.0234C36.1609 9.86561 38.4883 6.84139 38.593 6.70311C38.7719 6.46639 38.8008 6.1492 38.6688 5.88358ZM12.4266 36.4851H6.55078V27.7961H12.4266V36.4851ZM19.8648 36.5773H13.9891V23.0844H19.8648V36.5773ZM27.3031 36.5773H21.4273V18.3719H27.3031V36.5773ZM34.7414 14.5828V36.5773H28.8656V14.5828H34.7414Z" fill="white"/>
</svg>
