<svg width="36" height="35" viewBox="0 0 36 35" fill="none" xmlns="http://www.w3.org/2000/svg">
<path d="M34.5 17.5C34.5 26.6127 27.1127 34 18 34C8.8873 34 1.5 26.6127 1.5 17.5C1.5 8.3873 8.8873 1 18 1C27.1127 1 34.5 8.3873 34.5 17.5Z" stroke="white" stroke-width="2"/>
<path fill-rule="evenodd" clip-rule="evenodd" d="M23.2637 13.489C23.7965 13.63 24.2162 14.0434 24.3593 14.5673C24.6248 15.5235 24.6123 17.517 24.6123 17.517C24.6123 17.517 24.6105 19.4996 24.353 20.4552C24.2082 20.9785 23.7866 21.3912 23.2544 21.5317C22.2806 21.782 18.3852 21.7777 18.3852 21.7777C18.3852 21.7777 14.5003 21.7734 13.5166 21.5109C12.9831 21.3698 12.5634 20.9565 12.4204 20.4332C12.1655 19.4868 12.168 17.4938 12.168 17.4938C12.168 17.4938 12.1705 15.5107 12.4273 14.5545C12.5715 14.0312 13.003 13.6087 13.5253 13.4688C14.4997 13.2179 18.3945 13.2222 18.3945 13.2222C18.3945 13.2222 22.29 13.2264 23.2637 13.489ZM17.1522 15.6675L17.1491 19.331L20.3898 17.5023L17.1522 15.6675Z" fill="white"/>
</svg>
