<svg width="32" height="34" viewBox="0 0 32 34" fill="none" xmlns="http://www.w3.org/2000/svg">
<path d="M11.225 31.9026V26.8064C11.225 25.5054 12.2873 24.4508 13.5977 24.4508H18.388C19.0173 24.4508 19.6208 24.699 20.0658 25.1408C20.5108 25.5825 20.7608 26.1816 20.7608 26.8064V31.9026C20.7568 32.4434 20.9704 32.9635 21.3543 33.3473C21.7381 33.7311 22.2604 33.947 22.8052 33.947H26.0734C27.5997 33.9509 29.0649 33.3517 30.1456 32.2817C31.2263 31.2116 31.8337 29.7586 31.8337 28.2434V13.7251C31.8337 12.5011 31.2871 11.3401 30.3414 10.5548L19.2237 1.74011C17.2898 0.194599 14.5188 0.2445 12.6426 1.85863L1.77868 10.5548C0.788227 11.3169 0.196246 12.4814 0.166992 13.7251V28.2286C0.166992 31.3868 2.74596 33.947 5.92728 33.947H9.12081C10.2524 33.947 11.172 33.0407 11.1802 31.9174L11.225 31.9026Z" fill="#074592"/>
</svg>
