<svg width="40" height="41" viewBox="0 0 40 41" fill="none" xmlns="http://www.w3.org/2000/svg">
<path d="M20 0.841003C14.6957 0.841003 9.60859 2.94814 5.85786 6.69887C2.10714 10.4496 0 15.5367 0 20.841C0 26.1453 2.10714 31.2324 5.85786 34.9831C9.60859 38.7339 14.6957 40.841 20 40.841C25.3043 40.841 30.3914 38.7339 34.1421 34.9831C37.8929 31.2324 40 26.1453 40 20.841C40 15.5367 37.8929 10.4496 34.1421 6.69887C30.3914 2.94814 25.3043 0.841003 20 0.841003ZM20 9.17434C20.442 9.17434 20.8659 9.34993 21.1785 9.66249C21.4911 9.97505 21.6667 10.399 21.6667 10.841C21.6667 11.283 21.4911 11.707 21.1785 12.0195C20.8659 12.3321 20.442 12.5077 20 12.5077C19.558 12.5077 19.1341 12.3321 18.8215 12.0195C18.5089 11.707 18.3333 11.283 18.3333 10.841C18.3333 10.399 18.5089 9.97505 18.8215 9.66249C19.1341 9.34993 19.558 9.17434 20 9.17434ZM20.0065 15.8377C20.2254 15.8386 20.4419 15.8826 20.6438 15.9671C20.8457 16.0517 21.029 16.1751 21.1831 16.3305C21.3373 16.4859 21.4593 16.6701 21.5423 16.8726C21.6253 17.0752 21.6675 17.2921 21.6667 17.5109V30.8377C21.6675 31.0566 21.6253 31.2735 21.5423 31.476C21.4593 31.6786 21.3373 31.8628 21.1831 32.0182C21.029 32.1735 20.8457 32.297 20.6438 32.3816C20.4419 32.4661 20.2254 32.5101 20.0065 32.5109C19.7865 32.5118 19.5686 32.4691 19.3652 32.3853C19.1618 32.3015 18.977 32.1783 18.8215 32.0228C18.6659 31.8672 18.5427 31.6824 18.4589 31.4791C18.3752 31.2757 18.3325 31.0577 18.3333 30.8377V17.5109C18.3325 17.291 18.3752 17.073 18.4589 16.8696C18.5427 16.6662 18.6659 16.4814 18.8215 16.3259C18.977 16.1704 19.1618 16.0471 19.3652 15.9634C19.5686 15.8796 19.7865 15.8369 20.0065 15.8377Z" fill="white"/>
</svg>
