<svg width="40" height="41" viewBox="0 0 40 41" fill="none" xmlns="http://www.w3.org/2000/svg">
<path d="M19.9492 17.849C19.9492 18.2223 20.2492 18.5157 20.6159 18.5157C21.3759 18.5157 21.9892 19.1357 21.9892 19.889C21.9892 20.2557 22.2892 20.5557 22.6559 20.5557C23.0226 20.5557 23.3226 20.2557 23.3226 19.889C23.3226 18.3957 22.1092 17.1823 20.6159 17.1823C20.2492 17.1823 19.9492 17.4823 19.9492 17.849ZM30.8026 20.5557C31.1759 20.5557 31.4692 20.2557 31.4692 19.889C31.4692 13.9023 26.6026 9.03568 20.6159 9.03568C20.2492 9.03568 19.9492 9.33568 19.9492 9.70234C19.9492 10.069 20.2492 10.369 20.6159 10.369C25.8692 10.369 30.1359 14.6423 30.1359 19.889C30.1359 20.2557 30.4359 20.5557 30.8026 20.5557Z" fill="white"/>
<path d="M26.0617 19.889C26.0617 20.2557 26.3617 20.5557 26.7284 20.5557C27.095 20.5557 27.395 20.2557 27.395 19.889C27.395 16.149 24.355 13.109 20.615 13.109C20.2484 13.109 19.9484 13.409 19.9484 13.7757C19.9484 14.149 20.2484 14.4423 20.615 14.4423C23.6217 14.4423 26.0617 16.889 26.0617 19.889ZM20.615 4.96234C20.2484 4.96234 19.9484 5.26234 19.9484 5.62901C19.9484 5.99567 20.2484 6.29567 20.615 6.29567C28.115 6.29567 34.215 12.3957 34.215 19.889C34.215 20.2557 34.5084 20.5557 34.8817 20.5557C35.2484 20.5557 35.5484 20.2557 35.5484 19.889C35.5484 11.6557 28.8484 4.96234 20.615 4.96234ZM27.1284 26.9157L26.255 27.389C24.7817 28.1957 22.915 27.9223 21.7217 26.729L14.6817 19.689C13.4884 18.4957 13.215 16.629 14.0217 15.149L14.495 14.2823C15.0284 13.2957 15.2217 12.189 15.0617 11.0823C14.9106 9.97791 14.3998 8.95403 13.6084 8.16901C12.635 7.19567 11.3417 6.66234 9.9617 6.66234C8.5817 6.66234 7.2817 7.19567 6.30837 8.16901L5.96837 8.51567C4.16837 10.3157 3.9617 13.4157 5.3817 17.2557C6.7217 20.9223 9.4217 24.8957 12.9684 28.4423C18.375 33.849 24.395 36.9623 28.715 36.9623C30.4217 36.9623 31.8684 36.4757 32.895 35.449L33.2417 35.1023C33.7218 34.6228 34.1025 34.0533 34.3622 33.4264C34.6219 32.7995 34.7554 32.1276 34.755 31.449C34.7457 30.0826 34.2026 28.7739 33.2417 27.8023C31.635 26.1957 29.1217 25.8357 27.1284 26.9157Z" fill="white"/>
</svg>
