<svg width="40" height="41" viewBox="0 0 40 41" fill="none" xmlns="http://www.w3.org/2000/svg">
<path d="M19.9492 17.849C19.9492 18.2223 20.2492 18.5157 20.6159 18.5157C21.3759 18.5157 21.9892 19.1357 21.9892 19.889C21.9892 20.2557 22.2892 20.5557 22.6559 20.5557C23.0226 20.5557 23.3226 20.2557 23.3226 19.889C23.3226 18.3957 22.1092 17.1823 20.6159 17.1823C20.2492 17.1823 19.9492 17.4823 19.9492 17.849ZM30.8026 20.5557C31.1759 20.5557 31.4692 20.2557 31.4692 19.889C31.4692 13.9023 26.6026 9.03568 20.6159 9.03568C20.2492 9.03568 19.9492 9.33568 19.9492 9.70234C19.9492 10.069 20.2492 10.369 20.6159 10.369C25.8692 10.369 30.1359 14.6423 30.1359 19.889C30.1359 20.2557 30.4359 20.5557 30.8026 20.5557Z" fill="#074592"/>
<path d="M26.0627 19.889C26.0627 20.2557 26.3627 20.5557 26.7293 20.5557C27.096 20.5557 27.396 20.2557 27.396 19.889C27.396 16.149 24.356 13.109 20.616 13.109C20.2493 13.109 19.9493 13.409 19.9493 13.7757C19.9493 14.149 20.2493 14.4423 20.616 14.4423C23.6227 14.4423 26.0627 16.889 26.0627 19.889ZM20.616 4.96234C20.2493 4.96234 19.9493 5.26234 19.9493 5.62901C19.9493 5.99567 20.2493 6.29567 20.616 6.29567C28.116 6.29567 34.216 12.3957 34.216 19.889C34.216 20.2557 34.5093 20.5557 34.8827 20.5557C35.2493 20.5557 35.5493 20.2557 35.5493 19.889C35.5493 11.6557 28.8493 4.96234 20.616 4.96234ZM27.1293 26.9157L26.256 27.389C24.7827 28.1957 22.916 27.9223 21.7227 26.729L14.6827 19.689C13.4893 18.4957 13.216 16.629 14.0227 15.149L14.496 14.2823C15.0293 13.2957 15.2227 12.189 15.0627 11.0823C14.9115 9.97791 14.4008 8.95403 13.6093 8.16901C12.636 7.19567 11.3427 6.66234 9.96268 6.66234C8.58268 6.66234 7.28268 7.19567 6.30934 8.16901L5.96935 8.51567C4.16935 10.3157 3.96268 13.4157 5.38268 17.2557C6.72268 20.9223 9.42268 24.8957 12.9693 28.4423C18.376 33.849 24.396 36.9623 28.716 36.9623C30.4227 36.9623 31.8693 36.4757 32.896 35.449L33.2427 35.1023C33.7227 34.6228 34.1035 34.0533 34.3632 33.4264C34.6229 32.7995 34.7564 32.1276 34.756 31.449C34.7467 30.0826 34.2036 28.7739 33.2427 27.8023C31.636 26.1957 29.1227 25.8357 27.1293 26.9157Z" fill="#074592"/>
</svg>
