<svg width="32" height="34" viewBox="0 0 32 34" fill="none" xmlns="http://www.w3.org/2000/svg">
<path d="M11.2245 31.9026V26.8064C11.2245 25.5054 12.2868 24.4508 13.5972 24.4508H18.3875C19.0168 24.4508 19.6203 24.699 20.0653 25.1408C20.5103 25.5825 20.7603 26.1816 20.7603 26.8064V31.9026C20.7563 32.4434 20.9699 32.9635 21.3538 33.3473C21.7376 33.7311 22.2599 33.947 22.8047 33.947H26.0729C27.5992 33.9509 29.0644 33.3517 30.1451 32.2817C31.2258 31.2116 31.8332 29.7586 31.8332 28.2434V13.7251C31.8332 12.5011 31.2866 11.3401 30.3409 10.5548L19.2232 1.74011C17.2893 0.194599 14.5184 0.2445 12.6422 1.85863L1.77819 10.5548C0.787738 11.3169 0.195758 12.4814 0.166504 13.7251V28.2286C0.166504 31.3868 2.74547 33.947 5.92679 33.947H9.12032C10.2519 33.947 11.1715 33.0407 11.1797 31.9174L11.2245 31.9026Z" fill="white"/>
</svg>
