<svg width="65" height="64" viewBox="0 0 65 64" fill="none" xmlns="http://www.w3.org/2000/svg">
<path d="M28.5 46H44.5V50H28.5V46ZM20.5 46H24.5V50H20.5V46ZM28.5 36H44.5V40H28.5V36ZM20.5 36H24.5V40H20.5V36ZM28.5 26H44.5V30H28.5V26ZM20.5 26H24.5V30H20.5V26Z" fill="white"/>
<path d="M50.5 10H44.5V8C44.5 6.93913 44.0786 5.92172 43.3284 5.17157C42.5783 4.42143 41.5609 4 40.5 4H24.5C23.4391 4 22.4217 4.42143 21.6716 5.17157C20.9214 5.92172 20.5 6.93913 20.5 8V10H14.5C13.4391 10 12.4217 10.4214 11.6716 11.1716C10.9214 11.9217 10.5 12.9391 10.5 14V56C10.5 57.0609 10.9214 58.0783 11.6716 58.8284C12.4217 59.5786 13.4391 60 14.5 60H50.5C51.5609 60 52.5783 59.5786 53.3284 58.8284C54.0786 58.0783 54.5 57.0609 54.5 56V14C54.5 12.9391 54.0786 11.9217 53.3284 11.1716C52.5783 10.4214 51.5609 10 50.5 10ZM24.5 8H40.5V16H24.5V8ZM50.5 56H14.5V14H20.5V20H44.5V14H50.5V56Z" fill="white"/>
</svg>
