<svg width="64" height="64" viewBox="0 0 64 64" fill="none" xmlns="http://www.w3.org/2000/svg">
<path d="M28 46H44V50H28V46ZM20 46H24V50H20V46ZM28 36H44V40H28V36ZM20 36H24V40H20V36ZM28 26H44V30H28V26ZM20 26H24V30H20V26Z" fill="#074592"/>
<path d="M50 10H44V8C44 6.93913 43.5786 5.92172 42.8284 5.17157C42.0783 4.42143 41.0609 4 40 4H24C22.9391 4 21.9217 4.42143 21.1716 5.17157C20.4214 5.92172 20 6.93913 20 8V10H14C12.9391 10 11.9217 10.4214 11.1716 11.1716C10.4214 11.9217 10 12.9391 10 14V56C10 57.0609 10.4214 58.0783 11.1716 58.8284C11.9217 59.5786 12.9391 60 14 60H50C51.0609 60 52.0783 59.5786 52.8284 58.8284C53.5786 58.0783 54 57.0609 54 56V14C54 12.9391 53.5786 11.9217 52.8284 11.1716C52.0783 10.4214 51.0609 10 50 10ZM24 8H40V16H24V8ZM50 56H14V14H20V20H44V14H50V56Z" fill="#074592"/>
</svg>
