<svg width="20" height="20" viewBox="0 0 20 20" fill="none" xmlns="http://www.w3.org/2000/svg">
<path d="M12.3499 10L19.5166 2.85001C19.8304 2.53617 20.0067 2.11052 20.0067 1.66668C20.0067 1.22284 19.8304 0.797187 19.5166 0.483347C19.2027 0.169508 18.7771 -0.00680542 18.3332 -0.00680542C17.8894 -0.00680542 17.4637 0.169508 17.1499 0.483347L9.9999 7.65001L2.8499 0.483347C2.53606 0.169508 2.1104 -0.00680542 1.66657 -0.00680542C1.22273 -0.00680542 0.797071 0.169508 0.483232 0.483347C0.169392 0.797187 -0.00692129 1.22284 -0.00692129 1.66668C-0.00692129 2.11052 0.169392 2.53617 0.483232 2.85001L7.6499 10L0.483232 17.15C0.327018 17.305 0.203027 17.4893 0.118413 17.6924C0.0337985 17.8955 -0.00976562 18.1133 -0.00976562 18.3333C-0.00976562 18.5534 0.0337985 18.7712 0.118413 18.9743C0.203027 19.1774 0.327018 19.3617 0.483232 19.5167C0.63817 19.6729 0.822505 19.7969 1.0256 19.8815C1.2287 19.9661 1.44655 20.0097 1.66657 20.0097C1.88658 20.0097 2.10443 19.9661 2.30753 19.8815C2.51063 19.7969 2.69496 19.6729 2.8499 19.5167L9.9999 12.35L17.1499 19.5167C17.3048 19.6729 17.4892 19.7969 17.6923 19.8815C17.8954 19.9661 18.1132 20.0097 18.3332 20.0097C18.5533 20.0097 18.7711 19.9661 18.9742 19.8815C19.1773 19.7969 19.3616 19.6729 19.5166 19.5167C19.6728 19.3617 19.7968 19.1774 19.8814 18.9743C19.966 18.7712 20.0096 18.5534 20.0096 18.3333C20.0096 18.1133 19.966 17.8955 19.8814 17.6924C19.7968 17.4893 19.6728 17.305 19.5166 17.15L12.3499 10Z" fill="#565656"/>
</svg>
