<svg width="36" height="35" viewBox="0 0 36 35" fill="none" xmlns="http://www.w3.org/2000/svg">
<path d="M34.5 17.5C34.5 26.6127 27.1127 34 18 34C8.8873 34 1.5 26.6127 1.5 17.5C1.5 8.3873 8.8873 1 18 1C27.1127 1 34.5 8.3873 34.5 17.5Z" stroke="white" stroke-width="2"/>
<path d="M16.5993 22.8611L16.5833 17.9634H14.5V15.8645H16.5833V14.4651C16.5833 12.5766 17.7441 11.6665 19.4162 11.6665C20.2172 11.6665 20.9056 11.7266 21.1062 11.7534V13.7271L19.9465 13.7276C19.0371 13.7276 18.861 14.163 18.861 14.8018V15.8645H21.4444L20.75 17.9634H18.861V22.8611H16.5993Z" fill="white"/>
</svg>
