<svg width="65" height="64" viewBox="0 0 65 64" fill="none" xmlns="http://www.w3.org/2000/svg">
<path d="M32.034 17.2134L32.01 17.1974L29.8953 15.7761C28.4438 14.7998 26.7122 14.3262 24.9658 14.4278C23.2194 14.5294 21.5545 15.2007 20.226 16.3388L15.034 20.7894C14.6714 21.0995 14.2098 21.2698 13.7327 21.2694H7.83398C7.30355 21.2694 6.79484 21.4801 6.41977 21.8552C6.0447 22.2303 5.83398 22.739 5.83398 23.2694V39.3494C5.83398 40.4534 6.72998 41.3494 7.83398 41.3494H13.402C13.686 41.3493 13.9667 41.4096 14.2256 41.5264C14.4845 41.6432 14.7155 41.8137 14.9033 42.0268L21.1406 49.1201C22.1116 50.2237 23.454 50.9324 24.9129 51.1118C26.3718 51.2912 27.8459 50.9289 29.0553 50.0934L30.8793 48.8321L32.8367 49.4988C34.0462 49.9089 35.355 49.9224 36.5728 49.5373C37.7905 49.1522 38.8536 48.3885 39.6073 47.3574L40.8606 45.6454L41.73 45.7628C42.934 45.925 44.1588 45.7179 45.2426 45.1689C46.3263 44.6199 47.2179 43.7548 47.7993 42.6881L47.93 42.4481H57.1673C57.6977 42.4481 58.2065 42.2374 58.5815 41.8623C58.9566 41.4872 59.1673 40.9785 59.1673 40.4481V23.2721C59.1673 22.7417 58.9566 22.233 58.5815 21.8579C58.2065 21.4828 57.6977 21.2721 57.1673 21.2721H51.2713C50.7917 21.2722 50.3279 21.1 49.9646 20.7868L45.4607 16.8961C43.5819 15.2727 41.1665 14.4063 38.6842 14.4654C36.202 14.5246 33.8306 15.5051 32.0313 17.2161M27.658 19.0961L29.1567 20.1041L23.93 25.3601C23.3667 25.9266 22.9222 26.5999 22.6226 27.3404C22.323 28.081 22.1743 28.874 22.1852 29.6728C22.1961 30.4716 22.3665 31.2602 22.6862 31.9923C23.006 32.7244 23.4687 33.3852 24.0473 33.9361L24.2286 34.1068C26.3886 36.1628 29.7273 36.3228 32.0713 34.4801L37.6153 30.1281L44.7006 36.9414C45.0172 37.2454 45.225 37.645 45.2919 38.0787C45.3589 38.5124 45.2814 38.9561 45.0713 39.3414L45.0046 39.4588L44.9673 39.5281L44.2873 40.7734C44.0935 41.1285 43.7965 41.4165 43.4356 41.5993C43.0748 41.7821 42.6669 41.8512 42.266 41.7974L40.2153 41.5228C39.859 41.4748 39.4963 41.5238 39.1655 41.6646C38.8346 41.8054 38.5478 42.0327 38.3353 42.3228L36.378 44.9948C36.1269 45.3384 35.7728 45.593 35.367 45.7216C34.9613 45.8501 34.5251 45.8458 34.122 45.7094L31.2153 44.7228C30.9197 44.6221 30.6045 44.5922 30.2952 44.6352C29.9859 44.6783 29.6909 44.7932 29.434 44.9708L26.7833 46.8028C26.3799 47.0816 25.8881 47.2026 25.4014 47.1426C24.9147 47.0826 24.4669 46.8459 24.1433 46.4774L17.906 39.3841C17.3425 38.7442 16.6491 38.2318 15.872 37.8809C15.0949 37.5301 14.2519 37.3489 13.3993 37.3494H9.83398V25.2694H13.73C15.1618 25.2697 16.5465 24.7581 17.634 23.8268L22.8286 19.3761C23.4928 18.8069 24.3251 18.471 25.1983 18.4199C26.0715 18.3689 26.9374 18.6055 27.6633 19.0934M49.3166 38.4508C49.3263 37.6314 49.168 36.8188 48.8515 36.063C48.5351 35.3071 48.0672 34.6242 47.4766 34.0561L40.754 27.5921C41.0557 27.2074 41.2061 26.7256 41.1767 26.2376C41.1473 25.7496 40.9402 25.2892 40.5945 24.9435C40.2488 24.5978 39.7885 24.3907 39.3005 24.3614C38.8125 24.332 38.3307 24.4824 37.946 24.7841L36.5966 25.8428L36.4366 25.9681L29.6046 31.3361C29.2264 31.6333 28.7537 31.7842 28.2733 31.7612C27.7928 31.7382 27.3367 31.5427 26.9886 31.2108L26.8073 31.0374C26.6144 30.8539 26.4601 30.6336 26.3534 30.3896C26.2468 30.1456 26.1899 29.8828 26.1862 29.6165C26.1824 29.3502 26.2319 29.0859 26.3317 28.839C26.4315 28.5921 26.5796 28.3677 26.7673 28.1788L34.674 20.2321C35.7447 19.1556 37.1838 18.5251 38.7011 18.4677C40.2183 18.4103 41.7009 18.9303 42.85 19.9228L47.3487 23.8108C48.4395 24.7526 49.8328 25.2704 51.274 25.2694H55.1673V38.4508H49.3166Z" fill="white"/>
</svg>
