<svg width="64" height="64" viewBox="0 0 64 64" fill="none" xmlns="http://www.w3.org/2000/svg">
<path d="M31.534 17.2134L31.51 17.1974L29.3953 15.7761C27.9438 14.7998 26.2122 14.3262 24.4658 14.4278C22.7194 14.5294 21.0545 15.2007 19.726 16.3388L14.534 20.7894C14.1714 21.0995 13.7098 21.2698 13.2327 21.2694H7.33398C6.80355 21.2694 6.29484 21.4801 5.91977 21.8552C5.5447 22.2303 5.33398 22.739 5.33398 23.2694V39.3494C5.33398 40.4534 6.22998 41.3494 7.33398 41.3494H12.902C13.186 41.3493 13.4667 41.4096 13.7256 41.5264C13.9845 41.6432 14.2155 41.8137 14.4033 42.0268L20.6406 49.1201C21.6116 50.2237 22.954 50.9324 24.4129 51.1118C25.8718 51.2912 27.3459 50.9289 28.5553 50.0934L30.3793 48.8321L32.3367 49.4988C33.5462 49.9089 34.855 49.9224 36.0728 49.5373C37.2905 49.1522 38.3536 48.3885 39.1073 47.3574L40.3606 45.6454L41.23 45.7628C42.434 45.925 43.6588 45.7179 44.7426 45.1689C45.8263 44.6199 46.7179 43.7548 47.2993 42.6881L47.43 42.4481H56.6673C57.1977 42.4481 57.7065 42.2374 58.0815 41.8623C58.4566 41.4872 58.6673 40.9785 58.6673 40.4481V23.2721C58.6673 22.7417 58.4566 22.233 58.0815 21.8579C57.7065 21.4828 57.1977 21.2721 56.6673 21.2721H50.7713C50.2917 21.2722 49.8279 21.1 49.4646 20.7868L44.9607 16.8961C43.0819 15.2727 40.6665 14.4063 38.1842 14.4654C35.702 14.5246 33.3306 15.5051 31.5313 17.2161M27.158 19.0961L28.6567 20.1041L23.43 25.3601C22.8667 25.9266 22.4222 26.5999 22.1226 27.3404C21.823 28.081 21.6743 28.874 21.6852 29.6728C21.6961 30.4716 21.8665 31.2602 22.1862 31.9923C22.506 32.7244 22.9687 33.3852 23.5473 33.9361L23.7286 34.1068C25.8886 36.1628 29.2273 36.3228 31.5713 34.4801L37.1153 30.1281L44.2006 36.9414C44.5172 37.2454 44.725 37.645 44.7919 38.0787C44.8589 38.5124 44.7814 38.9561 44.5713 39.3414L44.5046 39.4588L44.4673 39.5281L43.7873 40.7734C43.5935 41.1285 43.2965 41.4165 42.9356 41.5993C42.5748 41.7821 42.1669 41.8512 41.766 41.7974L39.7153 41.5228C39.359 41.4748 38.9963 41.5238 38.6655 41.6646C38.3346 41.8054 38.0478 42.0327 37.8353 42.3228L35.878 44.9948C35.6269 45.3384 35.2728 45.593 34.867 45.7216C34.4613 45.8501 34.0251 45.8458 33.622 45.7094L30.7153 44.7228C30.4197 44.6221 30.1045 44.5922 29.7952 44.6352C29.4859 44.6783 29.1909 44.7932 28.934 44.9708L26.2833 46.8028C25.8799 47.0816 25.3881 47.2026 24.9014 47.1426C24.4147 47.0826 23.9669 46.8459 23.6433 46.4774L17.406 39.3841C16.8425 38.7442 16.1491 38.2318 15.372 37.8809C14.5949 37.5301 13.7519 37.3489 12.8993 37.3494H9.33398V25.2694H13.23C14.6618 25.2697 16.0465 24.7581 17.134 23.8268L22.3286 19.3761C22.9928 18.8069 23.8251 18.471 24.6983 18.4199C25.5715 18.3689 26.4374 18.6055 27.1633 19.0934M48.8166 38.4508C48.8263 37.6314 48.668 36.8188 48.3515 36.063C48.0351 35.3071 47.5672 34.6242 46.9766 34.0561L40.254 27.5921C40.5557 27.2074 40.7061 26.7256 40.6767 26.2376C40.6473 25.7496 40.4402 25.2892 40.0945 24.9435C39.7488 24.5978 39.2885 24.3907 38.8005 24.3614C38.3125 24.332 37.8307 24.4824 37.446 24.7841L36.0966 25.8428L35.9366 25.9681L29.1046 31.3361C28.7264 31.6333 28.2537 31.7842 27.7733 31.7612C27.2928 31.7382 26.8367 31.5427 26.4886 31.2108L26.3073 31.0374C26.1144 30.8539 25.9601 30.6336 25.8534 30.3896C25.7468 30.1456 25.6899 29.8828 25.6862 29.6165C25.6824 29.3502 25.7319 29.0859 25.8317 28.839C25.9315 28.5921 26.0796 28.3677 26.2673 28.1788L34.174 20.2321C35.2447 19.1556 36.6838 18.5251 38.2011 18.4677C39.7183 18.4103 41.2009 18.9303 42.35 19.9228L46.8487 23.8108C47.9395 24.7526 49.3328 25.2704 50.774 25.2694H54.6673V38.4508H48.8166Z" fill="#074592"/>
</svg>
