<svg width="20" height="20" viewBox="0 0 20 20" fill="none" xmlns="http://www.w3.org/2000/svg">
<g clip-path="url(#clip0_1253_1513)">
<path d="M10 0.3125C4.65812 0.3125 0.3125 4.65812 0.3125 10C0.3125 15.3419 4.65812 19.6875 10 19.6875C15.3419 19.6875 19.6875 15.3419 19.6875 10C19.6875 4.65812 15.3419 0.3125 10 0.3125ZM10 17.8125C5.69187 17.8125 2.1875 14.3081 2.1875 10C2.1875 5.69187 5.69187 2.1875 10 2.1875C14.3081 2.1875 17.8125 5.69187 17.8125 10C17.8125 14.3081 14.3081 17.8125 10 17.8125Z" fill="white"/>
<path d="M10 6.93688C9.75136 6.93688 9.5129 7.03565 9.33709 7.21146C9.16127 7.38728 9.0625 7.62573 9.0625 7.87438V14.7956C9.0625 15.0443 9.16127 15.2827 9.33709 15.4585C9.5129 15.6344 9.75136 15.7331 10 15.7331C10.2486 15.7331 10.4871 15.6344 10.6629 15.4585C10.8387 15.2827 10.9375 15.0443 10.9375 14.7956V7.87438C10.9375 7.62573 10.8387 7.38728 10.6629 7.21146C10.4871 7.03565 10.2486 6.93688 10 6.93688ZM10 4.26562C9.75136 4.26563 9.5129 4.3644 9.33709 4.54021C9.16127 4.71603 9.0625 4.95448 9.0625 5.20312V5.20625C9.0625 5.72375 9.48188 6.1425 10 6.1425C10.2447 6.13618 10.4772 6.03454 10.6481 5.85924C10.8189 5.68394 10.9145 5.44884 10.9145 5.20406C10.9145 4.95928 10.8189 4.72419 10.6481 4.54889C10.4772 4.37358 10.2447 4.27194 10 4.26562Z" fill="white"/>
</g>
<defs>
<clipPath id="clip0_1253_1513">
<rect width="20" height="20" fill="white"/>
</clipPath>
</defs>
</svg>
