<svg width="64" height="64" viewBox="0 0 64 64" fill="none" xmlns="http://www.w3.org/2000/svg">
<path d="M29.0001 42.9999C29.0001 43.7956 29.3161 44.5586 29.8787 45.1212C30.4413 45.6838 31.2044 45.9999 32.0001 45.9999C32.7957 45.9999 33.5588 45.6838 34.1214 45.1212C34.684 44.5586 35.0001 43.7956 35.0001 42.9999C35.0001 42.2043 34.684 41.4412 34.1214 40.8786C33.5588 40.316 32.7957 39.9999 32.0001 39.9999C31.2044 39.9999 30.4413 40.316 29.8787 40.8786C29.3161 41.4412 29.0001 42.2043 29.0001 42.9999ZM33.5001 35.9999C33.7751 35.9999 34.0001 35.7749 34.0001 35.4999V18.4999C34.0001 18.2249 33.7751 17.9999 33.5001 17.9999H30.5001C30.2251 17.9999 30.0001 18.2249 30.0001 18.4999V35.4999C30.0001 35.7749 30.2251 35.9999 30.5001 35.9999H33.5001ZM58.5001 24.2499H54.7938C54.6313 24.2499 54.4813 24.3249 54.3876 24.4562L47.7313 33.6312L44.6126 29.3312C44.5663 29.2668 44.5053 29.2144 44.4346 29.1785C44.3639 29.1426 44.2856 29.1242 44.2063 29.1249H40.5001C40.0938 29.1249 39.8563 29.5874 40.0938 29.9187L46.9188 39.3374C47.0122 39.4653 47.1345 39.5693 47.2757 39.641C47.4169 39.7127 47.573 39.75 47.7313 39.75C47.8897 39.75 48.0458 39.7127 48.1869 39.641C48.3281 39.5693 48.4504 39.4653 48.5438 39.3374L58.9063 25.0437C59.1438 24.7124 58.9063 24.2499 58.5001 24.2499ZM55.7501 43.3749H51.7376C51.3938 43.3749 51.0751 43.5562 50.8876 43.8437C50.0005 45.2531 48.9563 46.5572 47.7751 47.7312C45.7447 49.763 43.34 51.3825 40.6938 52.4999C37.9505 53.6569 35.0024 54.2499 32.0251 54.2437C29.0188 54.2437 26.1001 53.6562 23.3563 52.4999C20.7101 51.3825 18.3054 49.763 16.2751 47.7312C14.2381 45.706 12.6161 43.3028 11.5001 40.6562C10.3376 37.9187 9.75006 34.9999 9.75006 31.9999C9.75006 28.9999 10.3376 26.0812 11.5001 23.3437C12.6188 20.6937 14.2251 18.3124 16.2751 16.2687C18.3251 14.2249 20.7063 12.6187 23.3563 11.4999C26.0996 10.3429 29.0478 9.74989 32.0251 9.75616C35.0313 9.75616 37.9501 10.3437 40.6938 11.4999C43.3438 12.6187 45.7251 14.2249 47.7751 16.2687C48.9626 17.4562 50.0001 18.7562 50.8876 20.1562C51.0688 20.4499 51.3938 20.6249 51.7376 20.6249H55.7501C56.1251 20.6249 56.3626 20.2312 56.2001 19.8999C51.8001 11.1562 42.7938 5.12491 32.3563 4.99991C17.4313 4.82491 5.03131 17.0312 5.00006 31.9499C4.96881 46.8812 17.0813 58.9999 32.0251 58.9999C42.6001 58.9999 51.7501 52.9374 56.1938 44.0999C56.2321 44.0239 56.2504 43.9393 56.2469 43.8543C56.2434 43.7692 56.2182 43.6865 56.1738 43.6139C56.1293 43.5413 56.0671 43.4812 55.9929 43.4394C55.9188 43.3976 55.8352 43.3754 55.7501 43.3749Z" fill="#074592"/>
</svg>
