<svg width="64" height="64" viewBox="0 0 64 64" fill="none" xmlns="http://www.w3.org/2000/svg">
<path d="M0.3776 35.3037C0.637734 37.2931 1.61269 39.12 3.12059 40.4436C4.6285 41.7672 6.5664 42.497 8.5728 42.497C10.5792 42.497 12.5171 41.7672 14.025 40.4436C15.5329 39.12 16.5079 37.2931 16.768 35.3037H0.3776ZM45.033 51.9424C45.0335 52.1106 45.0008 52.2772 44.9369 52.4328C44.8729 52.5884 44.779 52.7298 44.6603 52.8491C44.5417 52.9683 44.4007 53.063 44.2455 53.1277C44.0902 53.1924 43.9237 53.2259 43.7555 53.2262H19.8758C19.1744 53.2262 18.5958 52.6502 18.5958 51.9424C18.5982 51.6045 18.7341 51.2812 18.9739 51.0431C19.2137 50.805 19.5379 50.6713 19.8758 50.6713H43.7542C44.4608 50.6713 45.033 51.2397 45.033 51.9424ZM18.7354 53.8803H44.8947V57.5757H18.7354V53.8803ZM47.232 35.3037C47.4911 37.2941 48.4655 39.1224 49.9732 40.4474C51.481 41.7724 53.4193 42.5037 55.4266 42.5049C57.4339 42.5055 59.3727 41.7747 60.8803 40.4493C62.3878 39.1238 63.3608 37.2946 63.6173 35.3037H47.232ZM63.1667 32.7321L56.4557 23.488H60.0435C60.9165 23.488 61.6192 22.7725 61.6192 21.888C61.6192 21.0112 60.9152 20.3033 60.0435 20.3033H41.0381C40.4743 18.7491 39.5108 17.3709 38.2448 16.3075C36.9787 15.2442 35.4548 14.5333 33.8266 14.2464V9.25821C33.8266 8.37117 33.1149 7.66333 32.233 7.66333L32.0845 7.67997L31.936 7.66333C31.7266 7.66283 31.5192 7.70376 31.3256 7.78378C31.1321 7.86379 30.9564 7.98131 30.8085 8.12956C30.6606 8.27781 30.5435 8.45386 30.4639 8.64757C30.3844 8.84128 30.3439 9.04881 30.345 9.25821V14.2438C28.7172 14.5311 27.1938 15.2422 25.9282 16.3056C24.6627 17.3689 23.6996 18.7469 23.136 20.3008H4.12672C3.26016 20.3008 2.5536 21.0086 2.5536 21.8854C2.5536 22.7712 3.26016 23.4854 4.12672 23.4854H7.55072L0.8384 32.7296H0V34.4371H17.1494V32.7296H16.3072L9.59744 23.488H25.1738C25.1738 23.127 25.2134 22.7725 25.2672 22.4333C25.3222 22.2733 25.3594 22.1107 25.3594 21.943C25.6484 20.7272 26.2665 19.6144 27.1459 18.7264C28.0252 17.8385 29.132 17.2096 30.345 16.9088V34.4409H30.2784C30.1414 41.0355 27.0042 46.7865 22.3501 50.0185H41.824C37.1686 46.7865 34.0339 41.0355 33.8893 34.4409H33.8278V16.9088C35.0406 17.2098 36.1471 17.8388 37.0262 18.7267C37.9053 19.6146 38.5232 20.7274 38.8122 21.943C38.819 22.1103 38.851 22.2737 38.9082 22.4333C38.9594 22.7737 38.9914 23.127 38.9914 23.488H54.4051L47.6928 32.7321H46.8557V34.4397H64V32.7321H63.1667ZM7.8912 32.7321H2.5344L7.8912 25.3529V32.7321ZM9.26208 32.7321V25.3529L14.6189 32.7321H9.26208ZM54.743 32.7321H49.3837L54.743 25.3529V32.7321ZM56.1075 32.7321V25.3529L61.4707 32.7321H56.1075ZM10.1645 18.0787C10.1527 18.4927 9.98002 18.8858 9.68305 19.1744C9.38607 19.4631 8.98824 19.6246 8.57408 19.6246C8.15992 19.6246 7.76209 19.4631 7.46511 19.1744C7.16814 18.8858 6.99543 18.4927 6.98368 18.0787C6.98368 17.2006 7.69792 16.4838 8.57728 16.4838C9.4528 16.4825 10.1645 17.2006 10.1645 18.0787ZM57.0176 17.9942C57.0176 18.8787 56.3059 19.5801 55.4278 19.5801C55.219 19.5815 55.012 19.5414 54.8188 19.4622C54.6255 19.3831 54.4499 19.2664 54.302 19.1189C54.1542 18.9714 54.0371 18.7961 53.9574 18.603C53.8778 18.41 53.8372 18.203 53.8381 17.9942C53.8295 17.7801 53.8642 17.5664 53.9403 17.366C54.0163 17.1657 54.132 16.9827 54.2805 16.8282C54.4289 16.6736 54.6071 16.5507 54.8043 16.4667C55.0014 16.3827 55.2135 16.3394 55.4278 16.3394C55.6422 16.3394 55.8543 16.3827 56.0514 16.4667C56.2486 16.5507 56.4267 16.6736 56.5752 16.8282C56.7237 16.9827 56.8394 17.1657 56.9154 17.366C56.9914 17.5664 57.0262 17.7801 57.0176 17.9942Z" fill="#074592"/>
</svg>
