<svg width="36" height="35" viewBox="0 0 36 35" fill="none" xmlns="http://www.w3.org/2000/svg">
<path d="M34.375 17.5C34.375 26.5437 27.0437 33.875 18 33.875C8.95634 33.875 1.625 26.5437 1.625 17.5C1.625 8.45634 8.95634 1.125 18 1.125C27.0437 1.125 34.375 8.45634 34.375 17.5Z" stroke="white" stroke-width="2.25"/>
<path d="M14.2554 15.0693C14.9802 15.0693 15.5679 14.4817 15.5679 13.7568C15.5679 13.032 14.9802 12.4443 14.2554 12.4443C13.5305 12.4443 12.9429 13.032 12.9429 13.7568C12.9429 14.4817 13.5305 15.0693 14.2554 15.0693Z" fill="white"/>
<path d="M15.3491 15.9443H13.1616C13.0409 15.9443 12.9429 16.0423 12.9429 16.1631V22.7256C12.9429 22.8463 13.0409 22.9443 13.1616 22.9443H15.3491C15.4699 22.9443 15.5679 22.8463 15.5679 22.7256V16.1631C15.5679 16.0423 15.4699 15.9443 15.3491 15.9443Z" fill="white"/>
<path d="M21.8666 15.6429C20.9316 15.3227 19.7622 15.604 19.0609 16.1084C19.0368 16.0144 18.9511 15.9444 18.8491 15.9444H16.6616C16.5409 15.9444 16.4429 16.0424 16.4429 16.1631V22.7256C16.4429 22.8464 16.5409 22.9444 16.6616 22.9444H18.8491C18.9699 22.9444 19.0679 22.8464 19.0679 22.7256V18.0094C19.4214 17.7049 19.8768 17.6077 20.2496 17.7661C20.6109 17.9188 20.8179 18.2915 20.8179 18.7881V22.7256C20.8179 22.8464 20.9159 22.9444 21.0366 22.9444H23.2241C23.3449 22.9444 23.4429 22.8464 23.4429 22.7256V18.3475C23.4179 16.5499 22.5722 15.8844 21.8666 15.6429Z" fill="white"/>
</svg>
