<svg width="48" height="57" viewBox="0 0 48 57" fill="none" xmlns="http://www.w3.org/2000/svg">
<path d="M0.0832168 0.062851C0.0356643 0.0986633 0 9.91119 0 21.8486V43.5507H21.6364H43.2727V41.6407V39.7308H23.479H3.68531L3.70909 21.7889L3.74476 3.85894L23.5147 3.82313L43.2846 3.79925L43.2489 1.91315L43.2133 0.0389786L21.6839 0.0031662C9.84336 -0.00876999 0.118881 0.0151024 0.0832168 0.062851Z" fill="white"/>
<path d="M7.81173 7.81022C7.76418 7.85797 7.72852 14.137 7.72852 21.765V35.6482L23.8131 35.7317C32.646 35.7676 40.6348 35.7914 41.5502 35.7676L43.2145 35.7317L43.2502 27.8173L43.274 19.9147H31.6593C25.2635 19.9147 19.9614 19.867 19.8782 19.8192C19.7712 19.7357 19.7355 18.8404 19.7593 15.7247L19.7949 11.7376L31.5404 11.7018L43.274 11.6779V9.76795V7.85797H29.5432H15.8124V15.7963V23.7347H27.5817H39.3509V27.7934V31.8521H25.4418H11.5327L11.5089 19.8192L11.4733 7.79828L9.67817 7.76246C8.70334 7.75053 7.85928 7.7744 7.81173 7.81022Z" fill="white"/>
<path d="M7.81173 7.81071C7.76418 7.85846 7.72852 14.1375 7.72852 21.7655V35.6487L23.8131 35.7322V31.8526H11.5327L11.5089 19.8197L11.4733 7.79878L9.67817 7.76296C8.70334 7.75102 7.85928 7.7749 7.81173 7.81071Z" fill="white"/>
<path d="M45.2937 44.0044C44.4853 44.4103 44.1168 45.4011 44.5091 46.1532C45.0678 47.2275 46.3874 47.3827 47.1839 46.4755C47.8972 45.6518 47.5762 44.3984 46.5182 43.9567C46.007 43.7418 45.793 43.7418 45.2937 44.0044ZM46.8273 44.4581C47.7189 45.2101 47.1958 46.7739 46.0427 46.7739C45.056 46.7739 44.414 45.9144 44.7112 45.0191C44.9965 44.1477 46.1021 43.8493 46.8273 44.4581Z" fill="white"/>
<path d="M45.3169 45.413C45.3407 45.9263 45.412 46.2367 45.5071 46.2725C45.6022 46.2964 45.6498 46.189 45.6498 45.9502C45.6498 45.4847 45.9232 45.4608 46.2085 45.9025C46.3155 46.0935 46.4225 46.2606 46.4344 46.2845C46.4582 46.2964 46.5176 46.2845 46.5889 46.2367C46.684 46.189 46.6722 46.0815 46.5771 45.9025C46.5057 45.7592 46.4344 45.425 46.4344 45.1623L46.4225 44.6848L45.8519 44.649L45.2812 44.6132L45.3169 45.413ZM46.1015 45.0668C46.0421 45.3772 45.6498 45.413 45.6498 45.1146C45.6498 44.9355 45.7211 44.8639 45.8994 44.8639C46.0659 44.8639 46.1253 44.9236 46.1015 45.0668Z" fill="white"/>
<path d="M1.96004 46.5231C1.50829 46.6306 1.06843 46.8693 1.06843 47.0006C1.06843 47.0603 0.961439 47.1319 0.842558 47.1678C0.711788 47.1916 0.462138 47.5139 0.295704 47.8601C0.0222778 48.3854 -0.0133865 48.5883 0.0460541 49.0777C0.117383 49.7701 0.307593 50.1044 0.901998 50.558C1.29431 50.8564 1.46074 50.8922 2.37612 50.928C3.27962 50.9638 3.48172 50.94 3.99291 50.6774C4.31389 50.5222 4.64675 50.4147 4.72997 50.4386C4.95584 50.5222 4.8964 50.3312 4.57542 49.9611C4.25445 49.603 4.15934 49.5672 4.15934 49.8059C4.15934 50.1163 3.54116 50.3909 2.74466 50.4386C2.06703 50.4864 1.9006 50.4625 1.54396 50.2118C0.176823 49.2926 0.688012 47.3349 2.37612 47.0006C3.18452 46.8455 3.92158 47.0723 3.92158 47.4781C3.92158 47.884 4.07612 47.7646 4.37333 47.1678C4.63487 46.6306 4.63487 46.368 4.38521 46.6186C4.29011 46.7141 4.12368 46.7022 3.77892 46.5828C3.26773 46.4038 2.55445 46.3799 1.96004 46.5231Z" fill="white"/>
<path d="M33.0499 47.1319C33.0499 47.2035 32.4555 47.2513 31.5044 47.2513C30.6485 47.2513 29.959 47.299 29.959 47.3587C29.959 47.4184 30.0065 47.49 30.0779 47.5139C30.1492 47.5378 30.2086 48.1824 30.2324 49.0299C30.2562 50.1759 30.2324 50.546 30.1016 50.6773C30.0065 50.7728 29.9471 50.8683 29.9709 50.8922C29.9946 50.916 30.7793 50.9519 31.7184 50.9757L33.4065 51.0115V50.534C33.3946 50.1162 33.3828 50.0804 33.2401 50.2595C33.1093 50.4385 32.8835 50.4744 31.9324 50.4744H30.7793L30.8149 49.9014L30.8506 49.3403L31.5995 49.3045C32.0513 49.2806 32.4198 49.3284 32.5268 49.4119C32.6695 49.5313 32.6933 49.4597 32.6933 49.0299C32.6933 48.636 32.6576 48.5524 32.5506 48.6599C32.4674 48.7434 32.0751 48.8031 31.5995 48.8031H30.7912V48.3376C30.7912 48.0749 30.8506 47.8243 30.9219 47.7884C31.124 47.6571 32.9786 47.7049 33.0261 47.8362C33.1331 48.1466 33.2877 47.9317 33.2877 47.49C33.2877 47.2274 33.2401 47.0125 33.1688 47.0125C33.1093 47.0125 33.0499 47.0603 33.0499 47.1319Z" fill="white"/>
<path d="M7.54861 47.3227C6.02693 48.1105 5.9556 50.0324 7.40595 50.7964C7.59616 50.8919 8.07169 50.9755 8.47588 50.9874C9.80735 51.0113 10.5801 50.3906 10.6752 49.1968C10.7465 48.3851 10.5444 47.9076 9.95001 47.4778C9.53393 47.1794 9.36749 47.1317 8.68987 47.1317C8.21435 47.1317 7.7626 47.2033 7.54861 47.3227ZM9.18917 47.633C9.77169 47.8121 10.1046 48.3015 10.1046 49.0058C10.1046 49.9608 9.70036 50.4144 8.7612 50.5458C7.48917 50.7248 6.64511 49.5311 7.22763 48.3732C7.44162 47.9434 7.70316 47.7285 8.20246 47.5733C8.49966 47.4659 8.68987 47.4778 9.18917 47.633Z" fill="white"/>
<path d="M12.6001 47.2514C12.3743 47.2991 12.2792 47.3469 12.398 47.3588C12.5764 47.3708 12.6001 47.5379 12.6001 48.9942C12.6001 50.4148 12.5764 50.6535 12.398 50.7848C12.2078 50.9281 12.2792 50.94 12.8855 50.952C13.4799 50.952 13.5631 50.9281 13.4085 50.7968C13.1827 50.6177 13.0876 49.7224 13.1827 48.7436L13.254 48.0392L14.2883 49.3404C15.0729 50.3312 15.2869 50.6774 15.1917 50.7968C15.0966 50.9162 15.2274 50.952 15.8575 50.952C16.3568 50.952 16.6302 50.9042 16.5827 50.8326C16.547 50.761 16.4281 50.7132 16.333 50.7132C16.2022 50.7132 16.1666 50.4267 16.1666 49.1017C16.1666 47.705 16.1903 47.4901 16.3687 47.3827C16.6897 47.2036 16.5232 47.1559 15.8694 47.2394C15.4652 47.2872 15.3463 47.3469 15.489 47.3946C15.6673 47.4663 15.691 47.6573 15.691 48.7436C15.691 49.4359 15.6435 49.997 15.5841 49.997C15.5246 49.997 15.2512 49.6866 14.9659 49.3046C14.6806 48.9346 14.2407 48.3616 13.9792 48.0512C13.5987 47.5856 13.5393 47.4424 13.682 47.3588C13.8246 47.2753 13.8246 47.2514 13.6701 47.2514C13.575 47.2514 13.3848 47.2275 13.254 47.2036C13.1232 47.1798 12.826 47.2036 12.6001 47.2514Z" fill="white"/>
<path d="M19.2931 47.3708C18.1875 47.8124 17.712 48.8749 18.1638 49.9134C18.461 50.57 19.1505 50.952 20.0778 50.952C20.7435 50.952 21.3379 51.2385 21.2309 51.5011C21.1358 51.7398 21.2903 51.6921 21.6945 51.3698C22.0274 51.0952 22.0274 51.0714 21.7896 51.0714C21.3854 51.0714 21.3498 50.8445 21.6827 50.5819C22.3484 50.0567 22.5861 48.8868 22.1938 48.1228C21.754 47.2753 20.4225 46.9291 19.2931 47.3708ZM21.1239 47.8483C21.6589 48.1706 21.8729 48.6361 21.7659 49.2211C21.5757 50.2357 21.1596 50.6058 20.5533 50.2954C20.161 50.0805 19.6379 50.1522 19.9708 50.3551C20.2204 50.5103 19.733 50.5103 19.3288 50.3551C18.7344 50.1283 18.4729 49.042 18.8295 48.3377C19.1861 47.6573 20.3868 47.3946 21.1239 47.8483Z" fill="white"/>
<path d="M35.9741 47.3107C35.2964 47.6808 35.1181 48.2538 35.5342 48.6716C35.665 48.8029 36.1643 49.0178 36.6398 49.161C37.6622 49.4714 37.8643 49.6266 37.7573 50.0444C37.7097 50.2593 37.5671 50.3787 37.2699 50.4622C36.6279 50.6413 35.4272 50.2951 35.6174 49.9847C35.6531 49.925 35.6531 49.8773 35.6174 49.8773C35.5461 49.8773 35.1895 50.5338 35.1895 50.6771C35.1895 50.7248 35.3083 50.7845 35.4629 50.7965C35.6055 50.8084 35.9978 50.8561 36.3426 50.9039C37.5909 51.071 38.3992 50.6532 38.3992 49.8295C38.3992 49.3043 38.0664 49.0297 37.1034 48.7552C36.7111 48.6477 36.2713 48.4567 36.1167 48.3374L35.8433 48.1106L36.0811 47.8479C36.2832 47.6211 36.4139 47.5972 36.9608 47.6331C37.4006 47.6689 37.6503 47.7644 37.7573 47.9076C37.8524 48.027 37.9356 48.1106 37.9594 48.0747C37.995 48.0151 38.2804 47.3704 38.2804 47.3346C38.2804 47.3227 38.1615 47.2988 38.0188 47.2988C37.8643 47.2869 37.4244 47.2511 37.0321 47.2033C36.4853 47.1317 36.2356 47.1675 35.9741 47.3107Z" fill="white"/>
<path d="M39.9569 47.5739C39.9569 47.8246 39.9926 47.9559 40.0282 47.8723C40.0639 47.7888 40.3135 47.7291 40.6702 47.7291H41.2527V49.1974C41.2527 50.6179 41.2408 50.6776 40.9912 50.8089C40.7653 50.9164 40.8485 50.9403 41.4905 50.9403C42.073 50.9403 42.2156 50.9164 42.0611 50.8209C41.8709 50.7134 41.8471 50.5105 41.8471 49.2213V47.7291H42.4415C42.7744 47.7291 43.0359 47.7768 43.0359 47.8485C43.0359 47.9082 43.0953 47.9678 43.1548 47.9678C43.2261 47.9678 43.2737 47.7768 43.2737 47.5381C43.2737 47.1919 43.238 47.1203 43.0835 47.18C42.8219 47.2874 40.2303 47.2993 40.0758 47.1919C39.9926 47.1442 39.945 47.2874 39.9569 47.5739Z" fill="white"/>
<path d="M24.0273 47.3708C24.1699 47.4543 24.2175 47.7408 24.2294 48.7436C24.265 50.2954 24.3958 50.6058 25.1448 50.8923C26.0839 51.2623 27.3084 50.8565 27.5699 50.0925C27.6413 49.8895 27.7007 49.2569 27.7007 48.6958C27.7007 47.6334 27.7483 47.4543 28.0573 47.3349C28.1525 47.2991 27.8909 47.2753 27.4629 47.2753C27.035 47.2753 26.7853 47.2991 26.8923 47.3349C27.0112 47.3588 27.1301 47.5498 27.1776 47.8005C27.249 48.1944 27.1539 49.5911 27.035 50.0328C26.8923 50.4984 25.7392 50.7729 25.3112 50.4387C24.9546 50.1641 24.8476 49.7702 24.8476 48.6361C24.8476 47.6811 24.8832 47.4782 25.0615 47.3827C25.2161 47.2872 25.0972 47.2633 24.5504 47.2633C24.0629 47.2633 23.8965 47.2872 24.0273 47.3708Z" fill="white"/>
<path d="M0.0945981 53.6853C0.225367 53.7569 0.249144 54.0912 0.213479 55.082L0.177815 56.3951L1.22397 56.407C2.10369 56.407 2.25823 56.3832 2.25823 56.216C2.25823 56.0609 2.13935 56.037 1.4974 56.0609C0.772221 56.0967 0.736556 56.0967 0.665227 55.7982C0.558234 55.3804 0.724668 53.7808 0.879214 53.6734C0.950542 53.6256 0.77222 53.5779 0.475018 53.5779C0.130262 53.5779 -0.000506788 53.6137 0.0945981 53.6853Z" fill="white"/>
<path d="M13.6974 53.7693C13.4953 53.9126 13.4359 54.0558 13.4597 54.3304C13.4953 54.6885 13.5548 54.7363 14.2324 54.9511C15.124 55.2376 15.4569 55.5122 15.2667 55.8226C15.0883 56.0971 14.1016 56.1687 13.7331 55.9181C13.4834 55.7509 13.4478 55.7509 13.3883 55.93C13.2932 56.1807 13.4834 56.3001 14.1135 56.3955C15.0289 56.5269 15.6946 56.2046 15.6946 55.6077C15.6946 55.1779 15.4212 54.9631 14.589 54.7243C13.8639 54.5094 13.6618 54.2946 13.9233 53.9842C14.066 53.8051 14.4226 53.7932 15.2667 53.9603C15.3855 53.9723 15.5163 53.9364 15.5401 53.8648C15.6471 53.5425 14.1135 53.4709 13.6974 53.7693Z" fill="white"/>
<path d="M17.7493 54.0678C16.9171 54.3065 16.5961 55.3809 17.1668 56.0494C17.4283 56.3478 17.5353 56.3836 18.1654 56.3836C18.7479 56.3836 18.9381 56.3359 19.1758 56.1091C19.8178 55.5002 19.6395 54.4378 18.843 54.1036C18.3793 53.9126 18.2842 53.9126 17.7493 54.0678ZM18.9619 54.4378C19.58 55.2018 19.1521 56.2045 18.201 56.2045C17.3689 56.2045 16.9528 55.2973 17.4758 54.6169C17.6066 54.4498 17.8325 54.2946 17.987 54.2707C18.2129 54.2349 18.8905 54.3543 18.9619 54.4378Z" fill="white"/>
<path d="M34.8931 54.0194C33.8351 54.2939 33.5141 55.6667 34.3938 56.2039C35.3924 56.8246 36.605 56.2516 36.6169 55.1773C36.6169 54.5923 36.2365 54.1268 35.6539 54.0074C35.2616 53.9358 35.2616 53.9358 34.8931 54.0194ZM36.0225 54.5327C36.5931 55.1057 36.1057 56.2039 35.2854 56.2039C34.477 56.2039 34.0372 55.4996 34.4057 54.7953C34.6197 54.3775 34.7386 54.3178 35.3448 54.3059C35.6302 54.2939 35.8679 54.3775 36.0225 54.5327Z" fill="white"/>
<path d="M4.32851 54.1502C4.35229 54.198 4.15019 54.7352 3.86487 55.344L3.3418 56.4422H3.639C3.86487 56.4422 3.92431 56.3825 3.92431 56.1438C3.92431 55.8573 3.95998 55.8453 4.6376 55.8453C5.31522 55.8453 5.35089 55.8573 5.35089 56.1438C5.35089 56.3825 5.41033 56.4422 5.6362 56.4422H5.93341L5.41033 55.3201C5.12501 54.6993 4.92292 54.1622 4.95858 54.1264C5.00613 54.0905 4.86348 54.0547 4.64949 54.0547C4.4355 54.0547 4.29285 54.1025 4.32851 54.1502ZM4.9348 55.0336C5.1369 55.523 5.07746 55.6066 4.56627 55.6066C4.11452 55.6066 4.07886 55.5111 4.3404 55.0097C4.57816 54.5442 4.73271 54.5561 4.9348 55.0336Z" fill="white"/>
<path d="M6.62154 54.1502C6.74042 54.2219 7.21595 55.3201 7.52504 56.2273C7.57259 56.3467 7.70336 56.4422 7.82224 56.4422C8.00056 56.4422 8.07189 56.3228 8.13133 55.9886C8.17888 55.7498 8.28588 55.3798 8.36909 55.1888L8.53553 54.8307L8.78518 55.3678C8.91595 55.6663 9.03483 56.0244 9.03483 56.1676C9.03483 56.3825 9.10616 56.4422 9.33203 56.4422C9.52224 56.4422 9.62923 56.3706 9.62923 56.2631C9.62923 56.0005 10.188 54.4128 10.3544 54.2219C10.4614 54.0786 10.402 54.0547 10.0334 54.0547C9.72434 54.0547 9.62923 54.0905 9.73623 54.1622C9.867 54.2457 9.85511 54.377 9.70056 54.9262C9.59357 55.2962 9.4628 55.6305 9.40336 55.6663C9.2607 55.7498 8.7614 54.4367 8.84462 54.2099C8.89217 54.1025 8.79707 54.0547 8.52364 54.0667C8.30965 54.0667 8.20266 54.1025 8.28588 54.1264C8.42853 54.198 8.36909 54.5083 8.03623 55.2962C7.92923 55.5588 7.79846 55.714 7.73902 55.6543C7.5607 55.4395 7.22783 54.4009 7.29916 54.2338C7.34672 54.0905 7.2635 54.0547 6.91874 54.0547C6.68098 54.0547 6.53832 54.1025 6.62154 54.1502Z" fill="white"/>
<path d="M20.6731 54.1631C20.792 54.2347 20.8158 54.5332 20.792 55.333L20.7445 56.4073L21.5053 56.4193C21.9095 56.4312 22.3018 56.479 22.3612 56.5148C22.4207 56.5506 22.4682 56.4551 22.4682 56.2999C22.4682 56.0373 22.4326 56.0253 21.8144 56.0611L21.1605 56.1089V55.1539C21.1605 54.4973 21.2081 54.175 21.3151 54.1392C21.3864 54.1034 21.2438 54.0676 20.9822 54.0676C20.6731 54.0676 20.5661 54.0915 20.6731 54.1631Z" fill="white"/>
<path d="M23.7168 55.2485C23.7168 56.3945 23.7287 56.4422 23.9783 56.4422C24.228 56.4422 24.2399 56.4064 24.2042 55.3917C24.1923 54.8187 24.228 54.2815 24.2874 54.198C24.3706 54.0905 24.3112 54.0547 24.0616 54.0547H23.7168V55.2485Z" fill="white"/>
<path d="M26.2022 54.175C25.7862 54.3421 25.4414 54.8793 25.4414 55.3687C25.4414 56.1685 26.333 56.6341 27.2722 56.3237C27.7358 56.1685 27.8785 56.0372 27.7596 55.8343C27.7001 55.7507 27.5932 55.7866 27.4386 55.9298C27.082 56.2521 26.3092 56.2163 26.0239 55.8582C25.7267 55.4881 25.7386 55.0942 26.0715 54.7002C26.2855 54.4615 26.4638 54.3779 26.8561 54.366C27.1652 54.366 27.3911 54.4257 27.4505 54.5212C27.5337 54.6525 27.5813 54.6406 27.6883 54.4496C27.7953 54.2347 27.7715 54.1989 27.4386 54.1273C26.9631 54.0318 26.5113 54.0437 26.2022 54.175Z" fill="white"/>
<path d="M28.9829 54.1622C29.1018 54.2338 29.1375 54.5442 29.1018 55.3559C29.0662 56.3825 29.078 56.4422 29.3039 56.4422C29.5298 56.4422 29.5417 56.3825 29.506 55.4156C29.4822 54.759 29.5179 54.3293 29.613 54.2219C29.72 54.0786 29.6725 54.0547 29.292 54.0547C28.9948 54.0547 28.8878 54.0905 28.9829 54.1622Z" fill="white"/>
<path d="M30.9102 54.2935C30.9102 54.4367 31.0053 54.4725 31.3381 54.4367L31.7661 54.389L31.7185 55.4156C31.6829 56.3706 31.6948 56.4422 31.9206 56.4422C32.1465 56.4422 32.1584 56.3706 32.1227 55.4275L32.0871 54.4128H32.5626C32.8955 54.4128 33.05 54.3651 33.05 54.2457C33.05 54.1264 32.8123 54.0905 31.9801 54.1025C31.0885 54.1025 30.9102 54.1383 30.9102 54.2935Z" fill="white"/>
<path d="M37.6726 54.1622C37.7915 54.2338 37.8153 54.5322 37.7915 55.3559C37.7439 56.3825 37.7558 56.4422 37.9817 56.4422C38.1957 56.4422 38.2195 56.3825 38.1838 55.9647C38.1363 55.523 38.16 55.4872 38.4216 55.4872C38.7188 55.4872 39.1349 55.8573 39.2656 56.2273C39.3132 56.3586 39.4677 56.4422 39.646 56.4422H39.9551L39.5747 55.9647L39.1943 55.4872L39.5034 55.2365C39.6936 55.0933 39.8244 54.8784 39.8244 54.7113C39.8244 54.2457 39.4083 54.0547 38.3978 54.0547C37.8509 54.0547 37.5656 54.1025 37.6726 54.1622ZM39.2775 54.4487C39.6223 54.6993 39.4677 55.0575 38.9684 55.1768C38.3621 55.332 38.16 55.2127 38.16 54.7113C38.16 54.3054 38.1719 54.2935 38.6118 54.2935C38.8614 54.2935 39.1586 54.3651 39.2775 54.4487Z" fill="white"/>
<path d="M41.5135 54.2458C41.2282 54.4488 41.1688 54.795 41.4065 54.974C41.4779 55.0456 41.8345 55.1889 42.1793 55.3083C42.7023 55.4754 42.8093 55.559 42.7737 55.7619C42.7142 56.1439 42.203 56.2871 41.7275 56.0364C41.2401 55.7977 41.252 55.7977 41.252 56.0723C41.252 56.2513 41.3709 56.311 41.8226 56.3826C42.7142 56.502 43.4037 56.0842 43.2016 55.547C43.1184 55.3441 42.5597 55.0098 42.2981 55.0098C42.203 55.0098 42.0128 54.9263 41.8702 54.8188C41.3471 54.4488 42.096 54.1026 42.7023 54.4249C42.8925 54.5323 42.9639 54.5204 43.0471 54.401C43.2611 54.0548 41.9653 53.9235 41.5135 54.2458Z" fill="white"/>
</svg>
