<svg width="51" height="51" viewBox="0 0 51 51" fill="none" xmlns="http://www.w3.org/2000/svg">
<rect x="0.25" y="0.5" width="50" height="50" rx="14" fill="white"/>
<g clip-path="url(#clip0_97_950)">
<path d="M30.855 25.47L38.5437 18.79V32.0738L30.855 25.47ZM20.9475 26.6012L23.6475 28.945C24.0712 29.305 24.6237 29.5225 25.2275 29.5225H25.2487H25.265C25.87 29.5225 26.4225 29.3038 26.8512 28.9412L26.8475 28.9438L29.5475 26.6L37.755 33.6487H12.7437L20.9475 26.6012ZM12.7325 17.2062H37.77L25.7437 27.6512C25.6091 27.7593 25.4414 27.8175 25.2687 27.8162H25.2512H25.235C25.0618 27.8175 24.8935 27.7587 24.7587 27.65L24.76 27.6512L12.7325 17.2062ZM11.9562 18.7888L19.6437 25.4688L11.9562 32.0687V18.7888ZM38.9562 15.7375C38.6562 15.5875 38.3037 15.5 37.93 15.5H12.5737C12.2116 15.5014 11.8546 15.5857 11.53 15.7463L11.5437 15.74C11.1561 15.9319 10.8296 16.228 10.6011 16.5953C10.3725 16.9625 10.2509 17.3862 10.25 17.8187V33.0338C10.2507 33.6495 10.4956 34.2399 10.931 34.6753C11.3664 35.1107 11.9567 35.3556 12.5725 35.3563H37.9262C38.542 35.3556 39.1324 35.1107 39.5678 34.6753C40.0032 34.2399 40.2481 33.6495 40.2487 33.0338V17.8187C40.2487 16.91 39.725 16.1225 38.9625 15.7438L38.9487 15.7375H38.9562Z" fill="#074592"/>
</g>
<defs>
<clipPath id="clip0_97_950">
<rect width="30" height="30" fill="white" transform="translate(10.25 10.5)"/>
</clipPath>
</defs>
</svg>
