<svg width="20" height="19" viewBox="0 0 20 19" fill="none" xmlns="http://www.w3.org/2000/svg">
<path d="M7.0625 12.95C7.53975 12.5307 7.87789 11.976 8.03184 11.3596C8.1858 10.7433 8.14826 10.0947 7.92423 9.50024C7.7002 8.90579 7.30032 8.39374 6.77788 8.03232C6.25544 7.6709 5.63526 7.47729 5 7.47729C4.36474 7.47729 3.74456 7.6709 3.22212 8.03232C2.69968 8.39374 2.2998 8.90579 2.07577 9.50024C1.85174 10.0947 1.8142 10.7433 1.96816 11.3596C2.12211 11.976 2.46025 12.5307 2.9375 12.95C2.06259 13.3462 1.32029 13.986 0.799363 14.7928C0.278434 15.5997 0.000919909 16.5396 0 17.5L0 18.125C0 18.2908 0.065848 18.4497 0.183058 18.5669C0.300269 18.6842 0.45924 18.75 0.625 18.75H2.5C2.66576 18.75 2.82473 18.6842 2.94194 18.5669C3.05915 18.4497 3.125 18.2908 3.125 18.125C3.125 17.9592 3.05915 17.8003 2.94194 17.6831C2.82473 17.5658 2.66576 17.5 2.5 17.5H1.25C1.25 16.5054 1.64509 15.5516 2.34835 14.8483C3.05161 14.1451 4.00544 13.75 5 13.75C5.99456 13.75 6.94839 14.1451 7.65165 14.8483C8.35491 15.5516 8.75 16.5054 8.75 17.5H5C4.83424 17.5 4.67527 17.5658 4.55806 17.6831C4.44085 17.8003 4.375 17.9592 4.375 18.125C4.375 18.2908 4.44085 18.4497 4.55806 18.5669C4.67527 18.6842 4.83424 18.75 5 18.75H9.375C9.54076 18.75 9.69973 18.6842 9.81694 18.5669C9.93415 18.4497 10 18.2908 10 18.125V17.5C9.99908 16.5396 9.72157 15.5997 9.20064 14.7928C8.67971 13.986 7.93741 13.3462 7.0625 12.95ZM3.125 10.625C3.125 10.2542 3.23497 9.89165 3.44099 9.58331C3.64702 9.27496 3.93986 9.03464 4.28247 8.89273C4.62508 8.75081 5.00208 8.71368 5.36579 8.78603C5.72951 8.85837 6.0636 9.03695 6.32583 9.29917C6.58805 9.5614 6.76663 9.89549 6.83897 10.2592C6.91132 10.6229 6.87419 10.9999 6.73227 11.3425C6.59036 11.6851 6.35004 11.978 6.04169 12.184C5.73335 12.39 5.37084 12.5 5 12.5C4.50272 12.5 4.02581 12.3025 3.67417 11.9508C3.32254 11.5992 3.125 11.1223 3.125 10.625ZM18.125 0H10.625C10.1277 0 9.65081 0.197544 9.29917 0.549175C8.94754 0.900805 8.75 1.37772 8.75 1.875V5.625C8.75 6.12228 8.94754 6.59919 9.29917 6.95083C9.65081 7.30246 10.1277 7.5 10.625 7.5V8.75C10.625 8.86607 10.6573 8.97985 10.7183 9.07858C10.7794 9.17732 10.8667 9.25711 10.9705 9.30902C11.0743 9.36092 11.1905 9.3829 11.3061 9.37247C11.4217 9.36205 11.5321 9.31964 11.625 9.25L13.9563 7.5H18.125C18.6223 7.5 19.0992 7.30246 19.4508 6.95083C19.8025 6.59919 20 6.12228 20 5.625V1.875C20 1.37772 19.8025 0.900805 19.4508 0.549175C19.0992 0.197544 18.6223 0 18.125 0ZM18.75 5.625C18.75 5.79076 18.6842 5.94973 18.5669 6.06694C18.4497 6.18415 18.2908 6.25 18.125 6.25H13.75C13.475 6.25 13.5125 6.25 11.875 7.5V6.875C11.875 6.70924 11.8092 6.55027 11.6919 6.43306C11.5747 6.31585 11.4158 6.25 11.25 6.25H10.625C10.4592 6.25 10.3003 6.18415 10.1831 6.06694C10.0658 5.94973 10 5.79076 10 5.625V1.875C10 1.70924 10.0658 1.55027 10.1831 1.43306C10.3003 1.31585 10.4592 1.25 10.625 1.25H18.125C18.2908 1.25 18.4497 1.31585 18.5669 1.43306C18.6842 1.55027 18.75 1.70924 18.75 1.875V5.625Z" fill="white"/>
</svg>
