<svg width="51" height="51" viewBox="0 0 51 51" fill="none" xmlns="http://www.w3.org/2000/svg">
<path d="M0.856445 50.0594H38.8564C45.4839 50.0594 50.8564 44.6869 50.8564 38.0594V12.0595C50.8564 5.43203 45.4839 0.0594512 38.8564 0.0594512H0.856445V50.0594Z" fill="white"/>
<path fill-rule="evenodd" clip-rule="evenodd" d="M23.3737 20.4121V20.4121C23.5695 20.2256 23.8865 20.2256 24.0818 20.4121L28.2226 24.3681C28.6137 24.7417 28.6137 25.3479 28.2226 25.7215L24.0517 29.7067C23.8579 29.8913 23.5449 29.8937 23.3486 29.7115V29.7115C23.1483 29.5254 23.1458 29.2187 23.3431 29.0297L27.1605 25.3833C27.3563 25.1962 27.3563 24.8934 27.1605 24.7063L23.3737 21.0886C23.1779 20.902 23.1779 20.5987 23.3737 20.4121" fill="#35373B"/>
</svg>
